<?xml version="1.0" encoding="UTF-8"?>
<svg xmlns="http://www.w3.org/2000/svg" xmlns:xlink="http://www.w3.org/1999/xlink" width="115px" height="50px" viewBox="0 0 114 50" version="1.1">
<g id="surface1">
<path style=" stroke:none;fill-rule:nonzero;fill:rgb(97.254902%,96.470588%,94.901961%);fill-opacity:1;" d="M 25.558594 0.257812 C 55.109375 0.257812 84.660156 0.257812 114.234375 0.257812 C 114.234375 16.898438 114.234375 33.542969 114.234375 50.222656 C 76.253906 50.222656 38.253906 50.222656 0.253906 50.222656 C 0.253906 49.828125 0.253906 49.402344 0.367188 48.847656 C 1.054688 48.722656 1.636719 48.726562 2.339844 48.753906 C 36.804688 48.78125 71.148438 48.785156 105.488281 48.769531 C 106.367188 48.769531 107.242188 48.558594 108.191406 48.527344 C 109.324219 48.640625 110.378906 48.703125 111.4375 48.695312 C 111.679688 48.695312 112.132812 48.460938 112.128906 48.339844 C 112.097656 46.835938 111.996094 45.335938 111.914062 43.722656 C 111.996094 42.855469 112.152344 42.09375 112.152344 41.332031 C 112.167969 28.609375 112.164062 15.886719 112.164062 3.160156 C 112.164062 2.753906 112.125 2.347656 112.105469 1.867188 C 111.476562 1.867188 110.972656 1.867188 110.464844 1.867188 C 82.714844 1.867188 54.964844 1.867188 27.210938 1.863281 C 26.660156 1.863281 26.109375 1.820312 25.558594 1.6875 C 25.558594 1.136719 25.558594 0.695312 25.558594 0.257812 Z M 25.558594 0.257812 "/>
<path style=" stroke:none;fill-rule:nonzero;fill:rgb(99.215686%,98.823529%,98.823529%);fill-opacity:1;" d="M 25.441406 0.257812 C 25.558594 0.695312 25.558594 1.136719 25.445312 1.714844 C 21.414062 1.855469 17.5 1.863281 13.585938 1.859375 C 11.363281 1.855469 9.179688 2.257812 7.410156 3.578125 C 4.191406 5.972656 1.875 8.980469 2.066406 13.332031 C 1.398438 13.246094 0.828125 13.160156 0.253906 13.078125 C 0.253906 9.652344 0.253906 6.230469 0.351562 2.683594 C 1.671875 2.191406 2.90625 1.835938 3.066406 0.257812 C 6.480469 0.257812 9.894531 0.257812 13.429688 0.351562 C 13.667969 0.710938 13.78125 0.972656 13.898438 1.238281 C 13.996094 1.21875 14.09375 1.199219 14.191406 1.175781 C 14.230469 0.871094 14.273438 0.5625 14.3125 0.257812 C 17.984375 0.257812 21.652344 0.257812 25.441406 0.257812 Z M 25.441406 0.257812 "/>
<path style=" stroke:none;fill-rule:nonzero;fill:rgb(99.215686%,98.823529%,98.823529%);fill-opacity:1;" d="M 0.253906 25.128906 C 0.253906 21.449219 0.253906 17.765625 0.363281 13.964844 C 1.035156 13.847656 1.597656 13.847656 2.183594 13.964844 C 2.191406 17.765625 2.175781 21.445312 2.058594 25.125 C 1.386719 25.125 0.820312 25.128906 0.253906 25.128906 Z M 0.253906 25.128906 "/>
<path style=" stroke:none;fill-rule:nonzero;fill:rgb(99.215686%,98.823529%,98.823529%);fill-opacity:1;" d="M 2.21875 48.734375 C 1.636719 48.726562 1.054688 48.722656 0.367188 48.71875 C 0.253906 45.121094 0.253906 41.527344 0.355469 37.8125 C 1.023438 37.605469 1.59375 37.519531 2.183594 37.554688 C 2.207031 41.359375 2.210938 45.046875 2.21875 48.734375 Z M 2.21875 48.734375 "/>
<path style=" stroke:none;fill-rule:nonzero;fill:rgb(99.215686%,98.823529%,98.823529%);fill-opacity:1;" d="M 0.253906 36.667969 C 0.253906 33.242188 0.253906 29.816406 0.347656 26.273438 C 1.015625 25.980469 1.589844 25.8125 2.183594 25.761719 C 2.191406 29.558594 2.175781 33.242188 2.070312 36.921875 C 1.402344 36.835938 0.828125 36.75 0.253906 36.667969 Z M 0.253906 36.667969 "/>
<path style=" stroke:none;fill-rule:nonzero;fill:rgb(97.254902%,96.470588%,94.901961%);fill-opacity:1;" d="M 2.945312 0.257812 C 2.90625 1.835938 1.671875 2.191406 0.351562 2.5625 C 0.253906 1.8125 0.253906 1.0625 0.253906 0.257812 C 1.109375 0.257812 1.964844 0.257812 2.945312 0.257812 Z M 2.945312 0.257812 "/>
<path style=" stroke:none;fill-rule:nonzero;fill:rgb(97.254902%,96.470588%,94.901961%);fill-opacity:1;" d="M 2.164062 25.644531 C 1.589844 25.8125 1.015625 25.980469 0.347656 26.152344 C 0.253906 25.878906 0.253906 25.605469 0.253906 25.230469 C 0.820312 25.128906 1.386719 25.125 2.082031 25.210938 C 2.191406 25.414062 2.179688 25.527344 2.164062 25.644531 Z M 2.164062 25.644531 "/>
<path style=" stroke:none;fill-rule:nonzero;fill:rgb(97.254902%,96.470588%,94.901961%);fill-opacity:1;" d="M 0.253906 36.769531 C 0.828125 36.75 1.402344 36.835938 2.089844 37.003906 C 2.191406 37.207031 2.179688 37.320312 2.164062 37.4375 C 1.59375 37.519531 1.023438 37.605469 0.355469 37.691406 C 0.253906 37.417969 0.253906 37.144531 0.253906 36.769531 Z M 0.253906 36.769531 "/>
<path style=" stroke:none;fill-rule:nonzero;fill:rgb(97.254902%,96.470588%,94.901961%);fill-opacity:1;" d="M 2.164062 13.847656 C 1.597656 13.847656 1.035156 13.847656 0.363281 13.847656 C 0.253906 13.652344 0.253906 13.460938 0.253906 13.171875 C 0.828125 13.160156 1.398438 13.246094 2.089844 13.417969 C 2.191406 13.617188 2.179688 13.734375 2.164062 13.847656 Z M 2.164062 13.847656 "/>
<path style=" stroke:none;fill-rule:nonzero;fill:rgb(97.254902%,96.470588%,94.901961%);fill-opacity:1;" d="M 14.21875 0.257812 C 14.273438 0.5625 14.230469 0.871094 14.191406 1.175781 C 14.09375 1.199219 13.996094 1.21875 13.898438 1.238281 C 13.78125 0.972656 13.667969 0.710938 13.546875 0.351562 C 13.738281 0.257812 13.929688 0.257812 14.21875 0.257812 Z M 14.21875 0.257812 "/>
<path style=" stroke:none;fill-rule:nonzero;fill:rgb(0.784314%,0.784314%,0.784314%);fill-opacity:1;" d="M 2.183594 13.964844 C 2.179688 13.734375 2.191406 13.617188 2.1875 13.417969 C 1.875 8.980469 4.191406 5.972656 7.410156 3.578125 C 9.179688 2.257812 11.363281 1.855469 13.585938 1.859375 C 17.5 1.863281 21.414062 1.855469 25.445312 1.824219 C 26.109375 1.820312 26.660156 1.863281 27.210938 1.863281 C 54.964844 1.867188 82.714844 1.867188 110.464844 1.867188 C 110.972656 1.867188 111.476562 1.867188 112.105469 1.867188 C 112.125 2.347656 112.164062 2.753906 112.164062 3.160156 C 112.164062 15.886719 112.167969 28.609375 112.152344 41.332031 C 112.152344 42.09375 111.996094 42.855469 111.851562 43.785156 C 111.675781 44.226562 111.617188 44.542969 111.433594 44.753906 C 110.34375 46 109.222656 47.21875 108.117188 48.449219 C 107.242188 48.558594 106.367188 48.769531 105.488281 48.769531 C 71.148438 48.785156 36.804688 48.78125 2.339844 48.753906 C 2.210938 45.046875 2.207031 41.359375 2.183594 37.554688 C 2.179688 37.320312 2.191406 37.207031 2.1875 37.007812 C 2.175781 33.242188 2.191406 29.558594 2.183594 25.761719 C 2.179688 25.527344 2.191406 25.414062 2.183594 25.210938 C 2.175781 21.445312 2.191406 17.765625 2.183594 13.964844 M 84.832031 19.511719 C 84.871094 19.183594 84.914062 18.855469 84.960938 18.464844 C 83.035156 18.464844 81.175781 18.464844 79.277344 18.464844 C 77.996094 23.578125 76.722656 28.664062 75.4375 33.804688 C 77.394531 33.804688 79.253906 33.804688 81.160156 33.804688 C 81.703125 31.628906 82.230469 29.492188 82.769531 27.355469 C 83.109375 25.996094 83.429688 24.628906 83.824219 23.285156 C 84.125 22.265625 85.351562 21.578125 86.226562 21.898438 C 87.441406 22.339844 87.105469 23.257812 86.867188 24.144531 C 86.285156 26.320312 85.695312 28.492188 85.152344 30.675781 C 84.898438 31.691406 84.738281 32.726562 84.53125 33.777344 C 86.472656 33.777344 88.285156 33.777344 90.144531 33.777344 C 90.972656 30.410156 91.746094 27.09375 92.625 23.804688 C 92.796875 23.167969 93.285156 22.46875 93.832031 22.125 C 94.273438 21.847656 95.082031 21.902344 95.613281 22.109375 C 95.882812 22.214844 96.019531 23 95.980469 23.457031 C 95.929688 24.125 95.65625 24.773438 95.492188 25.433594 C 94.808594 28.195312 94.128906 30.957031 93.414062 33.859375 C 94.363281 33.859375 95.164062 33.871094 95.964844 33.855469 C 98.015625 33.8125 99.457031 32.605469 99.929688 30.585938 C 100.0625 30.007812 100.28125 29.449219 100.417969 28.871094 C 101.023438 26.347656 101.703125 23.835938 102.179688 21.285156 C 102.519531 19.457031 101.691406 18.488281 99.867188 18.148438 C 97.398438 17.683594 95.257812 18.320312 93.613281 19.988281 C 92.84375 19.378906 92.195312 18.515625 91.363281 18.273438 C 89.074219 17.601562 86.910156 18.039062 84.96875 19.730469 C 84.925781 19.738281 84.882812 19.746094 84.832031 19.511719 M 11.367188 32.308594 C 11.132812 32.78125 10.898438 33.253906 10.613281 33.828125 C 12.890625 33.828125 14.96875 33.828125 17.089844 33.828125 C 17.523438 32.851562 17.925781 31.878906 18.394531 30.933594 C 18.519531 30.679688 18.832031 30.355469 19.066406 30.347656 C 20.5 30.292969 21.9375 30.320312 23.417969 30.320312 C 23.417969 31.539062 23.417969 32.628906 23.417969 33.757812 C 25.5625 33.757812 27.691406 33.757812 29.871094 33.757812 C 29.640625 26.984375 29.417969 20.308594 29.191406 13.546875 C 27.96875 13.546875 26.910156 13.488281 25.855469 13.554688 C 23.167969 13.722656 20.828125 14.773438 19.496094 17.152344 C 16.726562 22.097656 14.148438 27.152344 11.367188 32.308594 M 63.792969 18.410156 C 63.125 18.410156 62.457031 18.410156 61.84375 18.410156 C 60.964844 21.832031 60.101562 25.082031 59.308594 28.347656 C 59.042969 29.460938 58.898438 30.609375 58.8125 31.753906 C 58.730469 32.753906 59.261719 33.496094 60.203125 33.8125 C 62.050781 34.433594 63.902344 34.355469 65.667969 33.519531 C 66.199219 33.269531 66.632812 32.804688 67.335938 32.265625 C 67.207031 32.980469 67.132812 33.375 67.054688 33.808594 C 68.941406 33.808594 70.757812 33.808594 72.671875 33.808594 C 73.941406 28.714844 75.203125 23.640625 76.503906 18.410156 C 74.90625 18.410156 73.421875 18.460938 71.945312 18.390625 C 71.019531 18.34375 70.613281 18.621094 70.414062 19.582031 C 69.871094 22.210938 69.214844 24.816406 68.566406 27.421875 C 68.394531 28.121094 68.109375 28.792969 67.832031 29.457031 C 67.386719 30.519531 66.441406 30.539062 65.570312 30.3125 C 64.640625 30.070312 64.949219 29.246094 65.042969 28.589844 C 65.089844 28.25 65.175781 27.917969 65.257812 27.585938 C 66.011719 24.578125 66.773438 21.570312 67.570312 18.410156 C 66.320312 18.410156 65.179688 18.410156 63.792969 18.410156 M 40.25 32.0625 C 40.363281 33.171875 41.042969 33.769531 42.082031 33.828125 C 43.730469 33.917969 45.386719 33.914062 47.039062 33.890625 C 47.285156 33.886719 47.679688 33.601562 47.742188 33.375 C 48.003906 32.449219 48.160156 31.492188 48.351562 30.570312 C 47.539062 30.203125 46.082031 30.828125 46.46875 29.144531 C 47.023438 26.75 47.605469 24.359375 48.199219 21.875 C 49.007812 21.875 49.753906 21.875 50.53125 21.875 C 50.859375 20.699219 51.164062 19.625 51.507812 18.394531 C 50.601562 18.394531 49.902344 18.394531 49.09375 18.394531 C 49.5 16.816406 49.871094 15.371094 50.257812 13.863281 C 48.230469 13.863281 46.410156 13.863281 44.554688 13.863281 C 44.449219 14.21875 44.34375 14.535156 44.261719 14.859375 C 43.539062 17.703125 42.789062 20.535156 42.113281 23.390625 C 41.445312 26.203125 40.859375 29.035156 40.25 32.0625 M 32.511719 28.359375 C 32.050781 30.15625 31.589844 31.957031 31.121094 33.796875 C 33.070312 33.796875 34.921875 33.796875 36.832031 33.796875 C 38.511719 27.066406 40.183594 20.378906 41.890625 13.542969 C 40.171875 13.542969 38.6875 13.585938 37.210938 13.527344 C 36.359375 13.492188 36.003906 13.839844 35.816406 14.636719 C 34.761719 19.148438 33.667969 23.652344 32.511719 28.359375 M 54.410156 18.410156 C 53.53125 18.265625 53.339844 18.867188 53.183594 19.53125 C 52.628906 21.886719 52.074219 24.246094 51.503906 26.601562 C 50.929688 28.980469 50.332031 31.359375 49.730469 33.800781 C 51.742188 33.800781 53.5625 33.800781 55.414062 33.800781 C 56.691406 28.6875 57.957031 23.621094 59.257812 18.410156 C 57.613281 18.410156 56.128906 18.410156 54.410156 18.410156 M 101.351562 33.542969 C 101.542969 33.601562 101.730469 33.65625 101.921875 33.714844 C 101.980469 33.429688 102.042969 33.140625 102.128906 32.738281 C 102.238281 33.171875 102.3125 33.472656 102.390625 33.773438 C 102.882812 32.445312 103.308594 33.773438 103.84375 33.773438 C 103.824219 33.425781 103.921875 33.019531 103.769531 32.863281 C 103.027344 32.105469 102.136719 31.789062 101.074219 32.191406 C 101.195312 32.613281 101.300781 32.988281 101.351562 33.542969 Z M 101.351562 33.542969 "/>
<path style=" stroke:none;fill-rule:nonzero;fill:rgb(96.862745%,96.862745%,96.470588%);fill-opacity:1;" d="M 108.191406 48.527344 C 109.222656 47.21875 110.34375 46 111.433594 44.753906 C 111.617188 44.542969 111.675781 44.226562 111.855469 43.894531 C 111.996094 45.335938 112.097656 46.835938 112.128906 48.339844 C 112.132812 48.460938 111.679688 48.695312 111.4375 48.695312 C 110.378906 48.703125 109.324219 48.640625 108.191406 48.527344 Z M 108.191406 48.527344 "/>
<path style=" stroke:none;fill-rule:nonzero;fill:rgb(98.039216%,98.039216%,98.039216%);fill-opacity:1;" d="M 85.105469 19.738281 C 86.910156 18.039062 89.074219 17.601562 91.363281 18.273438 C 92.195312 18.515625 92.84375 19.378906 93.613281 19.988281 C 95.257812 18.320312 97.398438 17.683594 99.867188 18.148438 C 101.691406 18.488281 102.519531 19.457031 102.179688 21.285156 C 101.703125 23.835938 101.023438 26.347656 100.417969 28.871094 C 100.28125 29.449219 100.0625 30.007812 99.929688 30.585938 C 99.457031 32.605469 98.015625 33.8125 95.964844 33.855469 C 95.164062 33.871094 94.363281 33.859375 93.414062 33.859375 C 94.128906 30.957031 94.808594 28.195312 95.492188 25.433594 C 95.65625 24.773438 95.929688 24.125 95.980469 23.457031 C 96.019531 23 95.882812 22.214844 95.613281 22.109375 C 95.082031 21.902344 94.273438 21.847656 93.832031 22.125 C 93.285156 22.46875 92.796875 23.167969 92.625 23.804688 C 91.746094 27.09375 90.972656 30.410156 90.144531 33.777344 C 88.285156 33.777344 86.472656 33.777344 84.53125 33.777344 C 84.738281 32.726562 84.898438 31.691406 85.152344 30.675781 C 85.695312 28.492188 86.285156 26.320312 86.867188 24.144531 C 87.105469 23.257812 87.441406 22.339844 86.226562 21.898438 C 85.351562 21.578125 84.125 22.265625 83.824219 23.285156 C 83.429688 24.628906 83.109375 25.996094 82.769531 27.355469 C 82.230469 29.492188 81.703125 31.628906 81.160156 33.804688 C 79.253906 33.804688 77.394531 33.804688 75.4375 33.804688 C 76.722656 28.664062 77.996094 23.578125 79.277344 18.464844 C 81.175781 18.464844 83.035156 18.464844 84.960938 18.464844 C 84.914062 18.855469 84.871094 19.183594 84.8125 19.71875 C 84.898438 19.863281 85 19.800781 85.105469 19.738281 Z M 85.105469 19.738281 "/>
<path style=" stroke:none;fill-rule:nonzero;fill:rgb(98.431373%,98.431373%,98.431373%);fill-opacity:1;" d="M 11.429688 32.234375 C 14.148438 27.152344 16.726562 22.097656 19.496094 17.152344 C 20.828125 14.773438 23.167969 13.722656 25.855469 13.554688 C 26.910156 13.488281 27.96875 13.546875 29.191406 13.546875 C 29.417969 20.308594 29.640625 26.984375 29.871094 33.757812 C 27.691406 33.757812 25.5625 33.757812 23.417969 33.757812 C 23.417969 32.628906 23.417969 31.539062 23.417969 30.320312 C 21.9375 30.320312 20.5 30.292969 19.066406 30.347656 C 18.832031 30.355469 18.519531 30.679688 18.394531 30.933594 C 17.925781 31.878906 17.523438 32.851562 17.089844 33.828125 C 14.96875 33.828125 12.890625 33.828125 10.613281 33.828125 C 10.898438 33.253906 11.132812 32.78125 11.429688 32.234375 M 22.25 22.191406 C 21.65625 23.5625 21.066406 24.933594 20.445312 26.363281 C 21.644531 26.363281 22.644531 26.363281 23.742188 26.363281 C 23.917969 23.777344 24.089844 21.265625 24.257812 18.753906 C 24.160156 18.726562 24.058594 18.699219 23.957031 18.667969 C 23.40625 19.78125 22.851562 20.890625 22.25 22.191406 Z M 22.25 22.191406 "/>
<path style=" stroke:none;fill-rule:nonzero;fill:rgb(98.039216%,98.039216%,98.039216%);fill-opacity:1;" d="M 63.917969 18.410156 C 65.179688 18.410156 66.320312 18.410156 67.570312 18.410156 C 66.773438 21.570312 66.011719 24.578125 65.257812 27.585938 C 65.175781 27.917969 65.089844 28.25 65.042969 28.589844 C 64.949219 29.246094 64.640625 30.070312 65.570312 30.3125 C 66.441406 30.539062 67.386719 30.519531 67.832031 29.457031 C 68.109375 28.792969 68.394531 28.121094 68.566406 27.421875 C 69.214844 24.816406 69.871094 22.210938 70.414062 19.582031 C 70.613281 18.621094 71.019531 18.34375 71.945312 18.390625 C 73.421875 18.460938 74.90625 18.410156 76.503906 18.410156 C 75.203125 23.640625 73.941406 28.714844 72.671875 33.808594 C 70.757812 33.808594 68.941406 33.808594 67.054688 33.808594 C 67.132812 33.375 67.207031 32.980469 67.335938 32.265625 C 66.632812 32.804688 66.199219 33.269531 65.667969 33.519531 C 63.902344 34.355469 62.050781 34.433594 60.203125 33.8125 C 59.261719 33.496094 58.730469 32.753906 58.8125 31.753906 C 58.898438 30.609375 59.042969 29.460938 59.308594 28.347656 C 60.101562 25.082031 60.964844 21.832031 61.84375 18.410156 C 62.457031 18.410156 63.125 18.410156 63.917969 18.410156 Z M 63.917969 18.410156 "/>
<path style=" stroke:none;fill-rule:nonzero;fill:rgb(98.039216%,98.039216%,98.039216%);fill-opacity:1;" d="M 40.242188 31.957031 C 40.859375 29.035156 41.445312 26.203125 42.113281 23.390625 C 42.789062 20.535156 43.539062 17.703125 44.261719 14.859375 C 44.34375 14.535156 44.449219 14.21875 44.554688 13.863281 C 46.410156 13.863281 48.230469 13.863281 50.257812 13.863281 C 49.871094 15.371094 49.5 16.816406 49.09375 18.394531 C 49.902344 18.394531 50.601562 18.394531 51.507812 18.394531 C 51.164062 19.625 50.859375 20.699219 50.53125 21.875 C 49.753906 21.875 49.007812 21.875 48.199219 21.875 C 47.605469 24.359375 47.023438 26.75 46.46875 29.144531 C 46.082031 30.828125 47.539062 30.203125 48.351562 30.570312 C 48.160156 31.492188 48.003906 32.449219 47.742188 33.375 C 47.679688 33.601562 47.285156 33.886719 47.039062 33.890625 C 45.386719 33.914062 43.730469 33.917969 42.082031 33.828125 C 41.042969 33.769531 40.363281 33.171875 40.242188 31.957031 Z M 40.242188 31.957031 "/>
<path style=" stroke:none;fill-rule:nonzero;fill:rgb(98.039216%,98.039216%,98.039216%);fill-opacity:1;" d="M 32.550781 28.257812 C 33.667969 23.652344 34.761719 19.148438 35.816406 14.636719 C 36.003906 13.839844 36.359375 13.492188 37.210938 13.527344 C 38.6875 13.585938 40.171875 13.542969 41.890625 13.542969 C 40.183594 20.378906 38.511719 27.066406 36.832031 33.796875 C 34.921875 33.796875 33.070312 33.796875 31.121094 33.796875 C 31.589844 31.957031 32.050781 30.15625 32.550781 28.257812 Z M 32.550781 28.257812 "/>
<path style=" stroke:none;fill-rule:nonzero;fill:rgb(98.039216%,98.039216%,98.039216%);fill-opacity:1;" d="M 54.527344 18.410156 C 56.128906 18.410156 57.613281 18.410156 59.257812 18.410156 C 57.957031 23.621094 56.691406 28.6875 55.414062 33.800781 C 53.5625 33.800781 51.742188 33.800781 49.730469 33.800781 C 50.332031 31.359375 50.929688 28.980469 51.503906 26.601562 C 52.074219 24.246094 52.628906 21.886719 53.183594 19.53125 C 53.339844 18.867188 53.53125 18.265625 54.527344 18.410156 Z M 54.527344 18.410156 "/>
<path style=" stroke:none;fill-rule:nonzero;fill:rgb(17.647059%,17.647059%,17.647059%);fill-opacity:1;" d="M 101.378906 33.453125 C 101.300781 32.988281 101.195312 32.613281 101.074219 32.191406 C 102.136719 31.789062 103.027344 32.105469 103.769531 32.863281 C 103.921875 33.019531 103.824219 33.425781 103.84375 33.773438 C 103.308594 33.773438 102.882812 32.445312 102.390625 33.773438 C 102.3125 33.472656 102.238281 33.171875 102.128906 32.738281 C 102.042969 33.140625 101.980469 33.429688 101.921875 33.714844 C 101.730469 33.65625 101.542969 33.601562 101.378906 33.453125 Z M 101.378906 33.453125 "/>
<path style=" stroke:none;fill-rule:nonzero;fill:rgb(29.411765%,29.411765%,29.411765%);fill-opacity:1;" d="M 85.039062 19.734375 C 85 19.800781 84.898438 19.863281 84.816406 19.839844 C 84.882812 19.746094 84.925781 19.738281 85.039062 19.734375 Z M 85.039062 19.734375 "/>
<path style=" stroke:none;fill-rule:nonzero;fill:rgb(7.058824%,7.058824%,7.058824%);fill-opacity:1;" d="M 22.273438 22.09375 C 22.851562 20.890625 23.40625 19.78125 23.957031 18.667969 C 24.058594 18.699219 24.160156 18.726562 24.257812 18.753906 C 24.089844 21.265625 23.917969 23.777344 23.742188 26.363281 C 22.644531 26.363281 21.644531 26.363281 20.445312 26.363281 C 21.066406 24.933594 21.65625 23.5625 22.273438 22.09375 Z M 22.273438 22.09375 "/>
</g>
</svg>
