<?xml version="1.0" encoding="UTF-8"?>
<svg xmlns="http://www.w3.org/2000/svg" xmlns:xlink="http://www.w3.org/1999/xlink" width="150px" height="40px" viewBox="0 0 150 40" version="1.1">
<g id="surface1">
<path style=" stroke:none;fill-rule:nonzero;fill:rgb(80%,80%,80%);fill-opacity:1;" d="M 40.988281 13.234375 L 50.339844 25.566406 L 50.339844 13.234375 L 52.207031 13.234375 L 52.207031 28.542969 L 50.230469 28.542969 L 40.878906 16.105469 L 40.878906 28.542969 L 39.011719 28.542969 L 39.011719 13.234375 Z M 40.988281 13.234375 "/>
<path style=" stroke:none;fill-rule:nonzero;fill:rgb(80%,80%,80%);fill-opacity:1;" d="M 67.382812 27.945312 C 66.148438 28.417969 64.820312 28.652344 63.394531 28.652344 C 57.859375 28.652344 55.09375 25.992188 55.09375 20.675781 C 55.09375 15.644531 57.761719 13.128906 63.105469 13.128906 C 64.636719 13.128906 66.0625 13.34375 67.378906 13.773438 L 67.378906 15.484375 C 66.0625 14.984375 64.710938 14.734375 63.320312 14.734375 C 59.152344 14.734375 57.070312 16.714844 57.070312 20.675781 C 57.070312 24.921875 59.121094 27.046875 63.226562 27.046875 C 63.878906 27.046875 64.605469 26.960938 65.40625 26.789062 L 65.40625 21.585938 L 67.382812 21.585938 Z M 67.382812 27.945312 "/>
<path style=" stroke:none;fill-rule:nonzero;fill:rgb(80%,80%,80%);fill-opacity:1;" d="M 70.535156 22.636719 L 70.535156 13.234375 L 72.507812 13.234375 L 72.507812 22.632812 C 72.507812 25.574219 73.96875 27.046875 76.890625 27.046875 C 79.8125 27.046875 81.273438 25.574219 81.273438 22.632812 L 81.273438 13.234375 L 83.25 13.234375 L 83.25 22.632812 C 83.25 26.648438 81.128906 28.652344 76.890625 28.652344 C 72.652344 28.652344 70.535156 26.648438 70.535156 22.636719 Z M 70.535156 22.636719 "/>
<path style=" stroke:none;fill-rule:nonzero;fill:rgb(80%,80%,80%);fill-opacity:1;" d="M 96.746094 26.9375 L 96.746094 28.542969 L 86.777344 28.542969 L 86.777344 13.234375 L 88.75 13.234375 L 88.75 26.9375 Z M 96.746094 26.9375 "/>
<path style=" stroke:none;fill-rule:nonzero;fill:rgb(80%,80%,80%);fill-opacity:1;" d="M 105.144531 11.214844 L 112.742188 28.542969 L 110.550781 28.542969 L 108.574219 23.726562 L 103.519531 23.726562 L 104.066406 22.121094 L 107.914062 22.121094 L 105.058594 15.183594 L 99.597656 28.542969 L 97.546875 28.542969 Z M 105.144531 11.214844 "/>
<path style=" stroke:none;fill-rule:nonzero;fill:rgb(80%,80%,80%);fill-opacity:1;" d="M 114.824219 28.542969 L 114.824219 13.234375 L 121.34375 13.234375 C 124.25 13.234375 125.703125 14.460938 125.703125 16.90625 C 125.703125 18.898438 124.285156 20.371094 121.441406 21.328125 L 126.6875 28.542969 L 124.078125 28.542969 L 119.21875 21.660156 L 119.21875 20.367188 C 122.140625 19.902344 123.597656 18.777344 123.597656 16.996094 C 123.597656 15.582031 122.785156 14.875 121.164062 14.875 L 116.800781 14.875 L 116.800781 28.542969 Z M 114.824219 28.542969 "/>
<path style=" stroke:none;fill-rule:nonzero;fill:rgb(80%,80%,80%);fill-opacity:1;" d="M 134.09375 13.234375 L 134.09375 24.132812 C 134.09375 27.074219 132.367188 28.542969 128.910156 28.542969 L 128.910156 26.9375 C 131.046875 26.9375 132.117188 26.003906 132.117188 24.132812 L 132.117188 13.234375 Z M 134.09375 13.234375 "/>
<path style=" stroke:none;fill-rule:nonzero;fill:rgb(80%,80%,80%);fill-opacity:1;" d="M 137.621094 28.007812 L 137.621094 26.1875 C 139.222656 26.757812 140.953125 27.046875 142.8125 27.046875 C 145.441406 27.046875 146.757812 26.082031 146.757812 24.152344 C 146.757812 22.515625 145.785156 21.691406 143.847656 21.691406 L 141.882812 21.691406 C 138.683594 21.691406 137.085938 20.300781 137.085938 17.519531 C 137.085938 14.59375 139.132812 13.128906 143.230469 13.128906 C 145.011719 13.128906 146.667969 13.34375 148.199219 13.769531 L 148.199219 15.589844 C 146.667969 15.019531 145.011719 14.734375 143.230469 14.734375 C 140.453125 14.734375 139.0625 15.664062 139.0625 17.519531 C 139.0625 19.160156 140.003906 19.980469 141.882812 19.980469 L 143.847656 19.980469 C 147.105469 19.980469 148.734375 21.371094 148.734375 24.152344 C 148.734375 27.152344 146.761719 28.652344 142.8125 28.652344 C 140.953125 28.652344 139.222656 28.4375 137.621094 28.007812 Z M 137.621094 28.007812 "/>
<path style=" stroke:none;fill-rule:nonzero;fill:rgb(0%,0%,0%);fill-opacity:1;" d="M 41.488281 12.734375 L 50.835938 25.066406 L 50.835938 12.734375 L 52.707031 12.734375 L 52.707031 28.042969 L 50.730469 28.042969 L 41.378906 15.605469 L 41.378906 28.042969 L 39.511719 28.042969 L 39.511719 12.734375 Z M 41.488281 12.734375 "/>
<path style=" stroke:none;fill-rule:nonzero;fill:rgb(0%,0%,0%);fill-opacity:1;" d="M 67.882812 27.445312 C 66.648438 27.917969 65.320312 28.152344 63.894531 28.152344 C 58.359375 28.152344 55.59375 25.492188 55.59375 20.175781 C 55.59375 15.144531 58.265625 12.628906 63.605469 12.628906 C 65.136719 12.628906 66.5625 12.84375 67.882812 13.269531 L 67.882812 14.984375 C 66.5625 14.484375 65.210938 14.234375 63.820312 14.234375 C 59.652344 14.234375 57.570312 16.214844 57.570312 20.175781 C 57.570312 24.421875 59.621094 26.546875 63.726562 26.546875 C 64.378906 26.546875 65.105469 26.460938 65.90625 26.289062 L 65.90625 21.085938 L 67.882812 21.085938 Z M 67.882812 27.445312 "/>
<path style=" stroke:none;fill-rule:nonzero;fill:rgb(0%,0%,0%);fill-opacity:1;" d="M 71.035156 22.132812 L 71.035156 12.734375 L 73.007812 12.734375 L 73.007812 22.132812 C 73.007812 25.074219 74.46875 26.546875 77.390625 26.546875 C 80.3125 26.546875 81.773438 25.074219 81.773438 22.132812 L 81.773438 12.734375 L 83.75 12.734375 L 83.75 22.132812 C 83.75 26.144531 81.628906 28.148438 77.390625 28.148438 C 73.152344 28.148438 71.035156 26.148438 71.035156 22.132812 Z M 71.035156 22.132812 "/>
<path style=" stroke:none;fill-rule:nonzero;fill:rgb(0%,0%,0%);fill-opacity:1;" d="M 97.246094 26.4375 L 97.246094 28.042969 L 87.277344 28.042969 L 87.277344 12.734375 L 89.25 12.734375 L 89.25 26.4375 Z M 97.246094 26.4375 "/>
<path style=" stroke:none;fill-rule:nonzero;fill:rgb(0%,0%,0%);fill-opacity:1;" d="M 105.644531 10.714844 L 113.242188 28.042969 L 111.050781 28.042969 L 109.074219 23.226562 L 104.019531 23.226562 L 104.566406 21.621094 L 108.410156 21.621094 L 105.558594 14.683594 L 100.097656 28.042969 L 98.046875 28.042969 Z M 105.644531 10.714844 "/>
<path style=" stroke:none;fill-rule:nonzero;fill:rgb(0%,0%,0%);fill-opacity:1;" d="M 115.324219 28.042969 L 115.324219 12.734375 L 121.84375 12.734375 C 124.75 12.734375 126.203125 13.960938 126.203125 16.40625 C 126.203125 18.398438 124.785156 19.871094 121.941406 20.828125 L 127.1875 28.042969 L 124.578125 28.042969 L 119.71875 21.160156 L 119.71875 19.863281 C 122.640625 19.398438 124.097656 18.277344 124.097656 16.492188 C 124.097656 15.078125 123.285156 14.375 121.664062 14.375 L 117.300781 14.375 L 117.300781 28.042969 C 117.300781 28.042969 115.324219 28.042969 115.324219 28.042969 Z M 115.324219 28.042969 "/>
<path style=" stroke:none;fill-rule:nonzero;fill:rgb(65.098039%,7.058824%,5.098039%);fill-opacity:1;" d="M 134.59375 12.734375 L 134.59375 23.632812 C 134.59375 26.574219 132.867188 28.042969 129.410156 28.042969 L 129.410156 26.4375 C 131.546875 26.4375 132.617188 25.5 132.617188 23.632812 L 132.617188 12.734375 Z M 134.59375 12.734375 "/>
<path style=" stroke:none;fill-rule:nonzero;fill:rgb(65.098039%,7.058824%,5.098039%);fill-opacity:1;" d="M 138.117188 27.507812 L 138.117188 25.6875 C 139.722656 26.257812 141.453125 26.546875 143.3125 26.546875 C 145.941406 26.546875 147.253906 25.582031 147.253906 23.652344 C 147.253906 22.015625 146.285156 21.191406 144.347656 21.191406 L 142.382812 21.191406 C 139.183594 21.191406 137.582031 19.800781 137.582031 17.015625 C 137.582031 14.089844 139.632812 12.628906 143.730469 12.628906 C 145.511719 12.628906 147.167969 12.84375 148.699219 13.269531 L 148.699219 15.089844 C 147.164062 14.519531 145.511719 14.234375 143.730469 14.234375 C 140.949219 14.234375 139.5625 15.160156 139.5625 17.015625 C 139.5625 18.65625 140.5 19.480469 142.382812 19.480469 L 144.347656 19.480469 C 147.601562 19.480469 149.230469 20.871094 149.230469 23.652344 C 149.230469 26.652344 147.257812 28.152344 143.3125 28.152344 C 141.453125 28.148438 139.722656 27.933594 138.117188 27.507812 Z M 138.117188 27.507812 "/>
<path style=" stroke:none;fill-rule:nonzero;fill:rgb(0%,0%,0%);fill-opacity:1;" d="M 119.859375 36.214844 L 119.132812 34.003906 L 118.617188 34.003906 L 119.621094 36.796875 C 119.597656 36.859375 119.558594 36.949219 119.507812 37.074219 C 119.453125 37.199219 119.421875 37.269531 119.414062 37.285156 C 119.386719 37.324219 119.355469 37.359375 119.316406 37.386719 C 119.277344 37.414062 119.214844 37.425781 119.128906 37.425781 C 119.101562 37.425781 119.070312 37.425781 119.035156 37.421875 C 119 37.414062 118.945312 37.402344 118.863281 37.378906 L 118.863281 37.796875 C 118.914062 37.808594 118.957031 37.816406 118.992188 37.824219 C 119.027344 37.828125 119.078125 37.832031 119.140625 37.832031 C 119.402344 37.832031 119.589844 37.753906 119.695312 37.601562 C 119.804688 37.449219 119.988281 37.027344 120.253906 36.335938 C 120.363281 36.042969 120.5 35.664062 120.667969 35.195312 C 120.886719 34.574219 121.03125 34.179688 121.09375 34.003906 L 120.589844 34.003906 Z M 117.164062 36.402344 C 116.835938 36.402344 116.613281 36.25 116.492188 35.953125 C 116.429688 35.792969 116.394531 35.585938 116.394531 35.332031 C 116.394531 34.980469 116.472656 34.726562 116.632812 34.570312 C 116.789062 34.417969 116.96875 34.339844 117.179688 34.339844 C 117.417969 34.339844 117.597656 34.433594 117.71875 34.621094 C 117.84375 34.808594 117.902344 35.046875 117.902344 35.332031 C 117.902344 35.652344 117.84375 35.910156 117.71875 36.109375 C 117.597656 36.304688 117.410156 36.402344 117.164062 36.402344 Z M 115.976562 36.71875 L 116.398438 36.71875 L 116.398438 36.371094 C 116.496094 36.5 116.585938 36.597656 116.671875 36.65625 C 116.8125 36.753906 116.988281 36.804688 117.191406 36.804688 C 117.5625 36.804688 117.851562 36.664062 118.058594 36.378906 C 118.265625 36.09375 118.371094 35.738281 118.371094 35.308594 C 118.371094 34.855469 118.265625 34.515625 118.054688 34.28125 C 117.84375 34.050781 117.570312 33.933594 117.230469 33.933594 C 117.070312 33.933594 116.917969 33.96875 116.777344 34.035156 C 116.640625 34.105469 116.519531 34.203125 116.421875 34.335938 L 116.421875 32.984375 L 115.976562 32.984375 Z M 115.976562 36.71875 "/>
<path style=" stroke:none;fill-rule:nonzero;fill:rgb(70.196078%,70.196078%,70.196078%);fill-opacity:1;" d="M 3.695312 30.660156 L 18.742188 38.945312 L 33.863281 30.550781 L 36.683594 7.125 L 18.722656 0.945312 L 0.875 7.238281 Z M 3.695312 30.660156 "/>
<path style=" stroke:none;fill-rule:nonzero;fill:rgb(65.098039%,7.058824%,5.098039%);fill-opacity:1;" d="M 18.679688 36.964844 L 32.273438 29.429688 L 34.902344 8.480469 L 18.679688 2.9375 Z M 18.679688 36.964844 "/>
<path style=" stroke:none;fill-rule:nonzero;fill:rgb(86.666667%,10.588235%,8.627451%);fill-opacity:1;" d="M 18.679688 36.964844 L 18.679688 2.9375 L 2.878906 8.582031 L 5.292969 29.527344 Z M 18.679688 36.964844 "/>
<path style=" stroke:none;fill-rule:nonzero;fill:rgb(94.901961%,94.901961%,94.901961%);fill-opacity:1;" d="M 23.144531 21.054688 L 18.679688 23.144531 L 13.972656 23.144531 L 11.761719 28.6875 L 7.644531 28.765625 L 18.679688 4.175781 Z M 22.714844 20 L 18.710938 12.058594 L 15.425781 19.863281 L 18.679688 19.863281 Z M 22.714844 20 "/>
<path style=" stroke:none;fill-rule:nonzero;fill:rgb(70.196078%,70.196078%,70.196078%);fill-opacity:1;" d="M 22.4375 19.871094 L 18.6875 19.871094 L 18.679688 23.140625 L 23.863281 23.144531 L 26.285156 28.765625 L 30.222656 28.839844 L 18.679688 4.175781 L 18.710938 12.058594 Z M 22.4375 19.871094 "/>
<path style=" stroke:none;fill-rule:nonzero;fill:rgb(0%,0%,0%);fill-opacity:1;" d="M 133.886719 34.753906 C 133.886719 35.960938 132.945312 36.847656 131.792969 36.847656 C 130.640625 36.847656 129.699219 35.960938 129.699219 34.753906 C 129.699219 33.542969 130.640625 32.664062 131.792969 32.664062 C 132.945312 32.664062 133.886719 33.542969 133.886719 34.753906 Z M 132.96875 34.753906 C 132.96875 34.003906 132.425781 33.488281 131.792969 33.488281 C 131.160156 33.488281 130.617188 34.003906 130.617188 34.753906 C 130.617188 35.5 131.160156 36.023438 131.792969 36.023438 C 132.425781 36.023438 132.96875 35.5 132.96875 34.753906 Z M 132.96875 34.753906 "/>
<path style=" stroke:none;fill-rule:nonzero;fill:rgb(0%,0%,0%);fill-opacity:1;" d="M 138.402344 34.753906 C 138.402344 35.960938 137.460938 36.847656 136.308594 36.847656 C 135.15625 36.847656 134.214844 35.960938 134.214844 34.753906 C 134.214844 33.542969 135.15625 32.664062 136.308594 32.664062 C 137.460938 32.664062 138.402344 33.542969 138.402344 34.753906 Z M 137.484375 34.753906 C 137.484375 34.003906 136.941406 33.488281 136.308594 33.488281 C 135.675781 33.488281 135.132812 34.003906 135.132812 34.753906 C 135.132812 35.5 135.675781 36.023438 136.308594 36.023438 C 136.941406 36.023438 137.484375 35.5 137.484375 34.753906 Z M 137.484375 34.753906 "/>
<path style=" stroke:none;fill-rule:nonzero;fill:rgb(0%,0%,0%);fill-opacity:1;" d="M 142.730469 32.792969 L 142.730469 36.542969 C 142.730469 38.089844 141.820312 38.71875 140.746094 38.71875 C 139.734375 38.71875 139.125 38.042969 138.898438 37.488281 L 139.695312 37.152344 C 139.835938 37.496094 140.183594 37.894531 140.746094 37.894531 C 141.433594 37.894531 141.859375 37.472656 141.859375 36.671875 L 141.859375 36.371094 L 141.828125 36.371094 C 141.621094 36.625 141.226562 36.84375 140.730469 36.84375 C 139.6875 36.84375 138.730469 35.933594 138.730469 34.761719 C 138.730469 33.582031 139.6875 32.664062 140.730469 32.664062 C 141.226562 32.664062 141.621094 32.886719 141.828125 33.132812 L 141.859375 33.132812 L 141.859375 32.792969 Z M 141.925781 34.761719 C 141.925781 34.027344 141.433594 33.488281 140.8125 33.488281 C 140.179688 33.488281 139.648438 34.027344 139.648438 34.761719 C 139.648438 35.492188 140.179688 36.023438 140.8125 36.023438 C 141.433594 36.023438 141.925781 35.492188 141.925781 34.761719 Z M 141.925781 34.761719 "/>
<path style=" stroke:none;fill-rule:nonzero;fill:rgb(0%,0%,0%);fill-opacity:1;" d="M 144.164062 30.589844 L 144.164062 36.71875 L 143.269531 36.71875 L 143.269531 30.589844 Z M 144.164062 30.589844 "/>
<path style=" stroke:none;fill-rule:nonzero;fill:rgb(0%,0%,0%);fill-opacity:1;" d="M 147.648438 35.445312 L 148.359375 35.917969 C 148.128906 36.257812 147.574219 36.84375 146.621094 36.84375 C 145.433594 36.84375 144.550781 35.925781 144.550781 34.753906 C 144.550781 33.511719 145.441406 32.664062 146.519531 32.664062 C 147.601562 32.664062 148.128906 33.527344 148.304688 33.992188 L 148.398438 34.230469 L 145.609375 35.390625 C 145.824219 35.808594 146.15625 36.023438 146.621094 36.023438 C 147.085938 36.023438 147.410156 35.792969 147.648438 35.445312 Z M 145.457031 34.691406 L 147.324219 33.914062 C 147.21875 33.65625 146.910156 33.472656 146.546875 33.472656 C 146.082031 33.472656 145.433594 33.882812 145.457031 34.691406 Z M 145.457031 34.691406 "/>
<path style=" stroke:none;fill-rule:nonzero;fill:rgb(0%,0%,0%);fill-opacity:1;" d="M 126.316406 34.210938 L 126.316406 33.324219 L 129.300781 33.324219 C 129.328125 33.480469 129.34375 33.664062 129.34375 33.859375 C 129.34375 34.527344 129.164062 35.347656 128.578125 35.933594 C 128.007812 36.527344 127.28125 36.84375 126.316406 36.84375 C 124.53125 36.84375 123.03125 35.386719 123.03125 33.597656 C 123.03125 31.808594 124.53125 30.351562 126.316406 30.351562 C 127.304688 30.351562 128.007812 30.742188 128.539062 31.246094 L 127.914062 31.875 C 127.535156 31.515625 127.019531 31.238281 126.316406 31.238281 C 125.011719 31.238281 123.992188 32.292969 123.992188 33.597656 C 123.992188 34.90625 125.011719 35.957031 126.316406 35.957031 C 127.164062 35.957031 127.644531 35.617188 127.953125 35.308594 C 128.203125 35.058594 128.367188 34.699219 128.433594 34.210938 Z M 126.316406 34.210938 "/>
</g>
</svg>
