<?xml version="1.0" encoding="UTF-8"?>
<svg xmlns="http://www.w3.org/2000/svg" xmlns:xlink="http://www.w3.org/1999/xlink" width="104px" height="40px" viewBox="0 0 104 40" version="1.1">
<g id="surface1">
<path style=" stroke:none;fill-rule:nonzero;fill:rgb(0%,0%,0%);fill-opacity:1;" d="M 78.992188 24.089844 C 79.757812 20.671875 81.574219 19.988281 84.152344 19.832031 C 85.179688 19.769531 86.210938 19.777344 87.246094 19.933594 C 89.1875 20.234375 90.28125 21.671875 89.914062 23.628906 C 89.609375 25.234375 89.246094 26.824219 88.941406 28.425781 C 88.8125 29.125 88.445312 29.421875 87.75 29.359375 C 87.234375 29.308594 86.699219 29.445312 86.152344 29.238281 C 86.191406 28.402344 86.554688 27.628906 86.550781 26.726562 C 84.8125 26.726562 83.089844 26.722656 81.371094 26.726562 C 81.128906 26.730469 80.996094 26.871094 80.957031 27.113281 C 80.925781 27.316406 80.875 27.515625 80.828125 27.71875 C 80.375 29.71875 80.851562 29.316406 78.664062 29.34375 C 78.21875 29.347656 77.933594 29.164062 78.058594 28.601562 C 78.382812 27.121094 78.667969 25.628906 78.992188 24.089844 M 85.660156 24.953125 C 86.132812 24.890625 86.746094 25.179688 87.019531 24.578125 C 87.253906 24.0625 87.417969 23.492188 87.34375 22.902344 C 87.289062 22.476562 87.101562 22.140625 86.683594 21.921875 C 84.5625 20.808594 82.0625 21.949219 81.558594 24.273438 C 81.453125 24.742188 81.546875 24.96875 82.074219 24.957031 C 83.226562 24.9375 84.375 24.953125 85.660156 24.953125 Z M 85.660156 24.953125 "/>
<path style=" stroke:none;fill-rule:nonzero;fill:rgb(0%,0%,0%);fill-opacity:1;" d="M 52.921875 26.71875 C 52.574219 26.738281 52.5 26.921875 52.449219 27.179688 C 52.347656 27.699219 52.160156 28.203125 52.105469 28.726562 C 52.046875 29.292969 51.742188 29.367188 51.269531 29.363281 C 49.261719 29.34375 49.296875 29.460938 49.738281 27.554688 C 50.078125 26.078125 50.269531 24.5625 50.734375 23.113281 C 51.339844 21.230469 52.671875 20.210938 54.601562 19.949219 C 56.179688 19.738281 57.757812 19.667969 59.316406 20.089844 C 60.960938 20.535156 61.601562 21.613281 61.40625 23.257812 C 61.1875 25.074219 60.703125 26.863281 60.34375 28.664062 C 60.25 29.117188 59.988281 29.347656 59.53125 29.351562 C 59.070312 29.351562 58.609375 29.339844 58.148438 29.351562 C 57.714844 29.359375 57.566406 29.160156 57.667969 28.742188 C 57.773438 28.320312 57.847656 27.886719 57.972656 27.46875 C 58.132812 26.929688 57.996094 26.695312 57.402344 26.707031 C 55.929688 26.730469 54.453125 26.714844 52.921875 26.71875 M 53.90625 22.398438 C 53.25 23.105469 53.058594 23.96875 53 24.953125 C 54.585938 24.953125 56.101562 24.957031 57.613281 24.953125 C 58.398438 24.949219 58.621094 24.746094 58.722656 23.964844 C 58.746094 23.804688 58.738281 23.640625 58.769531 23.484375 C 58.949219 22.554688 58.652344 21.988281 57.773438 21.753906 C 56.4375 21.394531 55.144531 21.488281 53.90625 22.398438 Z M 53.90625 22.398438 "/>
<path style=" stroke:none;fill-rule:nonzero;fill:rgb(0%,0%,0%);fill-opacity:1;" d="M 16.238281 26.71875 C 16.007812 27.175781 15.789062 27.585938 15.585938 28 C 15.488281 28.199219 15.300781 28.414062 15.464844 28.640625 C 15.648438 28.890625 15.890625 28.699219 16.09375 28.632812 C 17.40625 28.203125 18.503906 27.398438 19.511719 26.488281 C 20.121094 25.9375 20.722656 25.363281 21.128906 24.613281 C 21.742188 23.480469 21.421875 22.746094 20.167969 22.410156 C 18.835938 22.050781 17.480469 22.148438 16.128906 22.132812 C 15.804688 22.128906 15.476562 22.144531 15.164062 22.085938 C 14.90625 22.042969 14.570312 21.980469 14.554688 21.628906 C 14.542969 21.328125 14.832031 21.222656 15.058594 21.125 C 15.632812 20.886719 16.25 20.8125 16.859375 20.707031 C 18.738281 20.382812 20.597656 20.394531 22.421875 21.039062 C 24.007812 21.601562 24.460938 22.71875 23.753906 24.246094 C 22.789062 26.351562 21.125 27.742188 19.214844 28.917969 C 17.421875 30.019531 15.53125 30.878906 13.476562 31.351562 C 13.429688 31.363281 13.390625 31.394531 13.347656 31.398438 C 12.960938 31.425781 12.492188 31.597656 12.226562 31.296875 C 11.933594 30.960938 12.234375 30.558594 12.398438 30.207031 C 13.429688 28.003906 14.789062 26.003906 16.191406 24.035156 C 16.417969 23.71875 16.726562 23.460938 17.007812 23.1875 C 17.210938 22.992188 17.464844 22.945312 17.703125 23.109375 C 17.9375 23.269531 17.859375 23.496094 17.785156 23.730469 C 17.449219 24.804688 16.683594 25.648438 16.238281 26.71875 Z M 16.238281 26.71875 "/>
<path style=" stroke:none;fill-rule:nonzero;fill:rgb(0%,0%,0%);fill-opacity:1;" d="M 25.34375 29.210938 C 24.441406 29.089844 23.601562 28.988281 22.769531 28.84375 C 22.46875 28.792969 22.089844 28.738281 22.105469 28.285156 C 22.117188 27.851562 22.480469 27.910156 22.761719 27.835938 C 23.578125 27.621094 24.410156 27.78125 25.234375 27.730469 C 26.238281 27.671875 27.25 27.65625 28.238281 27.429688 C 29.210938 27.207031 29.371094 26.742188 28.808594 25.890625 C 27.941406 24.582031 26.804688 23.496094 25.875 22.238281 C 25.449219 21.667969 25.054688 21.085938 24.957031 20.335938 C 24.847656 19.492188 25.089844 18.882812 25.832031 18.414062 C 26.46875 18.011719 27.183594 17.792969 27.910156 17.75 C 29.378906 17.660156 30.847656 17.71875 32.292969 18.042969 C 32.429688 18.074219 32.558594 18.125 32.6875 18.175781 C 32.957031 18.28125 33.203125 18.441406 33.179688 18.765625 C 33.152344 19.09375 32.816406 19.105469 32.59375 19.15625 C 32.285156 19.230469 31.957031 19.214844 31.632812 19.210938 C 30.53125 19.1875 29.429688 19.226562 28.351562 19.484375 C 27.5625 19.671875 27.378906 20.085938 27.777344 20.796875 C 28.175781 21.503906 28.75 22.078125 29.265625 22.6875 C 29.992188 23.546875 30.734375 24.390625 31.359375 25.332031 C 32.363281 26.851562 31.90625 28.304688 30.203125 28.902344 C 29.640625 29.101562 29.054688 29.222656 28.449219 29.214844 C 27.4375 29.207031 26.421875 29.210938 25.34375 29.210938 Z M 25.34375 29.210938 "/>
<path style=" stroke:none;fill-rule:nonzero;fill:rgb(0%,0%,0%);fill-opacity:1;" d="M 43.558594 21.65625 C 42.09375 21.984375 41.054688 23.378906 40.988281 25.085938 C 40.976562 25.476562 40.933594 25.890625 41.039062 26.257812 C 41.367188 27.402344 41.832031 27.625 43.308594 27.714844 C 44.636719 27.796875 45.980469 27.730469 47.316406 27.734375 C 47.734375 27.734375 48.242188 27.6875 48.148438 28.328125 C 48.085938 28.792969 48.1875 29.40625 47.328125 29.371094 C 45.695312 29.3125 44.054688 29.402344 42.421875 29.335938 C 41.472656 29.292969 40.511719 29.203125 39.621094 28.730469 C 38.621094 28.195312 38.175781 27.382812 38.117188 26.277344 C 38.035156 24.679688 38.3125 23.203125 39.375 21.941406 C 40.464844 20.648438 41.898438 20.035156 43.539062 19.96875 C 45.308594 19.902344 47.085938 19.945312 48.859375 19.960938 C 49.132812 19.960938 49.5625 19.808594 49.636719 20.183594 C 49.71875 20.601562 49.625 21.066406 49.230469 21.359375 C 48.960938 21.5625 48.636719 21.574219 48.308594 21.578125 C 46.742188 21.605469 45.175781 21.5 43.558594 21.65625 Z M 43.558594 21.65625 "/>
<path style=" stroke:none;fill-rule:nonzero;fill:rgb(0%,0%,0%);fill-opacity:1;" d="M 65.503906 25.398438 C 65.761719 24.128906 66.015625 22.914062 66.296875 21.574219 C 65.234375 21.574219 64.273438 21.589844 63.316406 21.566406 C 63.019531 21.554688 62.570312 21.761719 62.488281 21.214844 C 62.402344 20.628906 62.800781 20.039062 63.316406 19.964844 C 63.453125 19.945312 63.59375 19.953125 63.734375 19.953125 C 66.980469 19.953125 70.230469 19.949219 73.480469 19.960938 C 73.800781 19.960938 74.277344 19.773438 74.304688 20.394531 C 74.335938 21.089844 74.019531 21.554688 73.4375 21.566406 C 72.285156 21.585938 71.128906 21.613281 69.980469 21.558594 C 69.324219 21.53125 69.035156 21.742188 68.910156 22.390625 C 68.527344 24.355469 68.085938 26.308594 67.679688 28.265625 C 67.519531 29.027344 67.1875 29.34375 66.410156 29.347656 C 65.863281 29.351562 65.308594 29.429688 64.695312 29.242188 C 64.964844 27.96875 65.234375 26.714844 65.503906 25.398438 Z M 65.503906 25.398438 "/>
<path style=" stroke:none;fill-rule:nonzero;fill:rgb(0%,0%,0%);fill-opacity:1;" d="M 25.160156 13.226562 C 24.296875 12.550781 23.292969 12.515625 22.324219 12.421875 C 21.660156 12.355469 20.988281 12.402344 20.320312 12.410156 C 20.0625 12.410156 19.820312 12.371094 19.578125 12.277344 C 19.367188 12.195312 19.203125 12.089844 19.207031 11.84375 C 19.210938 11.621094 19.378906 11.53125 19.550781 11.449219 C 20.246094 11.117188 21.015625 11.007812 21.753906 10.964844 C 23.074219 10.890625 24.40625 10.828125 25.726562 11.160156 C 27.953125 11.71875 28.195312 13.265625 27.164062 14.929688 C 26.054688 16.722656 24.359375 17.878906 22.585938 18.921875 C 21.972656 19.28125 21.339844 19.613281 20.652344 19.832031 C 20.40625 19.910156 20.117188 20.003906 19.953125 19.765625 C 19.761719 19.496094 19.949219 19.253906 20.152344 19.035156 C 20.96875 18.152344 22.027344 17.5625 22.914062 16.757812 C 23.753906 15.996094 24.574219 15.230469 25.089844 14.191406 C 25.238281 13.890625 25.332031 13.59375 25.160156 13.226562 Z M 25.160156 13.226562 "/>
<path style=" stroke:none;fill-rule:nonzero;fill:rgb(0%,0%,0%);fill-opacity:1;" d="M 76.410156 25.328125 C 76.164062 26.554688 75.921875 27.722656 75.695312 28.894531 C 75.644531 29.160156 75.523438 29.335938 75.253906 29.339844 C 74.527344 29.351562 73.796875 29.34375 73.023438 29.34375 C 73.164062 27.980469 73.527344 26.769531 73.765625 25.535156 C 73.945312 24.609375 74.191406 23.695312 74.34375 22.769531 C 74.441406 22.203125 74.6875 21.980469 75.257812 22.027344 C 75.824219 22.070312 76.398438 22.035156 77.054688 22.035156 C 76.917969 23.195312 76.691406 24.238281 76.410156 25.328125 Z M 76.410156 25.328125 "/>
<path style=" stroke:none;fill-rule:nonzero;fill:rgb(0%,0%,0%);fill-opacity:1;" d="M 77.363281 20.863281 C 77.335938 21.414062 77.074219 21.605469 76.597656 21.582031 C 76.230469 21.558594 75.859375 21.613281 75.5 21.566406 C 75.195312 21.527344 74.675781 21.820312 74.679688 21.171875 C 74.683594 20.351562 74.992188 19.964844 75.597656 19.957031 C 75.988281 19.949219 76.375 19.945312 76.765625 19.957031 C 77.46875 19.976562 77.53125 20.070312 77.363281 20.863281 Z M 77.363281 20.863281 "/>
</g>
</svg>
