<?xml version="1.0" encoding="UTF-8"?>
<svg xmlns="http://www.w3.org/2000/svg" xmlns:xlink="http://www.w3.org/1999/xlink" width="136px" height="52px" viewBox="0 0 135 52" version="1.1">
<g id="surface1">
<path style=" stroke:none;fill-rule:nonzero;fill:rgb(0%,0%,0%);fill-opacity:1;" d="M 102.535156 31.316406 C 103.53125 26.875 105.890625 25.984375 109.238281 25.78125 C 110.566406 25.699219 111.910156 25.707031 113.253906 25.914062 C 115.773438 26.304688 117.195312 28.175781 116.714844 30.71875 C 116.320312 32.800781 115.847656 34.871094 115.453125 36.957031 C 115.285156 37.863281 114.808594 38.246094 113.910156 38.164062 C 113.234375 38.101562 112.542969 38.277344 111.832031 38.007812 C 111.882812 36.921875 112.355469 35.917969 112.351562 34.742188 C 110.09375 34.742188 107.859375 34.742188 105.625 34.746094 C 105.3125 34.746094 105.140625 34.933594 105.089844 35.246094 C 105.046875 35.511719 104.984375 35.773438 104.921875 36.035156 C 104.332031 38.636719 104.953125 38.113281 102.113281 38.144531 C 101.53125 38.152344 101.164062 37.914062 101.324219 37.183594 C 101.746094 35.257812 102.117188 33.320312 102.535156 31.316406 M 111.191406 32.4375 C 111.808594 32.355469 112.605469 32.734375 112.960938 31.953125 C 113.265625 31.28125 113.476562 30.539062 113.378906 29.773438 C 113.304688 29.21875 113.066406 28.785156 112.523438 28.5 C 109.769531 27.050781 106.523438 28.535156 105.867188 31.554688 C 105.734375 32.164062 105.855469 32.457031 106.542969 32.445312 C 108.03125 32.417969 109.523438 32.4375 111.191406 32.4375 Z M 111.191406 32.4375 "/>
<path style=" stroke:none;fill-rule:nonzero;fill:rgb(0%,0%,0%);fill-opacity:1;" d="M 68.695312 34.734375 C 68.246094 34.761719 68.148438 35 68.082031 35.335938 C 67.953125 36.007812 67.707031 36.664062 67.636719 37.34375 C 67.558594 38.078125 67.167969 38.175781 66.550781 38.167969 C 63.945312 38.148438 63.992188 38.300781 64.5625 35.820312 C 65.007812 33.898438 65.253906 31.929688 65.859375 30.046875 C 66.644531 27.601562 68.371094 26.273438 70.878906 25.933594 C 72.925781 25.660156 74.972656 25.566406 76.996094 26.117188 C 79.132812 26.695312 79.964844 28.097656 79.707031 30.234375 C 79.425781 32.597656 78.796875 34.921875 78.328125 37.261719 C 78.210938 37.851562 77.871094 38.152344 77.277344 38.15625 C 76.679688 38.15625 76.082031 38.144531 75.484375 38.15625 C 74.917969 38.164062 74.726562 37.90625 74.859375 37.367188 C 74.992188 36.816406 75.089844 36.253906 75.253906 35.710938 C 75.460938 35.011719 75.28125 34.707031 74.511719 34.71875 C 72.597656 34.75 70.6875 34.730469 68.695312 34.734375 M 69.972656 29.117188 C 69.121094 30.035156 68.871094 31.160156 68.800781 32.4375 C 70.859375 32.4375 72.820312 32.441406 74.785156 32.4375 C 75.804688 32.4375 76.097656 32.171875 76.226562 31.15625 C 76.253906 30.949219 76.25 30.734375 76.289062 30.53125 C 76.519531 29.324219 76.136719 28.585938 74.996094 28.28125 C 73.257812 27.816406 71.582031 27.9375 69.972656 29.117188 Z M 69.972656 29.117188 "/>
<path style=" stroke:none;fill-rule:nonzero;fill:rgb(0%,0%,0%);fill-opacity:1;" d="M 21.078125 34.734375 C 20.777344 35.328125 20.496094 35.859375 20.230469 36.398438 C 20.101562 36.660156 19.859375 36.941406 20.074219 37.230469 C 20.3125 37.554688 20.625 37.308594 20.886719 37.222656 C 22.59375 36.660156 24.019531 35.621094 25.328125 34.433594 C 26.117188 33.71875 26.902344 32.972656 27.429688 31.996094 C 28.222656 30.523438 27.808594 29.566406 26.179688 29.132812 C 24.449219 28.667969 22.691406 28.792969 20.933594 28.773438 C 20.515625 28.765625 20.09375 28.785156 19.683594 28.714844 C 19.347656 28.652344 18.914062 28.574219 18.894531 28.117188 C 18.878906 27.726562 19.25 27.589844 19.546875 27.464844 C 20.292969 27.152344 21.09375 27.054688 21.886719 26.917969 C 24.324219 26.5 26.738281 26.511719 29.105469 27.351562 C 31.164062 28.085938 31.75 29.535156 30.835938 31.523438 C 29.582031 34.253906 27.421875 36.066406 24.941406 37.59375 C 22.613281 39.027344 20.160156 40.140625 17.492188 40.757812 C 17.433594 40.773438 17.382812 40.8125 17.324219 40.816406 C 16.824219 40.851562 16.214844 41.078125 15.871094 40.683594 C 15.488281 40.25 15.882812 39.726562 16.097656 39.265625 C 17.433594 36.402344 19.195312 33.804688 21.019531 31.242188 C 21.308594 30.832031 21.710938 30.5 22.078125 30.144531 C 22.34375 29.890625 22.667969 29.828125 22.976562 30.039062 C 23.285156 30.25 23.183594 30.546875 23.085938 30.851562 C 22.652344 32.246094 21.65625 33.339844 21.078125 34.734375 Z M 21.078125 34.734375 "/>
<path style=" stroke:none;fill-rule:nonzero;fill:rgb(0%,0%,0%);fill-opacity:1;" d="M 32.898438 37.972656 C 31.726562 37.816406 30.636719 37.6875 29.554688 37.496094 C 29.167969 37.429688 28.675781 37.363281 28.691406 36.773438 C 28.710938 36.207031 29.179688 36.28125 29.542969 36.1875 C 30.605469 35.910156 31.6875 36.117188 32.753906 36.050781 C 34.058594 35.972656 35.375 35.953125 36.652344 35.660156 C 37.917969 35.371094 38.128906 34.765625 37.394531 33.660156 C 36.269531 31.957031 34.792969 30.542969 33.585938 28.910156 C 33.035156 28.167969 32.523438 27.414062 32.394531 26.4375 C 32.253906 25.335938 32.566406 24.550781 33.53125 23.941406 C 34.359375 23.417969 35.285156 23.132812 36.230469 23.074219 C 38.136719 22.957031 40.042969 23.03125 41.921875 23.457031 C 42.09375 23.496094 42.261719 23.5625 42.429688 23.628906 C 42.78125 23.765625 43.097656 23.976562 43.066406 24.394531 C 43.035156 24.824219 42.597656 24.839844 42.3125 24.90625 C 41.910156 24.996094 41.480469 24.980469 41.0625 24.972656 C 39.632812 24.945312 38.203125 24.996094 36.804688 25.328125 C 35.777344 25.570312 35.542969 26.113281 36.058594 27.035156 C 36.574219 27.953125 37.316406 28.699219 37.992188 29.496094 C 38.933594 30.609375 39.894531 31.707031 40.703125 32.929688 C 42.011719 34.90625 41.417969 36.796875 39.203125 37.574219 C 38.476562 37.832031 37.714844 37.988281 36.929688 37.980469 C 35.613281 37.96875 34.300781 37.976562 32.898438 37.972656 Z M 32.898438 37.972656 "/>
<path style=" stroke:none;fill-rule:nonzero;fill:rgb(0%,0%,0%);fill-opacity:1;" d="M 56.542969 28.152344 C 54.640625 28.578125 53.292969 30.390625 53.207031 32.609375 C 53.1875 33.117188 53.136719 33.65625 53.273438 34.132812 C 53.695312 35.621094 54.300781 35.910156 56.214844 36.027344 C 57.945312 36.132812 59.683594 36.050781 61.417969 36.054688 C 61.960938 36.054688 62.621094 35.992188 62.503906 36.828125 C 62.417969 37.433594 62.550781 38.226562 61.4375 38.183594 C 59.316406 38.105469 57.1875 38.222656 55.066406 38.132812 C 53.832031 38.082031 52.585938 37.964844 51.433594 37.347656 C 50.132812 36.652344 49.558594 35.59375 49.480469 34.160156 C 49.371094 32.085938 49.730469 30.164062 51.109375 28.523438 C 52.527344 26.84375 54.386719 26.042969 56.515625 25.960938 C 58.8125 25.871094 61.121094 25.929688 63.421875 25.949219 C 63.78125 25.949219 64.335938 25.753906 64.433594 26.242188 C 64.539062 26.78125 64.417969 27.386719 63.90625 27.769531 C 63.554688 28.03125 63.132812 28.046875 62.707031 28.054688 C 60.675781 28.089844 58.644531 27.949219 56.542969 28.152344 Z M 56.542969 28.152344 "/>
<path style=" stroke:none;fill-rule:nonzero;fill:rgb(0%,0%,0%);fill-opacity:1;" d="M 85.03125 33.019531 C 85.363281 31.367188 85.695312 29.789062 86.058594 28.046875 C 84.675781 28.046875 83.433594 28.066406 82.191406 28.035156 C 81.800781 28.023438 81.21875 28.289062 81.113281 27.582031 C 81.003906 26.816406 81.523438 26.050781 82.191406 25.953125 C 82.367188 25.929688 82.550781 25.941406 82.730469 25.941406 C 86.949219 25.941406 91.167969 25.933594 95.382812 25.949219 C 95.800781 25.953125 96.417969 25.707031 96.453125 26.511719 C 96.496094 27.417969 96.085938 28.019531 95.324219 28.035156 C 93.828125 28.0625 92.332031 28.097656 90.839844 28.027344 C 89.988281 27.988281 89.613281 28.265625 89.449219 29.109375 C 88.953125 31.664062 88.382812 34.199219 87.851562 36.746094 C 87.648438 37.734375 87.210938 38.148438 86.203125 38.152344 C 85.496094 38.15625 84.773438 38.257812 83.976562 38.011719 C 84.328125 36.359375 84.675781 34.726562 85.03125 33.019531 Z M 85.03125 33.019531 "/>
<path style=" stroke:none;fill-rule:nonzero;fill:rgb(0%,0%,0%);fill-opacity:1;" d="M 32.660156 17.191406 C 31.539062 16.316406 30.238281 16.273438 28.976562 16.148438 C 28.117188 16.0625 27.242188 16.125 26.375 16.132812 C 26.042969 16.132812 25.726562 16.082031 25.414062 15.960938 C 25.140625 15.855469 24.929688 15.71875 24.933594 15.394531 C 24.9375 15.109375 25.152344 14.992188 25.375 14.882812 C 26.28125 14.449219 27.277344 14.3125 28.234375 14.257812 C 29.953125 14.15625 31.679688 14.074219 33.394531 14.507812 C 36.28125 15.234375 36.601562 17.246094 35.261719 19.40625 C 33.824219 21.738281 31.617188 23.242188 29.320312 24.597656 C 28.523438 25.066406 27.699219 25.496094 26.8125 25.78125 C 26.492188 25.882812 26.117188 26.003906 25.898438 25.695312 C 25.652344 25.34375 25.898438 25.027344 26.160156 24.746094 C 27.222656 23.597656 28.59375 22.828125 29.746094 21.785156 C 30.835938 20.796875 31.898438 19.800781 32.566406 18.449219 C 32.761719 18.058594 32.882812 17.671875 32.660156 17.191406 Z M 32.660156 17.191406 "/>
<path style=" stroke:none;fill-rule:nonzero;fill:rgb(0%,0%,0%);fill-opacity:1;" d="M 99.1875 32.925781 C 98.863281 34.519531 98.550781 36.039062 98.257812 37.5625 C 98.191406 37.90625 98.035156 38.132812 97.6875 38.140625 C 96.742188 38.15625 95.792969 38.144531 94.789062 38.144531 C 94.972656 36.375 95.445312 34.800781 95.753906 33.195312 C 95.988281 31.992188 96.304688 30.804688 96.503906 29.597656 C 96.628906 28.863281 96.949219 28.578125 97.691406 28.632812 C 98.425781 28.691406 99.171875 28.648438 100.019531 28.648438 C 99.84375 30.15625 99.550781 31.507812 99.1875 32.925781 Z M 99.1875 32.925781 "/>
<path style=" stroke:none;fill-rule:nonzero;fill:rgb(0%,0%,0%);fill-opacity:1;" d="M 100.421875 27.121094 C 100.390625 27.839844 100.046875 28.089844 99.429688 28.054688 C 98.953125 28.027344 98.46875 28.097656 98.003906 28.035156 C 97.613281 27.984375 96.933594 28.367188 96.9375 27.523438 C 96.945312 26.457031 97.34375 25.953125 98.132812 25.941406 C 98.636719 25.933594 99.144531 25.929688 99.648438 25.941406 C 100.558594 25.96875 100.640625 26.089844 100.421875 27.121094 Z M 100.421875 27.121094 "/>
</g>
</svg>
