<?xml version="1.0" encoding="UTF-8"?>
<svg xmlns="http://www.w3.org/2000/svg" xmlns:xlink="http://www.w3.org/1999/xlink" width="48px" height="48px" viewBox="0 0 48 48" version="1.1">
<g id="surface1">
<path style=" stroke:none;fill-rule:nonzero;fill:rgb(66.27451%,4.705882%,48.627451%);fill-opacity:1;" d="M 11.832031 -0.1875 C 12.15625 -0.1875 12.480469 -0.1875 12.804688 -0.191406 C 13.589844 -0.195312 14.375 -0.1875 15.160156 -0.179688 C 16.074219 -0.171875 16.992188 -0.171875 17.90625 -0.171875 C 19.539062 -0.171875 21.175781 -0.164062 22.808594 -0.152344 C 24.390625 -0.140625 25.972656 -0.132812 27.554688 -0.132812 C 27.703125 -0.128906 27.703125 -0.128906 27.851562 -0.128906 C 28 -0.128906 28 -0.128906 28.148438 -0.128906 C 28.34375 -0.128906 28.539062 -0.128906 28.738281 -0.128906 C 28.882812 -0.128906 28.882812 -0.128906 29.03125 -0.128906 C 30.542969 -0.128906 32.054688 -0.121094 33.570312 -0.117188 C 34.117188 -0.113281 34.664062 -0.113281 35.210938 -0.113281 C 36.078125 -0.109375 36.945312 -0.105469 37.808594 -0.0976562 C 38.207031 -0.09375 38.601562 -0.09375 38.996094 -0.09375 C 39.425781 -0.09375 39.855469 -0.0859375 40.285156 -0.0820312 C 40.410156 -0.0820312 40.53125 -0.0859375 40.660156 -0.0859375 C 41.554688 -0.0664062 42.125 0.160156 42.78125 0.769531 C 43.488281 1.535156 43.472656 2.417969 43.464844 3.398438 C 43.464844 3.570312 43.464844 3.570312 43.460938 3.75 C 43.460938 4.117188 43.457031 4.484375 43.453125 4.851562 C 43.453125 5.101562 43.453125 5.355469 43.453125 5.605469 C 43.449219 6.214844 43.445312 6.828125 43.441406 7.441406 C 44.507812 7.441406 45.578125 7.441406 46.679688 7.441406 C 46.679688 20.824219 46.679688 34.210938 46.679688 48 C 36.871094 48.015625 36.871094 48.015625 26.863281 48.03125 C 24.796875 48.035156 22.730469 48.039062 20.601562 48.042969 C 18.082031 48.046875 18.082031 48.046875 16.90625 48.046875 C 16.082031 48.046875 15.253906 48.046875 14.429688 48.050781 C 13.480469 48.054688 12.527344 48.054688 11.578125 48.054688 C 11.089844 48.054688 10.605469 48.054688 10.117188 48.058594 C 9.675781 48.058594 9.238281 48.058594 8.796875 48.058594 C 8.5625 48.058594 8.328125 48.058594 8.09375 48.0625 C 7.167969 48.054688 6.714844 47.980469 6.046875 47.332031 C 5.496094 46.636719 5.363281 46.203125 5.363281 45.316406 C 5.359375 45.21875 5.359375 45.117188 5.359375 45.011719 C 5.355469 44.679688 5.351562 44.347656 5.351562 44.015625 C 5.347656 43.785156 5.347656 43.554688 5.34375 43.324219 C 5.335938 42.714844 5.332031 42.109375 5.328125 41.503906 C 5.324219 40.882812 5.316406 40.265625 5.3125 39.644531 C 5.300781 38.429688 5.289062 37.214844 5.28125 36 C 5.121094 36.097656 5.121094 36.097656 4.957031 36.199219 C 4.558594 36.441406 4.160156 36.683594 3.761719 36.921875 C 3.589844 37.027344 3.417969 37.132812 3.246094 37.238281 C 3 37.386719 2.75 37.539062 2.503906 37.6875 C 2.386719 37.757812 2.386719 37.757812 2.269531 37.832031 C 1.722656 38.160156 1.722656 38.160156 1.320312 38.160156 C 1.296875 33.875 1.277344 29.59375 1.265625 25.308594 C 1.261719 24.804688 1.261719 24.296875 1.261719 23.792969 C 1.261719 23.691406 1.261719 23.589844 1.261719 23.488281 C 1.253906 21.859375 1.246094 20.226562 1.238281 18.597656 C 1.226562 16.925781 1.21875 15.253906 1.21875 13.578125 C 1.21875 12.546875 1.210938 11.515625 1.203125 10.484375 C 1.199219 9.773438 1.195312 9.066406 1.199219 8.359375 C 1.199219 7.953125 1.195312 7.542969 1.191406 7.136719 C 1.1875 6.691406 1.1875 6.25 1.191406 5.808594 C 1.1875 5.675781 1.183594 5.546875 1.179688 5.414062 C 1.195312 4.5625 1.195312 4.5625 1.554688 4.203125 C 1.828125 4.019531 2.101562 3.867188 2.398438 3.71875 C 2.539062 3.636719 2.675781 3.550781 2.8125 3.464844 C 3.007812 3.347656 3.007812 3.347656 3.203125 3.230469 C 3.277344 3.1875 3.347656 3.144531 3.421875 3.101562 C 3.652344 2.964844 3.882812 2.828125 4.109375 2.691406 C 4.328125 2.5625 4.546875 2.433594 4.761719 2.304688 C 4.917969 2.210938 5.070312 2.121094 5.226562 2.03125 C 5.679688 1.765625 6.109375 1.484375 6.53125 1.167969 C 8.273438 -0.09375 9.726562 -0.21875 11.832031 -0.1875 Z M 11.832031 -0.1875 "/>
<path style=" stroke:none;fill-rule:nonzero;fill:rgb(40.392157%,2.745098%,29.803922%);fill-opacity:1;" d="M 43.320312 2.160156 C 43.359375 2.160156 43.398438 2.160156 43.441406 2.160156 C 43.441406 3.902344 43.441406 5.644531 43.441406 7.441406 C 44.507812 7.441406 45.578125 7.441406 46.679688 7.441406 C 46.679688 20.824219 46.679688 34.210938 46.679688 48 C 36.871094 48.015625 36.871094 48.015625 26.863281 48.03125 C 24.796875 48.035156 22.730469 48.039062 20.601562 48.042969 C 18.082031 48.046875 18.082031 48.046875 16.90625 48.046875 C 16.082031 48.046875 15.253906 48.046875 14.429688 48.050781 C 13.480469 48.054688 12.527344 48.054688 11.578125 48.054688 C 11.089844 48.054688 10.605469 48.054688 10.117188 48.058594 C 9.675781 48.058594 9.238281 48.058594 8.796875 48.058594 C 8.5625 48.058594 8.328125 48.058594 8.09375 48.0625 C 7.167969 48.054688 6.714844 47.980469 6.046875 47.332031 C 5.503906 46.644531 5.363281 46.195312 5.332031 45.320312 C 5.328125 45.21875 5.324219 45.121094 5.320312 45.015625 C 5.285156 44.089844 5.265625 43.160156 5.25 42.230469 C 5.238281 41.609375 5.222656 40.984375 5.195312 40.363281 C 5.023438 36.339844 5.023438 36.339844 5.644531 35.382812 C 6.210938 34.839844 6.84375 34.527344 7.597656 34.3125 C 7.941406 34.210938 7.941406 34.210938 8.273438 33.957031 C 8.875 33.609375 9.492188 33.65625 10.171875 33.664062 C 10.316406 33.660156 10.457031 33.660156 10.601562 33.660156 C 10.996094 33.660156 11.386719 33.660156 11.78125 33.664062 C 12.203125 33.667969 12.625 33.664062 13.050781 33.664062 C 13.78125 33.664062 14.515625 33.667969 15.25 33.667969 C 16.308594 33.671875 17.371094 33.675781 18.429688 33.675781 C 20.148438 33.675781 21.867188 33.679688 23.589844 33.683594 C 25.257812 33.6875 26.929688 33.691406 28.601562 33.695312 C 28.703125 33.695312 28.808594 33.695312 28.914062 33.695312 C 29.730469 33.695312 30.542969 33.695312 31.355469 33.695312 C 35.34375 33.703125 39.332031 33.710938 43.320312 33.71875 C 43.320312 23.304688 43.320312 12.890625 43.320312 2.160156 Z M 43.320312 2.160156 "/>
<path style=" stroke:none;fill-rule:nonzero;fill:rgb(83.137255%,31.764706%,68.235294%);fill-opacity:1;" d="M 8.761719 0.121094 C 8.820312 4.390625 8.867188 8.65625 8.894531 12.925781 C 8.898438 13.433594 8.902344 13.9375 8.90625 14.441406 C 8.90625 14.589844 8.90625 14.589844 8.90625 14.746094 C 8.917969 16.371094 8.9375 17.992188 8.964844 19.617188 C 8.988281 21.285156 9.003906 22.953125 9.007812 24.621094 C 9.011719 25.648438 9.023438 26.679688 9.042969 27.707031 C 9.058594 28.414062 9.0625 29.117188 9.058594 29.824219 C 9.058594 30.230469 9.0625 30.636719 9.074219 31.046875 C 9.144531 33.421875 9.144531 33.421875 8.5 34.121094 C 7.867188 34.613281 7.175781 34.945312 6.433594 35.257812 C 5.992188 35.457031 5.613281 35.71875 5.21875 36 C 4.46875 36.515625 3.691406 36.988281 2.910156 37.453125 C 2.792969 37.523438 2.679688 37.59375 2.558594 37.667969 C 2.394531 37.761719 2.394531 37.761719 2.230469 37.859375 C 2.132812 37.917969 2.035156 37.976562 1.933594 38.035156 C 1.679688 38.160156 1.679688 38.160156 1.320312 38.160156 C 1.296875 33.875 1.277344 29.59375 1.265625 25.308594 C 1.261719 24.804688 1.261719 24.296875 1.261719 23.792969 C 1.261719 23.691406 1.261719 23.589844 1.261719 23.488281 C 1.253906 21.859375 1.246094 20.226562 1.238281 18.597656 C 1.226562 16.925781 1.21875 15.253906 1.21875 13.578125 C 1.21875 12.546875 1.210938 11.515625 1.203125 10.484375 C 1.199219 9.773438 1.195312 9.066406 1.199219 8.359375 C 1.199219 7.953125 1.195312 7.542969 1.191406 7.136719 C 1.1875 6.691406 1.1875 6.25 1.191406 5.808594 C 1.1875 5.675781 1.183594 5.546875 1.179688 5.414062 C 1.195312 4.5625 1.195312 4.5625 1.554688 4.207031 C 1.828125 4.019531 2.101562 3.867188 2.398438 3.71875 C 2.539062 3.636719 2.679688 3.546875 2.820312 3.460938 C 2.949219 3.382812 3.082031 3.304688 3.21875 3.222656 C 3.289062 3.179688 3.363281 3.136719 3.4375 3.09375 C 3.667969 2.953125 3.902344 2.816406 4.132812 2.675781 C 4.453125 2.484375 4.773438 2.292969 5.09375 2.101562 C 5.171875 2.054688 5.25 2.007812 5.332031 1.960938 C 5.789062 1.6875 6.246094 1.410156 6.699219 1.128906 C 6.796875 1.066406 6.898438 1.007812 7 0.945312 C 7.179688 0.832031 7.355469 0.722656 7.53125 0.609375 C 8.320312 0.121094 8.320312 0.121094 8.761719 0.121094 Z M 8.761719 0.121094 "/>
<path style=" stroke:none;fill-rule:nonzero;fill:rgb(99.215686%,98.823529%,99.215686%);fill-opacity:1;" d="M 26.378906 7.171875 C 26.59375 7.167969 26.59375 7.167969 26.816406 7.167969 C 28.789062 7.171875 30.601562 7.613281 32.0625 9.011719 C 33.167969 10.199219 33.601562 11.460938 33.601562 13.078125 C 32.175781 13.078125 30.75 13.078125 29.28125 13.078125 C 29.160156 12.546875 29.160156 12.546875 29.039062 12 C 28.714844 11.386719 28.304688 10.957031 27.632812 10.730469 C 26.746094 10.566406 25.59375 10.5 24.796875 10.984375 C 24.308594 11.421875 23.964844 11.980469 23.761719 12.601562 C 23.746094 12.863281 23.742188 13.128906 23.742188 13.394531 C 23.738281 13.476562 23.738281 13.554688 23.738281 13.636719 C 23.738281 13.902344 23.734375 14.167969 23.734375 14.433594 C 23.734375 14.621094 23.734375 14.804688 23.734375 14.992188 C 23.730469 15.378906 23.730469 15.769531 23.730469 16.15625 C 23.730469 16.652344 23.726562 17.148438 23.722656 17.644531 C 23.722656 18.027344 23.722656 18.410156 23.722656 18.792969 C 23.722656 18.976562 23.71875 19.160156 23.71875 19.339844 C 23.710938 20.464844 23.726562 21.425781 24.324219 22.417969 C 25.011719 23.070312 25.601562 23.203125 26.527344 23.210938 C 26.609375 23.214844 26.6875 23.214844 26.773438 23.214844 C 27.546875 23.203125 28.105469 23.015625 28.65625 22.460938 C 29.101562 21.8125 29.167969 21.308594 29.28125 20.519531 C 30.746094 20.519531 32.210938 20.519531 33.71875 20.519531 C 33.542969 22.28125 33.132812 23.886719 31.796875 25.128906 C 29.746094 26.789062 27.234375 26.78125 24.71875 26.640625 C 24.125 26.566406 23.589844 26.394531 23.039062 26.160156 C 22.9375 26.121094 22.832031 26.082031 22.726562 26.039062 C 21.136719 25.359375 19.984375 23.953125 19.351562 22.386719 C 18.898438 21.210938 18.804688 20.078125 18.804688 18.824219 C 18.804688 18.675781 18.804688 18.527344 18.800781 18.375 C 18.800781 18.0625 18.800781 17.746094 18.800781 17.433594 C 18.800781 16.960938 18.800781 16.488281 18.796875 16.011719 C 18.789062 13.464844 18.859375 11.058594 20.742188 9.113281 C 22.355469 7.644531 24.246094 7.15625 26.378906 7.171875 Z M 26.378906 7.171875 "/>
<path style=" stroke:none;fill-rule:nonzero;fill:rgb(99.215686%,98.431373%,98.823529%);fill-opacity:1;" d="M 29.761719 37.078125 C 33.605469 37.078125 33.605469 37.078125 34.492188 37.796875 C 34.554688 37.875 34.617188 37.953125 34.679688 38.03125 C 34.746094 38.109375 34.808594 38.1875 34.875 38.269531 C 35.339844 38.976562 35.324219 39.640625 35.324219 40.460938 C 35.328125 40.582031 35.332031 40.699219 35.332031 40.824219 C 35.335938 41.722656 35.203125 42.582031 34.621094 43.300781 C 33.28125 44.566406 31.476562 44.160156 29.761719 44.160156 C 29.761719 41.824219 29.761719 39.488281 29.761719 37.078125 Z M 29.761719 37.078125 "/>
<path style=" stroke:none;fill-rule:nonzero;fill:rgb(98.823529%,97.254902%,98.431373%);fill-opacity:1;" d="M 27.359375 37.199219 C 27.742188 37.46875 28.109375 37.738281 28.320312 38.160156 C 28.378906 38.773438 28.421875 39.304688 28.109375 39.847656 C 27.863281 40.058594 27.652344 40.183594 27.359375 40.320312 C 27.425781 40.355469 27.492188 40.394531 27.558594 40.429688 C 28.492188 40.976562 28.492188 40.976562 28.679688 41.519531 C 28.765625 42.148438 28.796875 42.75 28.453125 43.304688 C 27.898438 43.945312 27.242188 44.242188 26.40625 44.328125 C 25.390625 44.363281 24.589844 44.3125 23.789062 43.640625 C 23.421875 43.203125 23.160156 42.824219 23.160156 42.238281 C 23.433594 42.222656 23.703125 42.210938 23.976562 42.203125 C 24.207031 42.191406 24.207031 42.191406 24.4375 42.179688 C 24.570312 42.199219 24.703125 42.21875 24.839844 42.238281 C 25.058594 42.535156 25.058594 42.535156 25.199219 42.839844 C 25.582031 43.03125 25.984375 43.019531 26.398438 42.960938 C 26.664062 42.792969 26.664062 42.792969 26.761719 42.480469 C 26.800781 42.144531 26.789062 41.863281 26.761719 41.519531 C 26.445312 41.203125 26.222656 41.210938 25.785156 41.144531 C 25.652344 41.125 25.523438 41.105469 25.386719 41.085938 C 25.285156 41.070312 25.183594 41.054688 25.078125 41.039062 C 25.078125 40.644531 25.078125 40.246094 25.078125 39.839844 C 25.347656 39.820312 25.617188 39.800781 25.886719 39.78125 C 26.210938 39.707031 26.324219 39.621094 26.519531 39.359375 C 26.566406 38.980469 26.582031 38.746094 26.386719 38.414062 C 26.050781 38.214844 25.824219 38.226562 25.441406 38.28125 C 25.164062 38.503906 25 38.683594 24.839844 39 C 24.285156 39 23.730469 39 23.160156 39 C 23.300781 38.152344 23.539062 37.789062 24.210938 37.28125 C 25.144531 36.730469 26.375 36.832031 27.359375 37.199219 Z M 27.359375 37.199219 "/>
<path style=" stroke:none;fill-rule:nonzero;fill:rgb(98.823529%,97.647059%,98.431373%);fill-opacity:1;" d="M 21.238281 37.199219 C 21.722656 37.523438 22.101562 37.851562 22.320312 38.398438 C 22.328125 38.679688 22.332031 38.960938 22.320312 39.238281 C 21.804688 39.238281 21.289062 39.238281 20.761719 39.238281 C 20.679688 39.042969 20.601562 38.84375 20.519531 38.640625 C 20.234375 38.351562 20.148438 38.363281 19.753906 38.355469 C 19.617188 38.351562 19.617188 38.351562 19.476562 38.34375 C 19.089844 38.421875 18.964844 38.574219 18.71875 38.878906 C 18.632812 39.375 18.644531 39.867188 18.652344 40.371094 C 18.652344 40.613281 18.648438 40.851562 18.644531 41.09375 C 18.644531 41.324219 18.644531 41.324219 18.644531 41.558594 C 18.644531 41.695312 18.644531 41.835938 18.644531 41.980469 C 18.742188 42.472656 18.929688 42.652344 19.320312 42.960938 C 19.777344 43.007812 20.082031 42.984375 20.519531 42.839844 C 20.667969 42.417969 20.667969 42.417969 20.761719 42 C 21.3125 42 21.867188 42 22.441406 42 C 22.285156 42.933594 22.046875 43.40625 21.351562 44.015625 C 20.617188 44.476562 19.550781 44.34375 18.71875 44.28125 C 17.984375 44.09375 17.4375 43.601562 17.039062 42.960938 C 16.847656 42.464844 16.769531 42.046875 16.769531 41.515625 C 16.769531 41.382812 16.765625 41.246094 16.765625 41.109375 C 16.769531 40.96875 16.769531 40.832031 16.769531 40.6875 C 16.769531 40.550781 16.769531 40.410156 16.765625 40.269531 C 16.769531 39.222656 16.808594 38.417969 17.550781 37.628906 C 18.554688 36.722656 20.015625 36.734375 21.238281 37.199219 Z M 21.238281 37.199219 "/>
<path style=" stroke:none;fill-rule:nonzero;fill:rgb(41.960784%,5.098039%,31.372549%);fill-opacity:1;" d="M 31.441406 38.398438 C 32.84375 38.398438 32.84375 38.398438 33.238281 38.761719 C 33.542969 39.394531 33.523438 39.980469 33.523438 40.671875 C 33.527344 40.789062 33.53125 40.90625 33.535156 41.027344 C 33.535156 41.75 33.484375 42.171875 33 42.71875 C 32.460938 43.050781 32.128906 42.960938 31.441406 42.960938 C 31.441406 41.457031 31.441406 39.949219 31.441406 38.398438 Z M 31.441406 38.398438 "/>
</g>
</svg>
