<?xml version="1.0" encoding="UTF-8"?>
<svg xmlns="http://www.w3.org/2000/svg" xmlns:xlink="http://www.w3.org/1999/xlink" width="180px" height="40px" viewBox="0 0 179 40" version="1.1">
<g id="surface1">
<path style=" stroke:none;fill-rule:nonzero;fill:rgb(100%,83.921569%,0%);fill-opacity:1;" d="M 119.058594 17.535156 C 123.351562 17.136719 123.351562 17.136719 124.742188 18.019531 C 125.640625 18.886719 126.273438 19.917969 126.894531 20.992188 C 127.351562 21.75 127.90625 22.414062 128.46875 23.09375 C 128.730469 23.421875 128.730469 23.421875 129 23.757812 C 129.121094 23.910156 129.242188 24.0625 129.367188 24.21875 C 130.535156 23.355469 131.679688 22.476562 132.808594 21.566406 C 133.039062 21.382812 133.269531 21.203125 133.507812 21.015625 C 134.273438 20.40625 134.273438 20.40625 135.015625 19.664062 C 137.058594 17.757812 138.648438 17.433594 141.425781 17.523438 C 143.136719 17.625 143.136719 17.625 143.472656 17.960938 C 143.324219 20.023438 142.894531 22.019531 142.460938 24.039062 C 142.355469 24.550781 142.355469 24.550781 142.242188 25.074219 C 142.054688 25.972656 141.863281 26.867188 141.671875 27.765625 C 141.476562 28.683594 141.285156 29.605469 141.089844 30.523438 C 140.710938 32.324219 140.328125 34.121094 139.945312 35.917969 C 139.1875 35.925781 138.429688 35.929688 137.675781 35.933594 C 137.457031 35.9375 137.242188 35.941406 137.019531 35.941406 C 135.394531 35.949219 135.394531 35.949219 134.792969 35.644531 C 134.96875 33.148438 135.492188 30.753906 136.03125 28.316406 C 136.164062 27.703125 136.296875 27.089844 136.429688 26.476562 C 136.511719 26.09375 136.59375 25.714844 136.679688 25.335938 C 136.84375 24.582031 136.960938 23.90625 136.960938 23.128906 C 136.628906 23.414062 136.628906 23.414062 136.285156 23.707031 C 130.542969 28.609375 130.542969 28.609375 128.742188 28.671875 C 128.484375 28.6875 128.226562 28.699219 127.964844 28.714844 C 126.199219 28.386719 125.140625 26.328125 124.128906 24.949219 C 123.90625 24.648438 123.90625 24.648438 123.679688 24.339844 C 123.3125 23.84375 122.949219 23.351562 122.585938 22.855469 C 122.519531 23.183594 122.519531 23.183594 122.445312 23.519531 C 122.234375 24.507812 122.023438 25.492188 121.808594 26.480469 C 121.734375 26.824219 121.660156 27.167969 121.585938 27.519531 C 121.515625 27.847656 121.445312 28.179688 121.371094 28.515625 C 121.304688 28.820312 121.238281 29.125 121.171875 29.4375 C 120.960938 30.203125 120.960938 30.203125 120.417969 31.019531 C 119.910156 31.113281 119.910156 31.113281 119.296875 31.101562 C 119.078125 31.097656 118.859375 31.09375 118.636719 31.09375 C 118.40625 31.085938 118.179688 31.078125 117.945312 31.070312 C 117.597656 31.066406 117.597656 31.066406 117.246094 31.058594 C 116.675781 31.050781 116.105469 31.035156 115.535156 31.019531 C 115.699219 29.371094 115.9375 27.777344 116.289062 26.160156 C 116.335938 25.941406 116.382812 25.722656 116.429688 25.496094 C 116.527344 25.042969 116.625 24.585938 116.726562 24.128906 C 116.875 23.433594 117.023438 22.734375 117.171875 22.035156 C 117.265625 21.589844 117.363281 21.144531 117.460938 20.699219 C 117.503906 20.492188 117.546875 20.28125 117.59375 20.066406 C 118.089844 17.808594 118.089844 17.808594 119.058594 17.535156 Z M 119.058594 17.535156 "/>
<path style=" stroke:none;fill-rule:nonzero;fill:rgb(100%,83.921569%,0%);fill-opacity:1;" d="M 52.886719 17.6875 C 55.027344 17.660156 57.167969 17.640625 59.308594 17.628906 C 60.304688 17.625 61.296875 17.617188 62.292969 17.605469 C 63.253906 17.59375 64.214844 17.585938 65.179688 17.582031 C 65.71875 17.582031 66.257812 17.574219 66.800781 17.5625 C 69.289062 17.5625 71.34375 17.945312 73.480469 19.269531 C 75.203125 21.101562 75.496094 22.980469 75.472656 25.417969 C 75.230469 28.578125 73.9375 31.246094 71.667969 33.417969 C 68.746094 35.816406 64.886719 36.007812 61.265625 35.972656 C 60.820312 35.96875 60.820312 35.96875 60.367188 35.96875 C 59.433594 35.964844 58.5 35.960938 57.566406 35.953125 C 56.925781 35.949219 56.289062 35.945312 55.648438 35.945312 C 54.09375 35.9375 52.542969 35.929688 50.988281 35.917969 C 51.152344 34.25 51.398438 32.628906 51.742188 30.988281 C 51.789062 30.761719 51.835938 30.539062 51.882812 30.304688 C 51.980469 29.835938 52.078125 29.367188 52.175781 28.898438 C 52.328125 28.175781 52.476562 27.453125 52.625 26.734375 C 52.71875 26.273438 52.816406 25.816406 52.910156 25.359375 C 52.976562 25.035156 52.976562 25.035156 53.042969 24.703125 C 53.367188 23.191406 53.367188 23.191406 53.972656 22.585938 C 54.480469 22.523438 54.480469 22.523438 55.09375 22.53125 C 55.3125 22.535156 55.527344 22.535156 55.753906 22.539062 C 56.097656 22.542969 56.097656 22.542969 56.445312 22.550781 C 56.792969 22.554688 56.792969 22.554688 57.144531 22.558594 C 57.714844 22.566406 58.285156 22.574219 58.851562 22.585938 C 58.640625 24.703125 58.1875 26.765625 57.75 28.84375 C 57.675781 29.214844 57.597656 29.585938 57.519531 29.953125 C 57.332031 30.855469 57.144531 31.753906 56.953125 32.652344 C 58.027344 32.675781 59.101562 32.691406 60.175781 32.703125 C 60.476562 32.710938 60.777344 32.71875 61.085938 32.726562 C 63.304688 32.746094 65.25 32.503906 67.210938 31.410156 C 69.253906 29.125 69.765625 26.34375 69.746094 23.371094 C 69.734375 22.566406 69.734375 22.566406 69.429688 21.769531 C 67.742188 20.820312 65.832031 20.84375 63.949219 20.859375 C 63.371094 20.859375 62.792969 20.855469 62.214844 20.851562 C 61.308594 20.847656 60.40625 20.851562 59.5 20.855469 C 58.621094 20.855469 57.746094 20.851562 56.867188 20.84375 C 56.59375 20.847656 56.324219 20.851562 56.046875 20.855469 C 54.800781 20.839844 54.152344 20.800781 53.09375 20.09375 C 52.496094 19.128906 52.65625 18.761719 52.886719 17.6875 Z M 52.886719 17.6875 "/>
<path style=" stroke:none;fill-rule:nonzero;fill:rgb(100%,83.921569%,0%);fill-opacity:1;" d="M 169.878906 17.3125 C 170.21875 17.304688 170.558594 17.300781 170.90625 17.292969 C 173.402344 17.285156 175.640625 17.558594 177.644531 19.148438 C 179.296875 21.324219 179.269531 23.53125 178.925781 26.152344 C 178.734375 27.328125 178.492188 28.488281 178.234375 29.648438 C 178.101562 30.246094 177.972656 30.84375 177.847656 31.445312 C 177.109375 34.871094 177.109375 34.871094 176.289062 35.917969 C 175.773438 36.074219 175.773438 36.074219 175.199219 36.050781 C 175.015625 36.046875 174.828125 36.042969 174.640625 36.039062 C 174.289062 36.023438 174.289062 36.023438 173.933594 36.003906 C 173.1875 35.976562 172.445312 35.949219 171.675781 35.917969 C 172.035156 34.121094 172.394531 32.328125 172.761719 30.476562 C 169.09375 30.476562 165.421875 30.476562 161.640625 30.476562 C 161.285156 32.273438 160.925781 34.066406 160.558594 35.917969 C 159.035156 35.917969 157.515625 35.917969 155.945312 35.917969 C 155.675781 34.550781 155.792969 33.640625 156.085938 32.316406 C 156.132812 32.101562 156.175781 31.886719 156.226562 31.667969 C 156.324219 31.210938 156.421875 30.757812 156.523438 30.304688 C 156.675781 29.617188 156.820312 28.929688 156.964844 28.242188 C 157.78125 24.453125 158.578125 21.027344 161.925781 18.65625 C 164.40625 17.3125 167.136719 17.316406 169.878906 17.3125 Z M 163.847656 22.5 C 162.839844 24.074219 162.480469 25.65625 162.183594 27.484375 C 163.71875 27.488281 165.253906 27.496094 166.789062 27.496094 C 167.3125 27.5 167.835938 27.5 168.359375 27.503906 C 169.105469 27.507812 169.855469 27.507812 170.605469 27.507812 C 170.839844 27.511719 171.078125 27.511719 171.316406 27.515625 C 172.484375 27.550781 172.484375 27.550781 173.574219 27.210938 C 174.152344 25.703125 174.339844 24.191406 174.117188 22.585938 C 173.484375 21.453125 172.890625 21.0625 171.675781 20.679688 C 168.730469 20.425781 166.109375 20.378906 163.847656 22.5 Z M 163.847656 22.5 "/>
<path style=" stroke:none;fill-rule:nonzero;fill:rgb(100%,83.921569%,0%);fill-opacity:1;" d="M 82.640625 17.621094 C 82.953125 17.621094 83.265625 17.625 83.585938 17.625 C 83.9375 17.625 84.292969 17.625 84.65625 17.625 C 85.042969 17.628906 85.429688 17.632812 85.816406 17.632812 C 86.210938 17.636719 86.605469 17.636719 87 17.636719 C 88.039062 17.636719 89.078125 17.644531 90.117188 17.648438 C 91.175781 17.65625 92.234375 17.65625 93.292969 17.660156 C 95.375 17.667969 97.453125 17.675781 99.535156 17.6875 C 99.453125 18.136719 99.367188 18.582031 99.28125 19.03125 C 99.234375 19.28125 99.1875 19.53125 99.136719 19.785156 C 98.992188 20.40625 98.992188 20.40625 98.722656 20.679688 C 98.332031 20.714844 97.9375 20.730469 97.546875 20.734375 C 97.296875 20.742188 97.046875 20.746094 96.789062 20.753906 C 96.382812 20.757812 96.382812 20.757812 95.964844 20.765625 C 95.6875 20.773438 95.414062 20.777344 95.128906 20.785156 C 94.242188 20.800781 93.351562 20.816406 92.464844 20.832031 C 91.867188 20.84375 91.265625 20.855469 90.667969 20.867188 C 89.191406 20.898438 87.71875 20.925781 86.246094 20.953125 C 85.886719 22.390625 85.53125 23.824219 85.160156 25.304688 C 88.832031 25.304688 92.5 25.304688 96.28125 25.304688 C 95.738281 28.027344 95.738281 28.027344 95.464844 28.300781 C 94.664062 28.34375 93.871094 28.371094 93.066406 28.386719 C 92.828125 28.390625 92.585938 28.398438 92.339844 28.402344 C 91.566406 28.421875 90.796875 28.4375 90.027344 28.453125 C 89.503906 28.464844 88.984375 28.476562 88.460938 28.488281 C 87.179688 28.515625 85.898438 28.542969 84.617188 28.570312 C 84.351562 29.917969 84.082031 31.265625 83.804688 32.652344 C 90.113281 32.789062 90.113281 32.789062 96.550781 32.925781 C 96.28125 35.644531 96.28125 35.644531 96.007812 35.917969 C 95.441406 35.945312 94.875 35.949219 94.308594 35.949219 C 94.042969 35.949219 94.042969 35.949219 93.773438 35.949219 C 93.183594 35.949219 92.597656 35.945312 92.007812 35.945312 C 91.601562 35.945312 91.195312 35.945312 90.785156 35.945312 C 89.714844 35.941406 88.640625 35.941406 87.566406 35.9375 C 86.472656 35.933594 85.378906 35.933594 84.285156 35.933594 C 82.136719 35.929688 79.988281 35.925781 77.835938 35.917969 C 78.023438 33.878906 78.402344 31.914062 78.828125 29.917969 C 78.898438 29.582031 78.96875 29.25 79.042969 28.90625 C 79.230469 28.027344 79.417969 27.148438 79.605469 26.269531 C 79.757812 25.550781 79.910156 24.828125 80.058594 24.109375 C 80.242188 23.25 80.425781 22.390625 80.609375 21.53125 C 80.675781 21.207031 80.742188 20.886719 80.8125 20.554688 C 80.878906 20.257812 80.941406 19.960938 81.007812 19.652344 C 81.0625 19.390625 81.121094 19.128906 81.175781 18.859375 C 81.449219 17.941406 81.683594 17.707031 82.640625 17.621094 Z M 82.640625 17.621094 "/>
<path style=" stroke:none;fill-rule:nonzero;fill:rgb(100%,83.921569%,0%);fill-opacity:1;" d="M 21.96875 20.679688 C 22.894531 21.539062 23.269531 22.332031 23.367188 23.609375 C 23.121094 27.046875 20.136719 30.339844 17.691406 32.5 C 13.460938 35.917969 6.714844 40.210938 1.085938 40.035156 C 0.878906 40.027344 0.671875 40.023438 0.457031 40.019531 C 0.304688 40.011719 0.15625 40.007812 0 40 C 0.132812 38.367188 0.632812 37.179688 1.40625 35.75 C 1.523438 35.527344 1.640625 35.304688 1.765625 35.078125 C 3.875 31.207031 6.425781 26.617188 9.761719 23.671875 C 10.507812 23.742188 10.507812 23.742188 11.121094 23.945312 C 10.972656 25.101562 10.714844 25.957031 10.148438 26.96875 C 10.007812 27.226562 9.867188 27.480469 9.722656 27.742188 C 9.574219 28.003906 9.425781 28.265625 9.273438 28.539062 C 7.359375 31.527344 7.359375 31.527344 6.507812 34.828125 C 10.707031 33.808594 15.160156 30.789062 17.476562 27.058594 C 17.933594 26.046875 18.191406 25.332031 18.171875 24.21875 C 17.453125 23.042969 16.695312 22.765625 15.386719 22.421875 C 13.421875 21.953125 11.488281 21.898438 9.476562 21.871094 C 8.777344 21.855469 8.078125 21.84375 7.382812 21.824219 C 6.925781 21.820312 6.925781 21.820312 6.457031 21.8125 C 5.695312 21.769531 5.695312 21.769531 4.882812 21.496094 C 4.792969 21.226562 4.703125 20.957031 4.609375 20.679688 C 5.496094 19.90625 6.269531 19.667969 7.40625 19.421875 C 7.703125 19.355469 8 19.292969 8.300781 19.222656 C 12.738281 18.371094 18.011719 18.179688 21.96875 20.679688 Z M 21.96875 20.679688 "/>
<path style=" stroke:none;fill-rule:nonzero;fill:rgb(100%,83.921569%,0%);fill-opacity:1;" d="M 40.410156 14.148438 C 40.925781 14.585938 40.925781 14.585938 41.222656 14.964844 C 41.132812 15.234375 41.046875 15.503906 40.953125 15.78125 C 40.1875 16.039062 39.667969 16.097656 38.871094 16.121094 C 38.492188 16.132812 38.492188 16.132812 38.109375 16.148438 C 37.847656 16.15625 37.582031 16.164062 37.308594 16.171875 C 33.589844 16.078125 33.589844 16.078125 30.375 17.414062 C 30.328125 19.683594 31.90625 21.03125 33.308594 22.648438 C 33.585938 22.96875 33.863281 23.285156 34.140625 23.605469 C 34.277344 23.765625 34.417969 23.925781 34.5625 24.09375 C 38.644531 28.867188 38.644531 28.867188 38.582031 31.761719 C 38.464844 32.789062 38.136719 33.265625 37.425781 34.011719 C 34.929688 35.574219 32.78125 35.695312 29.886719 35.695312 C 29.335938 35.699219 28.785156 35.703125 28.230469 35.707031 C 22.140625 35.734375 22.140625 35.734375 19.527344 34.558594 C 19.617188 34.109375 19.707031 33.660156 19.796875 33.199219 C 20.976562 32.917969 22.140625 32.855469 23.347656 32.808594 C 23.777344 32.789062 24.207031 32.769531 24.636719 32.746094 C 25.3125 32.71875 25.984375 32.6875 26.65625 32.660156 C 27.3125 32.632812 27.964844 32.601562 28.617188 32.570312 C 28.816406 32.5625 29.015625 32.554688 29.21875 32.550781 C 30.648438 32.476562 31.785156 32.171875 33.085938 31.566406 C 33.429688 30.804688 33.429688 30.804688 33.203125 30.253906 C 32.527344 28.9375 31.757812 27.863281 30.765625 26.769531 C 30.476562 26.441406 30.1875 26.109375 29.902344 25.78125 C 29.753906 25.613281 29.609375 25.445312 29.460938 25.273438 C 28.742188 24.441406 28.054688 23.585938 27.375 22.722656 C 27.191406 22.492188 27.191406 22.492188 27.003906 22.257812 C 25.78125 20.699219 24.886719 19.160156 24.953125 17.144531 C 25.394531 15.851562 25.992188 15.167969 27.121094 14.421875 C 30.941406 12.574219 36.421875 12.792969 40.410156 14.148438 Z M 40.410156 14.148438 "/>
<path style=" stroke:none;fill-rule:nonzero;fill:rgb(100%,83.921569%,0%);fill-opacity:1;" d="M 104.6875 17.6875 C 106.300781 17.6875 107.910156 17.6875 109.570312 17.6875 C 109.839844 18.765625 109.824219 19.152344 109.597656 20.199219 C 109.539062 20.480469 109.476562 20.765625 109.417969 21.054688 C 109.351562 21.359375 109.285156 21.664062 109.214844 21.976562 C 109.148438 22.289062 109.082031 22.601562 109.011719 22.925781 C 108.800781 23.921875 108.582031 24.921875 108.367188 25.917969 C 108.222656 26.59375 108.074219 27.273438 107.929688 27.949219 C 107.578125 29.609375 107.21875 31.265625 106.859375 32.925781 C 111.152344 32.925781 115.449219 32.925781 119.875 32.925781 C 120.148438 33.742188 120.148438 33.742188 119.605469 35.917969 C 113.429688 35.917969 107.253906 35.917969 100.890625 35.917969 C 101.25 33.574219 101.636719 31.273438 102.128906 28.960938 C 102.195312 28.652344 102.257812 28.34375 102.324219 28.027344 C 102.460938 27.382812 102.597656 26.742188 102.734375 26.097656 C 102.945312 25.113281 103.152344 24.125 103.359375 23.136719 C 103.492188 22.507812 103.625 21.882812 103.757812 21.253906 C 103.851562 20.8125 103.851562 20.8125 103.945312 20.359375 C 104.003906 20.085938 104.0625 19.816406 104.121094 19.535156 C 104.195312 19.175781 104.195312 19.175781 104.273438 18.808594 C 104.417969 18.230469 104.417969 18.230469 104.6875 17.6875 Z M 104.6875 17.6875 "/>
<path style=" stroke:none;fill-rule:nonzero;fill:rgb(100%,83.921569%,0%);fill-opacity:1;" d="M 21.613281 -0.0664062 C 21.890625 -0.0742188 22.167969 -0.078125 22.453125 -0.0859375 C 25.011719 -0.0976562 27.539062 0.230469 29.5625 1.90625 C 30.460938 2.925781 30.535156 3.648438 30.484375 4.980469 C 29.972656 8.488281 26.800781 11.230469 24.105469 13.25 C 22.644531 14.300781 21.121094 15.226562 19.542969 16.089844 C 19.359375 16.191406 19.171875 16.292969 18.980469 16.402344 C 17.703125 17.066406 16.625 17.308594 15.1875 17.414062 C 15.3125 16.152344 15.730469 15.675781 16.679688 14.863281 C 16.925781 14.652344 17.171875 14.4375 17.425781 14.21875 C 18.265625 13.527344 19.125 12.859375 19.992188 12.191406 C 22.167969 10.46875 24.371094 8.597656 25.492188 5.988281 C 25.539062 5.125 25.539062 5.125 25.492188 4.355469 C 22.902344 2.847656 20.007812 2.902344 17.097656 2.839844 C 16.832031 2.832031 16.566406 2.824219 16.292969 2.816406 C 16.054688 2.808594 15.816406 2.804688 15.570312 2.800781 C 14.878906 2.714844 14.429688 2.523438 13.832031 2.175781 C 13.886719 1.660156 13.886719 1.660156 14.101562 1.089844 C 14.664062 0.8125 14.664062 0.8125 15.375 0.628906 C 15.605469 0.566406 15.835938 0.503906 16.074219 0.4375 C 17.933594 0.0195312 19.707031 -0.0585938 21.613281 -0.0664062 Z M 21.613281 -0.0664062 "/>
<path style=" stroke:none;fill-rule:nonzero;fill:rgb(100%,83.921569%,0%);fill-opacity:1;" d="M 149.167969 17.6875 C 150.6875 17.6875 152.210938 17.6875 153.777344 17.6875 C 154.0625 18.824219 154 19.292969 153.761719 20.414062 C 153.691406 20.746094 153.621094 21.074219 153.546875 21.414062 C 153.46875 21.773438 153.390625 22.132812 153.3125 22.492188 C 153.234375 22.863281 153.15625 23.230469 153.078125 23.601562 C 152.910156 24.375 152.746094 25.148438 152.578125 25.917969 C 152.363281 26.910156 152.148438 27.902344 151.9375 28.894531 C 151.738281 29.839844 151.535156 30.785156 151.328125 31.726562 C 151.292969 31.910156 151.253906 32.089844 151.210938 32.277344 C 151.101562 32.785156 150.992188 33.296875 150.882812 33.804688 C 150.789062 34.242188 150.789062 34.242188 150.691406 34.6875 C 150.523438 35.375 150.523438 35.375 150.25 35.917969 C 148.640625 35.917969 147.03125 35.917969 145.371094 35.917969 C 145.726562 33.6875 146.140625 31.476562 146.609375 29.269531 C 146.707031 28.804688 146.707031 28.804688 146.804688 28.335938 C 146.941406 27.691406 147.078125 27.050781 147.210938 26.40625 C 147.421875 25.417969 147.628906 24.433594 147.835938 23.445312 C 147.96875 22.816406 148.101562 22.191406 148.234375 21.5625 C 148.296875 21.269531 148.359375 20.972656 148.421875 20.667969 C 148.511719 20.261719 148.511719 20.261719 148.597656 19.84375 C 148.648438 19.601562 148.699219 19.363281 148.753906 19.117188 C 148.894531 18.503906 148.894531 18.503906 149.167969 17.6875 Z M 149.167969 17.6875 "/>
</g>
</svg>
