<?xml version="1.0" encoding="UTF-8"?>
<svg xmlns="http://www.w3.org/2000/svg" xmlns:xlink="http://www.w3.org/1999/xlink" width="64px" height="48px" viewBox="0 0 64 48" version="1.1">
<g id="surface1">
<path style=" stroke:none;fill-rule:nonzero;fill:rgb(100%,100%,100%);fill-opacity:1;" d="M 29.175781 8.746094 C 32.859375 8.746094 36.542969 8.742188 40.226562 8.746094 C 40.203125 9.78125 40.269531 10.839844 40.195312 11.855469 C 37.964844 11.871094 35.734375 11.859375 33.5 11.863281 C 33.503906 13.242188 33.492188 14.625 33.507812 16.003906 C 35.402344 15.996094 37.296875 16.003906 39.191406 16.003906 L 39.191406 19.0625 C 37.292969 19.066406 35.398438 19.0625 33.5 19.066406 L 33.5 26.050781 C 32.058594 26.050781 30.617188 26.054688 29.175781 26.050781 Z M 29.175781 8.746094 "/>
<path style=" stroke:none;fill-rule:nonzero;fill:rgb(100%,100%,100%);fill-opacity:1;" d="M 25.988281 36.703125 C 26.75 36.011719 27.894531 35.914062 28.851562 36.1875 C 29.445312 36.351562 30.03125 36.789062 30.144531 37.429688 C 30.1875 37.800781 30.226562 38.230469 29.988281 38.554688 C 29.75 38.898438 29.347656 39.082031 28.949219 39.179688 C 29.539062 39.292969 30.167969 39.625 30.335938 40.242188 C 30.445312 40.839844 30.421875 41.539062 29.992188 42.011719 C 29.476562 42.597656 28.664062 42.800781 27.910156 42.820312 C 27.242188 42.808594 26.527344 42.699219 25.992188 42.265625 C 25.578125 41.945312 25.375 41.433594 25.269531 40.9375 C 25.78125 40.890625 26.296875 40.929688 26.808594 40.914062 C 26.929688 41.667969 27.925781 41.882812 28.480469 41.464844 C 28.804688 41.191406 28.789062 40.695312 28.691406 40.320312 C 28.40625 39.738281 27.652344 39.808594 27.109375 39.8125 C 27.109375 39.445312 27.109375 39.074219 27.109375 38.707031 C 27.476562 38.699219 27.867188 38.753906 28.214844 38.601562 C 28.625 38.40625 28.648438 37.824219 28.457031 37.46875 C 28.015625 36.941406 26.976562 37.195312 26.933594 37.925781 C 26.417969 37.925781 25.902344 37.929688 25.386719 37.921875 C 25.464844 37.46875 25.636719 37.015625 25.988281 36.703125 "/>
<path style=" stroke:none;fill-rule:nonzero;fill:rgb(100%,100%,100%);fill-opacity:1;" d="M 32.75 40.050781 C 32.769531 40.457031 32.664062 40.910156 32.894531 41.28125 C 33.203125 41.703125 33.867188 41.71875 34.273438 41.433594 C 34.640625 41.121094 34.601562 40.578125 34.550781 40.144531 C 34.5 39.757812 34.074219 39.539062 33.710938 39.597656 C 33.339844 39.601562 33.011719 39.796875 32.75 40.050781 M 32.234375 36.386719 C 33.046875 35.953125 34.054688 35.964844 34.914062 36.269531 C 35.578125 36.511719 36.035156 37.167969 36.046875 37.875 C 35.574219 37.875 35.101562 37.882812 34.625 37.871094 C 34.527344 37.121094 33.460938 37.007812 32.988281 37.464844 C 32.636719 37.886719 32.773438 38.472656 32.746094 38.976562 C 33.621094 38.144531 35.28125 38.285156 35.917969 39.34375 C 36.207031 39.800781 36.214844 40.371094 36.179688 40.894531 C 36.125 41.652344 35.582031 42.316406 34.886719 42.59375 C 34.066406 42.914062 33.109375 42.90625 32.304688 42.546875 C 31.628906 42.238281 31.171875 41.539062 31.144531 40.800781 C 31.128906 39.96875 31.136719 39.136719 31.136719 38.304688 C 31.148438 37.535156 31.546875 36.757812 32.234375 36.386719 "/>
<path style=" stroke:none;fill-rule:nonzero;fill:rgb(100%,100%,100%);fill-opacity:1;" d="M 39.21875 37.265625 C 38.839844 37.390625 38.679688 37.816406 38.667969 38.1875 C 38.652344 38.941406 38.667969 39.699219 38.660156 40.453125 C 38.65625 40.820312 38.714844 41.25 39.039062 41.476562 C 39.476562 41.742188 40.214844 41.660156 40.394531 41.113281 C 40.570312 40.519531 40.457031 39.886719 40.488281 39.277344 C 40.457031 38.71875 40.585938 38.117188 40.332031 37.59375 C 40.128906 37.203125 39.605469 37.125 39.21875 37.265625 M 38.832031 36.128906 C 39.636719 35.976562 40.53125 36.035156 41.230469 36.496094 C 41.851562 36.914062 42.113281 37.691406 42.101562 38.414062 C 42.089844 39.207031 42.121094 40.003906 42.085938 40.792969 C 42.035156 41.570312 41.558594 42.332031 40.808594 42.605469 C 39.914062 42.941406 38.835938 42.914062 38.003906 42.414062 C 37.371094 42.03125 37.054688 41.289062 37.050781 40.570312 C 37.042969 39.886719 37.050781 39.203125 37.046875 38.519531 C 37.042969 37.957031 37.140625 37.367188 37.496094 36.917969 C 37.820312 36.496094 38.316406 36.238281 38.832031 36.128906 "/>
<path style=" stroke:none;fill-rule:nonzero;fill:rgb(100%,41.960784%,0%);fill-opacity:1;" d="M 29.175781 8.746094 L 29.175781 26.050781 C 30.617188 26.054688 32.058594 26.050781 33.5 26.050781 L 33.5 19.066406 C 35.398438 19.0625 37.292969 19.066406 39.191406 19.0625 L 39.191406 16.003906 C 37.296875 16.003906 35.402344 15.996094 33.507812 16.003906 C 33.492188 14.625 33.503906 13.242188 33.5 11.863281 C 35.734375 11.859375 37.964844 11.871094 40.195312 11.855469 C 40.269531 10.839844 40.203125 9.78125 40.226562 8.746094 C 36.542969 8.742188 32.859375 8.746094 29.175781 8.746094 M 17.855469 1.785156 C 18.160156 1.8125 18.464844 1.808594 18.769531 1.804688 C 28.195312 1.804688 37.625 1.808594 47.050781 1.804688 C 47.441406 1.8125 47.839844 1.78125 48.222656 1.871094 C 49.15625 2.125 49.851562 3.050781 49.839844 4.019531 C 49.84375 5.589844 49.839844 7.15625 49.839844 8.726562 C 49.839844 16.832031 49.84375 24.9375 49.839844 33.042969 C 39.167969 33.054688 28.5 33.035156 17.828125 33.054688 C 17.828125 25.128906 17.828125 17.203125 17.828125 9.277344 C 17.941406 7.488281 17.863281 5.695312 17.886719 3.90625 C 17.878906 3.210938 17.914062 2.515625 17.859375 1.820312 Z M 17.855469 1.785156 "/>
<path style=" stroke:none;fill-rule:nonzero;fill:rgb(100%,58.039216%,27.843137%);fill-opacity:1;" d="M 16.886719 2.34375 C 17.207031 2.164062 17.5 1.921875 17.859375 1.820312 C 17.914062 2.515625 17.878906 3.210938 17.886719 3.90625 C 17.863281 5.695312 17.941406 7.488281 17.828125 9.277344 C 17.828125 17.203125 17.828125 25.128906 17.828125 33.054688 C 16.796875 33.652344 15.785156 34.289062 14.757812 34.894531 C 13.535156 35.640625 12.304688 36.375 11.078125 37.117188 C 11.078125 26.699219 11.085938 16.28125 11.074219 5.859375 C 13 4.667969 14.949219 3.519531 16.886719 2.34375 "/>
<path style=" stroke:none;fill-rule:nonzero;fill:rgb(57.254902%,23.137255%,0%);fill-opacity:1;" d="M 38.832031 36.128906 C 38.316406 36.238281 37.820312 36.496094 37.496094 36.917969 C 37.140625 37.367188 37.042969 37.957031 37.046875 38.519531 C 37.050781 39.203125 37.042969 39.886719 37.050781 40.570312 C 37.054688 41.289062 37.371094 42.03125 38.003906 42.414062 C 38.835938 42.914062 39.914062 42.941406 40.808594 42.605469 C 41.558594 42.332031 42.035156 41.570312 42.085938 40.792969 C 42.121094 40.003906 42.089844 39.207031 42.101562 38.414062 C 42.113281 37.691406 41.851562 36.914062 41.230469 36.496094 C 40.53125 36.035156 39.636719 35.976562 38.832031 36.128906 M 32.234375 36.386719 C 31.546875 36.757812 31.148438 37.535156 31.136719 38.304688 C 31.136719 39.136719 31.128906 39.96875 31.140625 40.800781 C 31.171875 41.539062 31.628906 42.238281 32.304688 42.546875 C 33.109375 42.90625 34.066406 42.914062 34.886719 42.59375 C 35.582031 42.316406 36.125 41.652344 36.179688 40.894531 C 36.214844 40.371094 36.207031 39.800781 35.917969 39.34375 C 35.28125 38.285156 33.621094 38.144531 32.746094 38.976562 C 32.773438 38.472656 32.636719 37.886719 32.988281 37.464844 C 33.460938 37.007812 34.527344 37.121094 34.625 37.871094 C 35.097656 37.882812 35.574219 37.875 36.046875 37.875 C 36.035156 37.167969 35.578125 36.511719 34.914062 36.269531 C 34.054688 35.964844 33.046875 35.953125 32.234375 36.386719 M 25.988281 36.703125 C 25.636719 37.015625 25.464844 37.46875 25.386719 37.921875 C 25.902344 37.929688 26.417969 37.925781 26.933594 37.925781 C 26.976562 37.195312 28.015625 36.941406 28.457031 37.46875 C 28.644531 37.824219 28.625 38.40625 28.214844 38.601562 C 27.867188 38.753906 27.476562 38.699219 27.109375 38.707031 C 27.109375 39.074219 27.109375 39.445312 27.109375 39.8125 C 27.652344 39.808594 28.40625 39.738281 28.691406 40.320312 C 28.789062 40.695312 28.804688 41.191406 28.480469 41.464844 C 27.925781 41.882812 26.929688 41.667969 26.808594 40.914062 C 26.296875 40.929688 25.78125 40.890625 25.269531 40.9375 C 25.375 41.433594 25.578125 41.945312 25.992188 42.265625 C 26.527344 42.699219 27.242188 42.808594 27.910156 42.820312 C 28.664062 42.800781 29.476562 42.597656 29.992188 42.011719 C 30.421875 41.539062 30.445312 40.839844 30.335938 40.242188 C 30.167969 39.625 29.539062 39.292969 28.949219 39.179688 C 29.347656 39.082031 29.75 38.898438 29.988281 38.554688 C 30.226562 38.230469 30.1875 37.800781 30.144531 37.429688 C 30.03125 36.789062 29.445312 36.351562 28.851562 36.1875 C 27.894531 35.914062 26.75 36.011719 25.988281 36.703125 M 49.839844 8.726562 C 50.867188 8.726562 51.894531 8.722656 52.925781 8.726562 C 52.925781 21.222656 52.925781 33.71875 52.925781 46.210938 C 40.929688 46.210938 28.933594 46.214844 16.9375 46.210938 C 15.753906 46.261719 14.730469 45.167969 14.746094 44.003906 C 14.75 40.96875 14.722656 37.933594 14.757812 34.894531 C 15.785156 34.289062 16.796875 33.652344 17.828125 33.054688 C 28.5 33.035156 39.167969 33.054688 49.839844 33.042969 C 49.84375 24.9375 49.839844 16.832031 49.839844 8.726562 "/>
<path style=" stroke:none;fill-rule:nonzero;fill:rgb(57.254902%,23.137255%,0%);fill-opacity:1;" d="M 39.21875 37.265625 C 39.605469 37.125 40.128906 37.203125 40.332031 37.59375 C 40.585938 38.117188 40.457031 38.71875 40.488281 39.277344 C 40.457031 39.886719 40.570312 40.519531 40.394531 41.113281 C 40.214844 41.660156 39.476562 41.742188 39.039062 41.476562 C 38.714844 41.25 38.65625 40.820312 38.660156 40.453125 C 38.667969 39.699219 38.652344 38.941406 38.667969 38.1875 C 38.679688 37.816406 38.839844 37.390625 39.21875 37.265625 "/>
<path style=" stroke:none;fill-rule:nonzero;fill:rgb(57.254902%,23.137255%,0%);fill-opacity:1;" d="M 32.75 40.050781 C 33.011719 39.796875 33.339844 39.601562 33.710938 39.597656 C 34.074219 39.539062 34.5 39.757812 34.550781 40.144531 C 34.601562 40.578125 34.640625 41.121094 34.273438 41.433594 C 33.867188 41.71875 33.203125 41.703125 32.894531 41.28125 C 32.664062 40.910156 32.769531 40.457031 32.75 40.050781 "/>
</g>
</svg>
