<?xml version="1.0" encoding="UTF-8"?>
<svg xmlns="http://www.w3.org/2000/svg" xmlns:xlink="http://www.w3.org/1999/xlink" width="48px" height="48px" viewBox="0 0 48 48" version="1.1">
<g id="surface1">
<path style=" stroke:none;fill-rule:nonzero;fill:rgb(100%,100%,99.607843%);fill-opacity:1;" d="M 27.230469 48.085938 C 18.15625 48.085938 9.125 48.085938 0.0898438 48.085938 C 0.0898438 32.09375 0.0898438 16.097656 0.0898438 0.0976562 C 16.078125 0.0976562 32.070312 0.0976562 48.074219 0.0976562 C 48.074219 16.085938 48.074219 32.085938 48.074219 48.085938 C 41.144531 48.085938 34.210938 48.085938 27.230469 48.085938 M 12.949219 6.644531 C 12.691406 6.800781 12.429688 6.953125 12.175781 7.109375 C 10.800781 7.945312 9.429688 8.785156 8.046875 9.609375 C 7.785156 9.765625 7.667969 9.929688 7.667969 10.253906 C 7.679688 18.089844 7.679688 25.925781 7.679688 33.761719 C 7.679688 33.929688 7.679688 34.097656 7.679688 34.335938 C 7.863281 34.273438 7.976562 34.253906 8.066406 34.199219 C 8.527344 33.925781 8.972656 33.625 9.4375 33.359375 C 9.800781 33.15625 10.183594 32.992188 10.558594 32.890625 C 10.5625 35.160156 10.558594 37.429688 10.566406 39.699219 C 10.566406 40.824219 11.300781 41.546875 12.429688 41.546875 C 21.636719 41.546875 30.839844 41.542969 40.046875 41.542969 C 40.214844 41.542969 40.378906 41.542969 40.539062 41.542969 C 40.539062 31.695312 40.539062 21.914062 40.539062 12.085938 C 39.726562 12.085938 38.941406 12.085938 38.160156 12.042969 C 38.148438 12.015625 38.136719 11.988281 38.148438 11.878906 C 38.144531 10.742188 38.136719 9.605469 38.144531 8.410156 C 38.136719 8.371094 38.128906 8.332031 38.136719 8.226562 C 38.105469 7.308594 37.183594 6.621094 36.292969 6.621094 C 28.894531 6.632812 21.496094 6.625 14.097656 6.628906 C 13.734375 6.628906 13.371094 6.640625 12.949219 6.644531 Z M 12.949219 6.644531 "/>
<path style=" stroke:none;fill-rule:nonzero;fill:rgb(85.882353%,68.627451%,2.352941%);fill-opacity:1;" d="M 38.121094 8.292969 C 38.128906 8.332031 38.136719 8.371094 38.113281 8.464844 C 38.070312 9.367188 38.0625 10.214844 38.050781 11.0625 C 38.046875 11.363281 38.140625 11.691406 37.808594 11.902344 C 37.785156 11.917969 37.820312 12.023438 37.832031 12.097656 C 37.953125 12.039062 38.039062 12 38.128906 11.960938 C 38.136719 11.988281 38.148438 12.015625 38.152344 12.101562 C 38.140625 12.269531 38.136719 12.378906 38.105469 12.511719 C 38.070312 12.707031 38.050781 12.882812 38.050781 13.054688 C 38.050781 18.828125 38.050781 24.597656 38.050781 30.371094 C 38.050781 31.066406 38.050781 31.066406 37.34375 31.066406 C 29.550781 31.066406 21.757812 31.070312 13.964844 31.0625 C 13.644531 31.0625 13.324219 30.953125 13.003906 30.855469 C 13.003906 22.8125 13.003906 14.808594 13.046875 6.808594 C 20.71875 6.808594 28.347656 6.808594 35.976562 6.808594 C 36.050781 6.808594 36.125 6.796875 36.195312 6.808594 C 36.679688 6.886719 37.207031 6.84375 37.488281 7.410156 C 37.648438 7.730469 37.90625 8 38.121094 8.292969 M 27.433594 23.269531 C 27.398438 23.265625 27.359375 23.261719 27.328125 23.179688 C 27.320312 20.328125 27.316406 17.476562 27.378906 14.605469 C 27.9375 14.605469 28.5 14.605469 29.058594 14.605469 C 29.058594 13.734375 29.058594 12.957031 29.058594 12.144531 C 28.902344 12.136719 28.761719 12.125 28.617188 12.125 C 27.746094 12.125 26.875 12.125 26.003906 12.125 C 24.839844 12.125 23.675781 12.121094 22.515625 12.136719 C 22.378906 12.136719 22.132812 12.261719 22.128906 12.335938 C 22.101562 13.070312 22.113281 13.804688 22.113281 14.578125 C 22.613281 14.578125 23.050781 14.59375 23.484375 14.574219 C 23.75 14.566406 23.84375 14.664062 23.839844 14.925781 C 23.828125 15.710938 23.835938 16.496094 23.835938 17.28125 C 23.835938 19.128906 23.832031 20.972656 23.839844 22.820312 C 23.84375 23.109375 23.808594 23.296875 23.445312 23.269531 C 23.113281 23.242188 22.777344 23.246094 22.445312 23.269531 C 22.332031 23.277344 22.136719 23.390625 22.132812 23.460938 C 22.109375 24.207031 22.117188 24.957031 22.117188 25.730469 C 24.183594 25.730469 26.183594 25.730469 28.246094 25.742188 C 28.28125 25.738281 28.320312 25.734375 28.433594 25.746094 C 28.644531 25.746094 28.855469 25.746094 29.0625 25.746094 C 29.0625 24.898438 29.0625 24.117188 29.0625 23.300781 C 28.792969 23.300781 28.535156 23.300781 28.214844 23.28125 C 27.992188 23.285156 27.769531 23.292969 27.433594 23.269531 Z M 27.433594 23.269531 "/>
<path style=" stroke:none;fill-rule:nonzero;fill:rgb(43.921569%,35.294118%,1.960784%);fill-opacity:1;" d="M 38.132812 12.484375 C 38.136719 12.378906 38.140625 12.269531 38.152344 12.125 C 38.941406 12.085938 39.726562 12.085938 40.539062 12.085938 C 40.539062 21.914062 40.539062 31.695312 40.539062 41.542969 C 40.378906 41.542969 40.214844 41.542969 40.046875 41.542969 C 30.839844 41.542969 21.636719 41.546875 12.429688 41.546875 C 11.300781 41.546875 10.566406 40.824219 10.566406 39.699219 C 10.558594 37.429688 10.5625 35.160156 10.566406 32.824219 C 10.710938 32.636719 10.835938 32.5 10.984375 32.402344 C 11.65625 31.984375 12.335938 31.578125 13.050781 31.167969 C 21.429688 31.167969 29.765625 31.167969 38.140625 31.167969 C 38.140625 30.957031 38.140625 30.8125 38.140625 30.671875 C 38.140625 28.535156 38.140625 26.398438 38.140625 24.257812 C 38.140625 20.335938 38.136719 16.410156 38.132812 12.484375 M 23.457031 38.714844 C 23.867188 38.734375 24.277344 38.753906 24.738281 38.773438 C 24.738281 38.113281 24.738281 37.523438 24.738281 36.953125 C 25.136719 36.839844 25.355469 36.957031 25.496094 37.304688 C 25.632812 37.640625 25.816406 37.953125 25.984375 38.277344 C 26.242188 38.773438 26.671875 38.921875 27.191406 38.839844 C 27.304688 38.824219 27.480469 38.707031 27.492188 38.617188 C 27.515625 38.414062 27.523438 38.0625 27.425781 38.015625 C 26.832031 37.734375 26.804688 37.113281 26.476562 36.667969 C 26.5625 36.589844 26.613281 36.535156 26.671875 36.5 C 27.347656 36.078125 27.335938 35.417969 27.234375 34.757812 C 27.140625 34.148438 26.683594 33.859375 26.136719 33.707031 C 25.902344 33.640625 25.652344 33.617188 25.40625 33.613281 C 24.753906 33.601562 24.097656 33.613281 23.371094 33.640625 C 23.347656 33.71875 23.304688 33.800781 23.304688 33.878906 C 23.300781 35.371094 23.300781 36.863281 23.304688 38.355469 C 23.308594 38.457031 23.371094 38.558594 23.457031 38.714844 M 32.097656 34.277344 C 31.75 33.855469 31.289062 33.632812 30.753906 33.542969 C 29.367188 33.3125 28.226562 34 28.101562 35.207031 C 28.035156 35.835938 28.042969 36.484375 28.09375 37.121094 C 28.152344 37.875 28.546875 38.492188 29.289062 38.675781 C 29.859375 38.816406 30.503906 38.839844 31.082031 38.734375 C 31.957031 38.570312 32.453125 37.855469 32.480469 36.964844 C 32.492188 36.515625 32.53125 36.058594 32.472656 35.617188 C 32.414062 35.179688 32.25 34.757812 32.097656 34.277344 M 22.214844 34.027344 C 21.164062 33.328125 20 33.710938 18.882812 33.605469 C 18.882812 35.355469 18.882812 37.035156 18.882812 38.738281 C 19.308594 38.738281 19.707031 38.738281 20.160156 38.738281 C 20.160156 38.191406 20.160156 37.664062 20.160156 37.125 C 21.132812 37.105469 22.152344 37.183594 22.570312 36.144531 C 22.847656 35.460938 22.871094 34.683594 22.214844 34.027344 Z M 22.214844 34.027344 "/>
<path style=" stroke:none;fill-rule:nonzero;fill:rgb(92.156863%,80.392157%,36.862745%);fill-opacity:1;" d="M 13.007812 31.164062 C 12.335938 31.578125 11.65625 31.984375 10.984375 32.402344 C 10.835938 32.5 10.710938 32.636719 10.5625 32.78125 C 10.183594 32.992188 9.800781 33.15625 9.4375 33.359375 C 8.972656 33.625 8.527344 33.925781 8.066406 34.199219 C 7.976562 34.253906 7.863281 34.273438 7.679688 34.335938 C 7.679688 34.097656 7.679688 33.929688 7.679688 33.761719 C 7.679688 25.925781 7.679688 18.089844 7.667969 10.253906 C 7.667969 9.929688 7.785156 9.765625 8.046875 9.609375 C 9.429688 8.785156 10.800781 7.945312 12.175781 7.109375 C 12.429688 6.953125 12.691406 6.800781 12.976562 6.675781 C 13.007812 6.738281 13.007812 6.773438 13.007812 6.808594 C 13.003906 14.808594 13.003906 22.8125 13.003906 30.886719 C 13.003906 31.03125 13.007812 31.097656 13.007812 31.164062 Z M 13.007812 31.164062 "/>
<path style=" stroke:none;fill-rule:nonzero;fill:rgb(83.529412%,69.019608%,11.372549%);fill-opacity:1;" d="M 13.046875 6.808594 C 13.007812 6.773438 13.007812 6.738281 13.007812 6.675781 C 13.371094 6.640625 13.734375 6.628906 14.097656 6.628906 C 21.496094 6.625 28.894531 6.632812 36.292969 6.621094 C 37.183594 6.621094 38.105469 7.308594 38.128906 8.257812 C 37.90625 8 37.648438 7.730469 37.488281 7.410156 C 37.207031 6.84375 36.679688 6.886719 36.195312 6.808594 C 36.125 6.796875 36.050781 6.808594 35.976562 6.808594 C 28.347656 6.808594 20.71875 6.808594 13.046875 6.808594 Z M 13.046875 6.808594 "/>
<path style=" stroke:none;fill-rule:nonzero;fill:rgb(83.529412%,69.019608%,11.372549%);fill-opacity:1;" d="M 38.140625 11.917969 C 38.039062 12 37.953125 12.039062 37.832031 12.097656 C 37.820312 12.023438 37.785156 11.917969 37.808594 11.902344 C 38.140625 11.691406 38.046875 11.363281 38.050781 11.0625 C 38.0625 10.214844 38.070312 9.367188 38.105469 8.492188 C 38.136719 9.605469 38.144531 10.742188 38.140625 11.917969 Z M 38.140625 11.917969 "/>
<path style=" stroke:none;fill-rule:nonzero;fill:rgb(99.607843%,99.607843%,99.607843%);fill-opacity:1;" d="M 28.359375 25.726562 C 28.320312 25.734375 28.28125 25.738281 28.1875 25.714844 C 27.976562 25.675781 27.816406 25.660156 27.660156 25.660156 C 26.066406 25.65625 24.476562 25.660156 22.882812 25.652344 C 22.722656 25.652344 22.53125 25.621094 22.40625 25.53125 C 22.15625 25.347656 22.1875 23.792969 22.453125 23.585938 C 22.875 23.625 23.273438 23.628906 23.671875 23.652344 C 23.949219 23.671875 24.03125 23.542969 23.996094 23.261719 C 24.054688 23.007812 24.160156 22.789062 24.164062 22.570312 C 24.175781 20.113281 24.175781 17.65625 24.164062 15.199219 C 24.164062 14.671875 23.945312 14.484375 23.421875 14.484375 C 23.203125 14.484375 22.984375 14.492188 22.765625 14.484375 C 22.433594 14.472656 22.261719 14.289062 22.257812 13.960938 C 22.25 13.554688 22.25 13.144531 22.257812 12.738281 C 22.261719 12.410156 22.441406 12.222656 22.769531 12.21875 C 24.53125 12.214844 26.289062 12.207031 28.046875 12.226562 C 28.683594 12.230469 28.882812 12.480469 28.882812 13.117188 C 28.878906 13.25 28.878906 13.378906 28.882812 13.511719 C 28.882812 14.234375 28.886719 14.25 28.210938 14.453125 C 28.042969 14.507812 27.839844 14.433594 27.65625 14.445312 C 27.535156 14.457031 27.417969 14.519531 27.269531 14.566406 C 27.171875 14.625 27.082031 14.660156 27.03125 14.722656 C 26.945312 14.820312 26.878906 14.941406 26.804688 15.050781 C 26.90625 15.09375 27.011719 15.136719 27.144531 15.191406 C 27.117188 15.492188 27.0625 15.804688 27.0625 16.117188 C 27.058594 18.429688 27.0625 20.742188 27.078125 23.050781 C 27.078125 23.140625 27.226562 23.226562 27.3125 23.339844 C 27.433594 23.367188 27.546875 23.375 27.699219 23.382812 C 27.917969 23.382812 28.097656 23.382812 28.3125 23.382812 C 28.734375 23.457031 28.949219 23.65625 28.886719 24.089844 C 28.855469 24.304688 28.867188 24.523438 28.882812 24.738281 C 28.910156 25.101562 28.9375 25.453125 28.453125 25.546875 C 28.410156 25.554688 28.390625 25.664062 28.359375 25.726562 M 26.816406 23.378906 C 26.835938 23.425781 26.851562 23.472656 26.867188 23.519531 C 26.890625 23.507812 26.914062 23.496094 26.9375 23.488281 C 26.910156 23.4375 26.882812 23.390625 26.816406 23.378906 Z M 26.816406 23.378906 "/>
<path style=" stroke:none;fill-rule:nonzero;fill:rgb(97.647059%,95.294118%,77.647059%);fill-opacity:1;" d="M 27.300781 14.558594 C 27.417969 14.519531 27.535156 14.457031 27.65625 14.445312 C 27.839844 14.433594 28.042969 14.507812 28.210938 14.453125 C 28.886719 14.25 28.882812 14.234375 28.882812 13.511719 C 28.878906 13.378906 28.878906 13.25 28.882812 13.117188 C 28.882812 12.480469 28.683594 12.230469 28.046875 12.226562 C 26.289062 12.207031 24.53125 12.214844 22.769531 12.21875 C 22.441406 12.222656 22.261719 12.410156 22.257812 12.738281 C 22.25 13.144531 22.25 13.554688 22.257812 13.960938 C 22.261719 14.289062 22.433594 14.472656 22.765625 14.484375 C 22.984375 14.492188 23.203125 14.484375 23.421875 14.484375 C 23.945312 14.484375 24.164062 14.671875 24.164062 15.199219 C 24.175781 17.65625 24.175781 20.113281 24.164062 22.570312 C 24.160156 22.789062 24.054688 23.007812 23.964844 23.277344 C 23.558594 23.347656 23.179688 23.355469 22.808594 23.394531 C 22.679688 23.40625 22.554688 23.503906 22.425781 23.558594 C 22.1875 23.792969 22.15625 25.347656 22.40625 25.53125 C 22.53125 25.621094 22.722656 25.652344 22.882812 25.652344 C 24.476562 25.660156 26.066406 25.65625 27.660156 25.660156 C 27.816406 25.660156 27.976562 25.675781 28.160156 25.707031 C 26.183594 25.730469 24.183594 25.730469 22.117188 25.730469 C 22.117188 24.957031 22.109375 24.207031 22.132812 23.460938 C 22.136719 23.390625 22.332031 23.277344 22.445312 23.269531 C 22.777344 23.246094 23.113281 23.242188 23.445312 23.269531 C 23.808594 23.296875 23.84375 23.109375 23.839844 22.820312 C 23.832031 20.972656 23.835938 19.128906 23.835938 17.28125 C 23.835938 16.496094 23.828125 15.710938 23.839844 14.925781 C 23.84375 14.664062 23.75 14.566406 23.484375 14.574219 C 23.050781 14.59375 22.613281 14.578125 22.113281 14.578125 C 22.113281 13.804688 22.101562 13.070312 22.128906 12.335938 C 22.132812 12.261719 22.378906 12.136719 22.515625 12.136719 C 23.675781 12.121094 24.839844 12.125 26.003906 12.125 C 26.875 12.125 27.746094 12.125 28.617188 12.125 C 28.761719 12.125 28.902344 12.136719 29.058594 12.144531 C 29.058594 12.957031 29.058594 13.734375 29.058594 14.605469 C 28.5 14.605469 27.9375 14.605469 27.34375 14.597656 C 27.308594 14.589844 27.300781 14.558594 27.300781 14.558594 Z M 27.300781 14.558594 "/>
<path style=" stroke:none;fill-rule:nonzero;fill:rgb(83.529412%,69.019608%,11.372549%);fill-opacity:1;" d="M 13.050781 31.167969 C 13.007812 31.097656 13.003906 31.03125 13.003906 30.929688 C 13.324219 30.953125 13.644531 31.0625 13.964844 31.0625 C 21.757812 31.070312 29.550781 31.066406 37.34375 31.066406 C 38.050781 31.066406 38.050781 31.066406 38.050781 30.371094 C 38.050781 24.597656 38.050781 18.828125 38.050781 13.054688 C 38.050781 12.882812 38.070312 12.707031 38.105469 12.511719 C 38.136719 16.410156 38.140625 20.335938 38.140625 24.257812 C 38.140625 26.398438 38.140625 28.535156 38.140625 30.671875 C 38.140625 30.8125 38.140625 30.957031 38.140625 31.167969 C 29.765625 31.167969 21.429688 31.167969 13.050781 31.167969 Z M 13.050781 31.167969 "/>
<path style=" stroke:none;fill-rule:nonzero;fill:rgb(97.647059%,94.117647%,83.137255%);fill-opacity:1;" d="M 27.269531 14.566406 C 27.300781 14.558594 27.308594 14.589844 27.308594 14.609375 C 27.316406 17.476562 27.320312 20.328125 27.320312 23.226562 C 27.316406 23.273438 27.304688 23.316406 27.304688 23.316406 C 27.226562 23.226562 27.078125 23.140625 27.078125 23.050781 C 27.0625 20.742188 27.058594 18.429688 27.0625 16.117188 C 27.0625 15.804688 27.117188 15.492188 27.144531 15.191406 C 27.011719 15.136719 26.90625 15.09375 26.804688 15.050781 C 26.878906 14.941406 26.945312 14.820312 27.03125 14.722656 C 27.082031 14.660156 27.171875 14.625 27.269531 14.566406 Z M 27.269531 14.566406 "/>
<path style=" stroke:none;fill-rule:nonzero;fill:rgb(97.647059%,95.294118%,77.647059%);fill-opacity:1;" d="M 28.398438 25.738281 C 28.390625 25.664062 28.410156 25.554688 28.453125 25.546875 C 28.9375 25.453125 28.910156 25.101562 28.882812 24.738281 C 28.867188 24.523438 28.855469 24.304688 28.886719 24.089844 C 28.949219 23.65625 28.734375 23.457031 28.308594 23.363281 C 28.277344 23.34375 28.277344 23.300781 28.277344 23.300781 C 28.535156 23.300781 28.792969 23.300781 29.0625 23.300781 C 29.0625 24.117188 29.0625 24.898438 29.0625 25.746094 C 28.855469 25.746094 28.644531 25.746094 28.398438 25.738281 Z M 28.398438 25.738281 "/>
<path style=" stroke:none;fill-rule:nonzero;fill:rgb(97.647059%,94.117647%,83.137255%);fill-opacity:1;" d="M 28.246094 23.292969 C 28.277344 23.300781 28.277344 23.34375 28.277344 23.363281 C 28.097656 23.382812 27.917969 23.382812 27.695312 23.371094 C 27.613281 23.335938 27.578125 23.316406 27.542969 23.296875 C 27.769531 23.292969 27.992188 23.285156 28.246094 23.292969 Z M 28.246094 23.292969 "/>
<path style=" stroke:none;fill-rule:nonzero;fill:rgb(97.647059%,95.294118%,77.647059%);fill-opacity:1;" d="M 27.488281 23.28125 C 27.578125 23.316406 27.613281 23.335938 27.65625 23.367188 C 27.546875 23.375 27.433594 23.367188 27.3125 23.339844 C 27.304688 23.316406 27.316406 23.273438 27.320312 23.265625 C 27.359375 23.261719 27.398438 23.265625 27.488281 23.28125 Z M 27.488281 23.28125 "/>
<path style=" stroke:none;fill-rule:nonzero;fill:rgb(98.039216%,97.647059%,94.509804%);fill-opacity:1;" d="M 23.445312 33.613281 C 24.097656 33.613281 24.753906 33.601562 25.40625 33.613281 C 25.652344 33.617188 25.902344 33.640625 26.136719 33.707031 C 26.683594 33.859375 27.140625 34.148438 27.234375 34.757812 C 27.335938 35.417969 27.347656 36.078125 26.671875 36.5 C 26.613281 36.535156 26.5625 36.589844 26.476562 36.667969 C 26.804688 37.113281 26.832031 37.734375 27.425781 38.015625 C 27.523438 38.0625 27.515625 38.414062 27.492188 38.617188 C 27.480469 38.707031 27.304688 38.824219 27.191406 38.839844 C 26.671875 38.921875 26.242188 38.773438 25.984375 38.277344 C 25.816406 37.953125 25.632812 37.640625 25.496094 37.304688 C 25.355469 36.957031 25.136719 36.839844 24.738281 36.953125 C 24.738281 37.523438 24.738281 38.113281 24.738281 38.773438 C 24.277344 38.753906 23.867188 38.734375 23.441406 38.648438 C 23.433594 36.925781 23.4375 35.269531 23.445312 33.613281 M 24.71875 35.9375 C 24.980469 36.121094 25.546875 36.113281 25.777344 35.921875 C 26 35.734375 26.078125 35.132812 25.921875 34.820312 C 25.769531 34.515625 25.371094 34.417969 24.726562 34.546875 C 24.726562 34.664062 24.726562 34.789062 24.71875 34.992188 C 24.722656 35.28125 24.726562 35.574219 24.71875 35.9375 Z M 24.71875 35.9375 "/>
<path style=" stroke:none;fill-rule:nonzero;fill:rgb(98.431373%,98.039216%,94.901961%);fill-opacity:1;" d="M 32.117188 34.304688 C 32.25 34.757812 32.414062 35.179688 32.472656 35.617188 C 32.53125 36.058594 32.492188 36.515625 32.480469 36.964844 C 32.453125 37.855469 31.957031 38.570312 31.082031 38.734375 C 30.503906 38.839844 29.859375 38.816406 29.289062 38.675781 C 28.546875 38.492188 28.152344 37.875 28.09375 37.121094 C 28.042969 36.484375 28.035156 35.835938 28.101562 35.207031 C 28.226562 34 29.367188 33.3125 30.753906 33.542969 C 31.289062 33.632812 31.75 33.855469 32.117188 34.304688 M 30.316406 37.945312 C 30.878906 37.832031 31.132812 37.625 31.160156 37.113281 C 31.191406 36.480469 31.1875 35.839844 31.148438 35.203125 C 31.113281 34.722656 30.769531 34.453125 30.296875 34.441406 C 29.800781 34.433594 29.464844 34.648438 29.414062 35.148438 C 29.347656 35.777344 29.335938 36.421875 29.371094 37.054688 C 29.410156 37.644531 29.644531 37.835938 30.316406 37.945312 Z M 30.316406 37.945312 "/>
<path style=" stroke:none;fill-rule:nonzero;fill:rgb(98.431373%,98.039216%,94.901961%);fill-opacity:1;" d="M 22.238281 34.050781 C 22.871094 34.683594 22.847656 35.460938 22.570312 36.144531 C 22.152344 37.183594 21.132812 37.105469 20.160156 37.125 C 20.160156 37.664062 20.160156 38.191406 20.160156 38.738281 C 19.707031 38.738281 19.308594 38.738281 18.882812 38.738281 C 18.882812 37.035156 18.882812 35.355469 18.882812 33.605469 C 20 33.710938 21.164062 33.328125 22.238281 34.050781 M 20.171875 36.132812 C 20.578125 36.277344 21.042969 36.292969 21.253906 35.917969 C 21.414062 35.636719 21.429688 35.15625 21.304688 34.851562 C 21.105469 34.371094 20.597656 34.5625 20.15625 34.550781 C 20.15625 35.074219 20.15625 35.5625 20.171875 36.132812 Z M 20.171875 36.132812 "/>
<path style=" stroke:none;fill-rule:nonzero;fill:rgb(38.039216%,32.54902%,6.27451%);fill-opacity:1;" d="M 23.410156 33.625 C 23.4375 35.269531 23.433594 36.925781 23.417969 38.625 C 23.371094 38.558594 23.308594 38.457031 23.304688 38.355469 C 23.300781 36.863281 23.300781 35.371094 23.304688 33.878906 C 23.304688 33.800781 23.347656 33.71875 23.410156 33.625 Z M 23.410156 33.625 "/>
<path style=" stroke:none;fill-rule:nonzero;fill:rgb(98.431373%,99.607843%,95.686275%);fill-opacity:1;" d="M 22.453125 23.585938 C 22.554688 23.503906 22.679688 23.40625 22.808594 23.394531 C 23.179688 23.355469 23.558594 23.347656 23.964844 23.3125 C 24.03125 23.542969 23.949219 23.671875 23.671875 23.652344 C 23.273438 23.628906 22.875 23.625 22.453125 23.585938 Z M 22.453125 23.585938 "/>
<path style=" stroke:none;fill-rule:nonzero;fill:rgb(97.647059%,94.117647%,83.137255%);fill-opacity:1;" d="M 26.835938 23.359375 C 26.882812 23.390625 26.910156 23.4375 26.9375 23.488281 C 26.914062 23.496094 26.890625 23.507812 26.867188 23.519531 C 26.851562 23.472656 26.835938 23.425781 26.835938 23.359375 Z M 26.835938 23.359375 "/>
<path style=" stroke:none;fill-rule:nonzero;fill:rgb(42.745098%,34.509804%,1.568627%);fill-opacity:1;" d="M 24.730469 35.863281 C 24.726562 35.574219 24.722656 35.28125 24.75 34.949219 C 24.84375 34.859375 24.90625 34.824219 24.960938 34.773438 C 25.292969 34.460938 25.570312 34.714844 25.707031 34.949219 C 25.820312 35.144531 25.832031 35.632812 25.742188 35.675781 C 25.441406 35.816406 25.074219 35.8125 24.730469 35.863281 Z M 24.730469 35.863281 "/>
<path style=" stroke:none;fill-rule:nonzero;fill:rgb(45.098039%,40.392157%,19.215686%);fill-opacity:1;" d="M 24.726562 35.898438 C 25.074219 35.8125 25.441406 35.816406 25.742188 35.675781 C 25.832031 35.632812 25.820312 35.144531 25.707031 34.949219 C 25.570312 34.714844 25.292969 34.460938 24.960938 34.773438 C 24.90625 34.824219 24.84375 34.859375 24.757812 34.910156 C 24.726562 34.789062 24.726562 34.664062 24.726562 34.546875 C 25.371094 34.417969 25.769531 34.515625 25.921875 34.820312 C 26.078125 35.132812 26 35.734375 25.777344 35.921875 C 25.546875 36.113281 24.980469 36.121094 24.726562 35.898438 Z M 24.726562 35.898438 "/>
<path style=" stroke:none;fill-rule:nonzero;fill:rgb(43.921569%,36.078431%,4.705882%);fill-opacity:1;" d="M 30.28125 37.945312 C 29.644531 37.835938 29.410156 37.644531 29.371094 37.054688 C 29.335938 36.421875 29.347656 35.777344 29.414062 35.148438 C 29.464844 34.648438 29.800781 34.433594 30.296875 34.441406 C 30.769531 34.453125 31.113281 34.722656 31.148438 35.203125 C 31.1875 35.839844 31.191406 36.480469 31.160156 37.113281 C 31.132812 37.625 30.878906 37.832031 30.28125 37.945312 Z M 30.28125 37.945312 "/>
<path style=" stroke:none;fill-rule:nonzero;fill:rgb(42.745098%,35.686275%,5.882353%);fill-opacity:1;" d="M 20.164062 36.09375 C 20.15625 35.5625 20.15625 35.074219 20.15625 34.550781 C 20.597656 34.5625 21.105469 34.371094 21.304688 34.851562 C 21.429688 35.15625 21.414062 35.636719 21.253906 35.917969 C 21.042969 36.292969 20.578125 36.277344 20.164062 36.09375 Z M 20.164062 36.09375 "/>
</g>
</svg>
