<?xml version="1.0" encoding="UTF-8"?>
<svg xmlns="http://www.w3.org/2000/svg" xmlns:xlink="http://www.w3.org/1999/xlink" width="48px" height="48px" viewBox="0 0 48 48" version="1.1">
<g id="surface1">
<path style=" stroke:none;fill-rule:nonzero;fill:rgb(96.470588%,63.529412%,67.843137%);fill-opacity:1;" d="M 19.539062 11.75 C 15.53125 12.804688 13.398438 18.976562 16.382812 22.144531 L 16.421875 22.40625 C 16.511719 23.144531 16.683594 23.867188 16.816406 24.601562 C 17.105469 26.050781 17.382812 27.5 17.683594 28.945312 C 18.09375 30.800781 18.488281 32.65625 19.144531 34.445312 C 19.328125 34.945312 19.539062 35.445312 19.867188 35.867188 C 20.050781 36.078125 20.277344 36.3125 20.59375 36.246094 C 25.519531 32.503906 23.992188 29.585938 23.863281 26.175781 L 24.203125 26.265625 L 23.761719 24.171875 C 23.480469 22.609375 23.175781 21.050781 22.855469 19.5 C 22.460938 17.65625 22.066406 15.816406 21.488281 14.023438 C 21.316406 13.550781 21.132812 13.078125 20.894531 12.644531 C 20.726562 12.261719 20.40625 11.945312 20.039062 11.75 Z M 34.605469 11.75 C 30.40625 13.171875 28.082031 17.117188 31.449219 22.210938 L 31.488281 22.429688 C 31.496094 22.445312 31.5 22.457031 31.5 22.472656 L 31.550781 22.742188 C 32.175781 26.113281 32.761719 29.480469 33.660156 32.789062 C 33.949219 33.710938 34.195312 34.644531 34.683594 35.484375 C 34.921875 35.828125 35.199219 36.289062 35.683594 36.234375 C 40.257812 36.246094 40.464844 30.859375 39.222656 26.414062 L 39.089844 25.433594 C 39.050781 25.195312 39.007812 24.957031 38.960938 24.722656 C 38.589844 22.671875 38.199219 20.605469 37.765625 18.5625 C 37.433594 17.050781 37.078125 15.523438 36.589844 14.050781 C 36.394531 13.511719 36.199219 12.945312 35.882812 12.445312 C 35.683594 12.167969 35.472656 11.90625 35.171875 11.75 Z M 0.460938 24.894531 C 0.300781 24.894531 0.144531 24.921875 0 24.933594 C 0.40625 25.023438 0.789062 25.25 1.128906 25.5 C 1.578125 25.894531 1.921875 26.394531 2.195312 26.917969 C 2.660156 27.789062 2.960938 28.722656 3.210938 29.671875 C 3.695312 31.5625 3.789062 33.5625 4.578125 35.367188 C 4.734375 35.644531 4.894531 35.945312 5.171875 36.117188 C 5.25 36.167969 5.328125 36.238281 5.421875 36.222656 C 15.046875 35.945312 11.445312 29.214844 8.601562 25.835938 L 8.523438 25.75 C 8.277344 25.433594 7.945312 25.167969 7.578125 25.023438 C 7.3125 24.90625 7.039062 24.933594 6.777344 24.894531 Z M 0.460938 24.894531 "/>
<path style=" stroke:none;fill-rule:nonzero;fill:rgb(92.156863%,43.921569%,46.666667%);fill-opacity:1;" d="M 12.777344 11.730469 C 12.710938 11.730469 12.644531 11.734375 12.578125 11.75 C 12.25 11.894531 12.027344 12.183594 11.855469 12.472656 C 11.554688 13 11.34375 13.578125 11.15625 14.140625 C 10.777344 15.328125 10.488281 16.550781 10.199219 17.761719 C 9.84375 19.316406 9.527344 20.890625 9.222656 22.457031 C 9.039062 23.523438 8.800781 24.589844 8.644531 25.65625 C 8.511719 26.617188 8.289062 27.5625 8.089844 28.523438 C 7.777344 29.972656 7.460938 31.433594 7.050781 32.867188 C 6.789062 33.761719 6.511719 34.65625 6.078125 35.484375 C 5.917969 35.773438 5.699219 36.027344 5.433594 36.222656 C 5.828125 36.261719 6.210938 36.222656 6.605469 36.234375 L 12.394531 36.234375 C 12.539062 36.246094 12.644531 36.144531 12.738281 36.050781 C 13.15625 35.671875 13.367188 35.117188 13.59375 34.605469 C 14.066406 33.355469 14.382812 32.0625 14.683594 30.773438 C 15.328125 27.972656 15.84375 25.15625 16.339844 22.328125 C 16.5 21.472656 16.671875 20.605469 16.855469 19.738281 C 17.261719 17.828125 17.671875 15.917969 18.261719 14.0625 C 18.472656 13.460938 18.695312 12.839844 19.039062 12.285156 C 19.160156 12.0625 19.339844 11.894531 19.539062 11.734375 L 12.972656 11.734375 C 12.90625 11.734375 12.84375 11.730469 12.777344 11.730469 Z M 31.164062 11.746094 C 30.011719 11.742188 28.863281 11.742188 27.710938 11.75 C 27.25 11.90625 27 12.351562 26.789062 12.75 C 26.25 13.867188 25.945312 15.089844 25.671875 16.300781 C 25 19.078125 24.472656 21.878906 23.972656 24.695312 C 23.554688 26.878906 23.144531 29.0625 22.617188 31.222656 C 22.328125 32.382812 22.039062 33.550781 21.605469 34.667969 C 21.367188 35.234375 21.132812 35.855469 20.644531 36.246094 C 20.761719 36.261719 20.894531 36.261719 21.011719 36.261719 C 23.210938 36.261719 25.410156 36.277344 27.605469 36.261719 C 27.933594 36.101562 28.144531 35.761719 28.328125 35.445312 C 28.695312 34.75 28.933594 34 29.15625 33.261719 C 29.511719 32.0625 29.789062 30.839844 30.054688 29.628906 C 30.5625 27.214844 31.027344 24.789062 31.449219 22.355469 C 31.894531 19.878906 32.382812 17.417969 33.066406 15.011719 C 33.328125 14.128906 33.59375 13.25 34.039062 12.445312 C 34.183594 12.183594 34.40625 11.957031 34.617188 11.75 C 33.46875 11.75 32.316406 11.746094 31.164062 11.746094 Z M 47.007812 24.890625 C 46.675781 24.894531 46.34375 24.898438 46.015625 24.894531 L 41.265625 24.894531 C 40.710938 24.867188 40.171875 25.132812 39.800781 25.539062 C 39.578125 25.75 39.460938 26.050781 39.289062 26.289062 C 39.078125 26.578125 39 26.933594 38.882812 27.261719 C 38.511719 28.433594 38.277344 29.65625 38.078125 30.867188 C 37.921875 31.820312 37.699219 32.761719 37.410156 33.683594 C 37.199219 34.367188 36.921875 35.039062 36.488281 35.605469 C 36.277344 35.878906 36 36.078125 35.683594 36.222656 C 35.816406 36.246094 35.960938 36.246094 36.105469 36.246094 C 38.277344 36.234375 40.445312 36.261719 42.632812 36.234375 C 43.328125 35.683594 43.738281 34.855469 44 34.027344 C 44.394531 32.839844 44.394531 31.578125 44.578125 30.367188 C 44.761719 29.132812 44.988281 27.867188 45.617188 26.761719 C 46.023438 26.074219 46.628906 25.527344 47.355469 25.195312 C 47.566406 25.089844 47.804688 25.039062 48 24.90625 C 47.671875 24.886719 47.339844 24.886719 47.007812 24.890625 Z M 47.007812 24.890625 "/>
</g>
</svg>
