<?xml version="1.0" encoding="UTF-8"?>
<svg xmlns="http://www.w3.org/2000/svg" xmlns:xlink="http://www.w3.org/1999/xlink" width="197px" height="40px" viewBox="0 0 197 40" version="1.1">
<g id="surface1">
<path style=" stroke:none;fill-rule:nonzero;fill:rgb(0%,0%,0%);fill-opacity:1;" d="M 130.960938 0.015625 L 165.273438 0.015625 L 165.273438 6.351562 L 151.660156 6.351562 L 151.660156 39.667969 L 144.855469 39.667969 L 144.855469 6.351562 L 130.960938 6.351562 Z M 130.960938 0.015625 "/>
<path style=" stroke:none;fill-rule:nonzero;fill:rgb(0%,0%,0%);fill-opacity:1;" d="M 74.527344 0.015625 L 74.527344 6.351562 L 47.019531 6.351562 L 47.019531 16.539062 L 69.140625 16.539062 L 69.140625 22.871094 L 47.019531 22.871094 L 47.019531 33.335938 L 74.527344 33.335938 L 74.527344 39.667969 L 40.214844 39.667969 L 40.214844 6.351562 L 40.210938 6.351562 L 40.210938 0.015625 Z M 74.527344 0.015625 "/>
<path style=" stroke:none;fill-rule:nonzero;fill:rgb(0%,0%,0%);fill-opacity:1;" d="M 91.660156 0.03125 L 82.753906 0.03125 L 114.65625 39.6875 L 123.589844 39.6875 L 107.636719 19.875 L 123.5625 0.0625 L 114.65625 0.078125 L 103.175781 14.335938 Z M 91.660156 0.03125 "/>
<path style=" stroke:none;fill-rule:nonzero;fill:rgb(0%,0%,0%);fill-opacity:1;" d="M 100.800781 28.355469 L 96.339844 22.8125 L 82.726562 39.714844 L 91.660156 39.714844 Z M 100.800781 28.355469 "/>
<path style=" stroke:none;fill-rule:evenodd;fill:rgb(0%,0%,0%);fill-opacity:1;" d="M 40.453125 39.667969 L 8.507812 0 L 0 0 L 0 39.652344 L 6.804688 39.652344 L 6.804688 8.476562 L 31.902344 39.667969 Z M 40.453125 39.667969 "/>
<path style=" stroke:none;fill-rule:nonzero;fill:rgb(0%,0%,0%);fill-opacity:1;" d="M 166.804688 39.425781 C 166.304688 39.425781 165.882812 39.253906 165.527344 38.910156 C 165.171875 38.5625 164.996094 38.144531 165 37.652344 C 164.996094 37.167969 165.171875 36.753906 165.527344 36.410156 C 165.882812 36.066406 166.304688 35.890625 166.804688 35.890625 C 167.28125 35.890625 167.703125 36.066406 168.058594 36.410156 C 168.417969 36.753906 168.597656 37.167969 168.601562 37.652344 C 168.597656 37.976562 168.515625 38.277344 168.347656 38.546875 C 168.175781 38.820312 167.960938 39.03125 167.6875 39.1875 C 167.421875 39.34375 167.125 39.425781 166.804688 39.425781 Z M 166.804688 39.425781 "/>
<path style=" stroke:none;fill-rule:nonzero;fill:rgb(0%,0%,0%);fill-opacity:1;" d="M 178.421875 22.722656 L 181.4375 22.722656 L 181.4375 34.34375 C 181.429688 35.410156 181.199219 36.324219 180.75 37.089844 C 180.292969 37.859375 179.660156 38.445312 178.847656 38.859375 C 178.042969 39.269531 177.097656 39.476562 176.023438 39.476562 C 175.039062 39.476562 174.160156 39.300781 173.375 38.953125 C 172.589844 38.609375 171.96875 38.089844 171.511719 37.410156 C 171.050781 36.726562 170.824219 35.878906 170.824219 34.859375 L 173.84375 34.859375 C 173.851562 35.304688 173.953125 35.691406 174.144531 36.015625 C 174.339844 36.335938 174.605469 36.582031 174.949219 36.753906 C 175.292969 36.929688 175.691406 37.015625 176.136719 37.015625 C 176.621094 37.015625 177.035156 36.914062 177.371094 36.710938 C 177.710938 36.511719 177.96875 36.210938 178.148438 35.808594 C 178.324219 35.414062 178.414062 34.925781 178.421875 34.34375 Z M 178.421875 22.722656 "/>
<path style=" stroke:none;fill-rule:nonzero;fill:rgb(0%,0%,0%);fill-opacity:1;" d="M 193.84375 27.265625 C 193.773438 26.5625 193.449219 26.011719 192.886719 25.621094 C 192.320312 25.226562 191.585938 25.03125 190.6875 25.03125 C 190.054688 25.03125 189.511719 25.125 189.058594 25.3125 C 188.605469 25.503906 188.257812 25.757812 188.015625 26.082031 C 187.777344 26.402344 187.65625 26.773438 187.648438 27.183594 C 187.648438 27.53125 187.730469 27.832031 187.890625 28.082031 C 188.054688 28.335938 188.269531 28.546875 188.550781 28.722656 C 188.828125 28.898438 189.136719 29.042969 189.472656 29.160156 C 189.816406 29.28125 190.15625 29.378906 190.496094 29.460938 L 192.070312 29.847656 C 192.703125 29.992188 193.316406 30.1875 193.902344 30.4375 C 194.488281 30.683594 195.015625 30.996094 195.484375 31.375 C 195.949219 31.753906 196.316406 32.207031 196.589844 32.738281 C 196.863281 33.269531 197 33.890625 197 34.609375 C 197 35.578125 196.75 36.429688 196.246094 37.164062 C 195.746094 37.894531 195.023438 38.46875 194.070312 38.882812 C 193.125 39.289062 191.984375 39.5 190.636719 39.5 C 189.335938 39.5 188.199219 39.300781 187.246094 38.898438 C 186.289062 38.503906 185.539062 37.921875 185 37.160156 C 184.460938 36.394531 184.171875 35.464844 184.128906 34.371094 L 187.117188 34.371094 C 187.160156 34.941406 187.34375 35.417969 187.65625 35.804688 C 187.976562 36.1875 188.390625 36.46875 188.898438 36.660156 C 189.410156 36.847656 189.980469 36.941406 190.613281 36.941406 C 191.273438 36.941406 191.851562 36.839844 192.355469 36.644531 C 192.855469 36.449219 193.246094 36.179688 193.527344 35.824219 C 193.8125 35.472656 193.957031 35.058594 193.960938 34.585938 C 193.957031 34.15625 193.828125 33.796875 193.578125 33.515625 C 193.324219 33.234375 192.972656 32.996094 192.527344 32.804688 C 192.074219 32.617188 191.550781 32.441406 190.949219 32.292969 L 189.039062 31.8125 C 187.660156 31.460938 186.570312 30.929688 185.769531 30.214844 C 184.96875 29.503906 184.570312 28.558594 184.570312 27.371094 C 184.570312 26.398438 184.839844 25.542969 185.378906 24.8125 C 185.914062 24.082031 186.648438 23.511719 187.574219 23.109375 C 188.503906 22.699219 189.558594 22.5 190.726562 22.5 C 191.917969 22.5 192.960938 22.699219 193.859375 23.109375 C 194.757812 23.511719 195.464844 24.078125 195.976562 24.792969 C 196.488281 25.511719 196.753906 26.335938 196.769531 27.265625 Z M 193.84375 27.265625 "/>
</g>
</svg>
