<?xml version="1.0" encoding="UTF-8"?>
<svg xmlns="http://www.w3.org/2000/svg" xmlns:xlink="http://www.w3.org/1999/xlink" width="48px" height="48px" viewBox="0 0 48 48" version="1.1">
<defs>
<radialGradient id="radial0" gradientUnits="userSpaceOnUse" cx="182.9837" cy="395.04871" fx="182.9837" fy="395.04871" r="148.95309" gradientTransform="matrix(0.328488,-0.356975,1.095744,1.190768,-477.956978,-363.694807)">
<stop offset="0" style="stop-color:rgb(0%,54.901961%,74.509804%);stop-opacity:1;"/>
<stop offset="1" style="stop-color:rgb(69.803922%,100%,100%);stop-opacity:1;"/>
</radialGradient>
</defs>
<g id="surface1">
<path style=" stroke:none;fill-rule:nonzero;fill:url(#radial0);" d="M 8.425781 4.992188 C 0.976562 13.085938 2.78125 28.167969 12.457031 38.683594 C 22.128906 49.195312 36.007812 51.152344 43.457031 43.058594 C 50.90625 34.964844 49.105469 19.878906 39.429688 9.367188 C 29.757812 -1.144531 15.875 -3.105469 8.425781 4.992188 Z M 15.179688 8.351562 C 21.03125 1.992188 31.792969 3.375 39.21875 11.445312 C 46.640625 19.511719 47.914062 31.207031 42.0625 37.566406 C 36.207031 43.925781 25.445312 42.542969 18.019531 34.476562 C 10.597656 26.410156 9.328125 14.714844 15.179688 8.351562 Z M 15.179688 8.351562 "/>
<path style="fill-rule:nonzero;fill:rgb(100%,49.803922%,16.470588%);fill-opacity:1;stroke-width:0.744038;stroke-linecap:butt;stroke-linejoin:miter;stroke:rgb(83.137255%,33.333333%,0%);stroke-opacity:1;stroke-miterlimit:4;" d="M 86.152082 99.492561 L 88.961431 99.492561 C 89.386512 99.492561 89.732572 99.83862 89.732572 100.263701 L 89.732572 103.073051 C 89.732572 103.498132 89.386512 103.844192 88.961431 103.844192 L 86.152082 103.844192 C 85.727 103.844192 85.380941 103.498132 85.380941 103.073051 L 85.380941 100.263701 C 85.380941 99.83862 85.727 99.492561 86.152082 99.492561 Z M 86.152082 99.492561 " transform="matrix(1.43355,0,0,1.43355,-86.80801,-134.764286)"/>
<path style="fill-rule:nonzero;fill:rgb(100%,49.803922%,16.470588%);fill-opacity:1;stroke-width:0.744038;stroke-linecap:butt;stroke-linejoin:miter;stroke:rgb(83.137255%,33.333333%,0%);stroke-opacity:1;stroke-miterlimit:4;" d="M 62.739924 105.225705 L 69.358654 105.225705 C 70.36141 105.225705 71.170699 106.034994 71.170699 107.03775 L 71.170699 113.65648 C 71.170699 114.659235 70.36141 115.471249 69.358654 115.471249 L 62.739924 115.471249 C 61.737169 115.471249 60.92788 114.659235 60.92788 113.65648 L 60.92788 107.03775 C 60.92788 106.034994 61.737169 105.225705 62.739924 105.225705 Z M 62.739924 105.225705 " transform="matrix(1.43355,0,0,1.43355,-86.80801,-134.764286)"/>
<path style="fill-rule:nonzero;fill:rgb(100%,49.803922%,16.470588%);fill-opacity:1;stroke-width:0.744038;stroke-linecap:butt;stroke-linejoin:miter;stroke:rgb(83.137255%,33.333333%,0%);stroke-opacity:1;stroke-miterlimit:4;" d="M 88.500927 118.637558 L 92.498324 118.637558 C 93.103247 118.637558 93.593725 119.128036 93.593725 119.732959 L 93.593725 123.730356 C 93.593725 124.335279 93.103247 124.825757 92.498324 124.825757 L 88.500927 124.825757 C 87.896004 124.825757 87.405526 124.335279 87.405526 123.730356 L 87.405526 119.732959 C 87.405526 119.128036 87.896004 118.637558 88.500927 118.637558 Z M 88.500927 118.637558 " transform="matrix(1.43355,0,0,1.43355,-86.80801,-134.764286)"/>
</g>
</svg>
