<?xml version="1.0" encoding="UTF-8"?>
<svg xmlns="http://www.w3.org/2000/svg" xmlns:xlink="http://www.w3.org/1999/xlink" width="46px" height="50px" viewBox="0 0 46 49" version="1.1">
<defs>
<linearGradient id="linear0" gradientUnits="userSpaceOnUse" x1="0" y1="0" x2="1" y2="0" gradientTransform="matrix(45.875569,0,0,45.198492,0.0454895,17.858029)">
<stop offset="0" style="stop-color:rgb(32.941176%,76.862745%,77.647059%);stop-opacity:1;"/>
<stop offset="1" style="stop-color:rgb(7.058824%,72.941176%,83.529412%);stop-opacity:1;"/>
</linearGradient>
</defs>
<g id="surface1">
<path style=" stroke:none;fill-rule:nonzero;fill:url(#linear0);" d="M 45.699219 10.792969 C 45.585938 10.105469 45.417969 9.390625 45.203125 8.644531 C 44.695312 6.867188 43.578125 5.359375 42.058594 4.125 C 41.660156 3.796875 41.230469 3.488281 40.773438 3.203125 C 39.019531 2.101562 36.902344 1.296875 34.640625 0.816406 C 33.125 0.492188 31.542969 0.320312 29.960938 0.296875 C 18.488281 0.0429688 11.347656 0.421875 0.046875 0 C 0.0507812 0.0078125 0.0507812 0.015625 0.0507812 0.0234375 C 0.570312 0.433594 1.097656 0.828125 1.636719 1.210938 C 2.820312 2.054688 4.050781 2.824219 5.328125 3.535156 C 7.707031 4.851562 10.242188 5.929688 12.894531 6.730469 C 13.210938 6.828125 13.527344 6.921875 13.84375 7.007812 C 15.699219 7.203125 17.363281 7.398438 18.695312 8.007812 C 19.03125 8.15625 19.34375 8.335938 19.632812 8.542969 C 20.582031 9.230469 21.636719 10.539062 22.332031 11.457031 C 23.820312 13.414062 23.507812 15.023438 25.269531 15.988281 C 25.457031 16.085938 25.664062 16.183594 25.894531 16.269531 C 26.457031 16.476562 27.257812 16.753906 27.625 15.972656 C 27.679688 15.859375 27.71875 15.722656 27.753906 15.558594 C 27.605469 15.09375 27.097656 14.6875 26.792969 14.488281 C 26.25 14.136719 26.035156 13.925781 25.644531 13.527344 C 24.921875 12.796875 24.871094 11.554688 24.363281 10.6875 C 25.003906 10.421875 28.382812 9.976562 29.089844 10.074219 C 30.605469 10.140625 31.800781 10.253906 32.710938 11.179688 C 33.070312 11.457031 33.265625 11.699219 33.589844 11.941406 C 33.613281 11.957031 33.632812 11.976562 33.65625 11.992188 C 35.089844 13.019531 36.417969 13.386719 37.59375 13.742188 C 37.902344 13.832031 38.195312 13.921875 38.484375 14.027344 C 38.921875 14.183594 39.335938 14.367188 39.726562 14.617188 C 40.183594 14.917969 40.964844 15.703125 41 16.382812 C 39.84375 16.019531 40.605469 16.480469 38.898438 16.351562 C 38.066406 16.257812 37.214844 16.203125 36.359375 16.144531 C 35.03125 16.050781 33.699219 15.953125 32.453125 15.71875 C 32.246094 15.683594 32.039062 15.636719 31.835938 15.589844 C 31.675781 15.554688 31.523438 15.515625 31.371094 15.472656 C 31.367188 15.539062 31.363281 15.597656 31.363281 15.652344 C 31.328125 16.9375 32.25 17.578125 30.148438 20.023438 C 30.128906 20.046875 30.101562 20.074219 30.078125 20.105469 C 29.519531 20.746094 26.621094 21.96875 25.714844 22.203125 C 21.863281 22.964844 18.929688 20.492188 14.289062 21.738281 C 12.65625 22.335938 11.460938 24.941406 10.710938 26.890625 C 9.710938 29.480469 8.921875 32.625 8.015625 35.714844 C 9.78125 35.457031 11.5 35.085938 13.175781 34.597656 C 16.871094 33.53125 20.339844 31.929688 23.492188 29.886719 C 23.792969 29.484375 24.125 29.140625 24.484375 28.875 C 24.578125 28.804688 24.675781 28.734375 24.773438 28.675781 C 24.84375 28.632812 25.089844 28.582031 25.476562 28.511719 C 29.074219 27.886719 44.84375 25.78125 45.867188 14.5 C 45.972656 13.363281 45.925781 12.125 45.699219 10.792969 Z M 10.300781 16.855469 C 8.1875 16.226562 7.648438 16.125 6.308594 15.097656 C 6.332031 15.207031 6.363281 15.324219 6.410156 15.453125 C 9.976562 17.429688 13.894531 18.863281 18.042969 19.640625 C 16.753906 16.6875 15.226562 17.210938 10.300781 16.855469 Z M 20.070312 15.519531 C 19.152344 13.320312 16.65625 12.070312 14.503906 11.453125 C 11.617188 10.4375 9.519531 11.414062 3.429688 8.582031 C 3.476562 8.65625 3.523438 8.734375 3.570312 8.804688 C 4.753906 9.648438 5.988281 10.425781 7.265625 11.128906 C 9.644531 12.449219 12.179688 13.527344 14.832031 14.328125 C 16.210938 14.488281 17.539062 14.714844 18.757812 15.292969 C 19.300781 15.546875 19.820312 15.867188 20.316406 16.285156 C 20.253906 16.015625 20.171875 15.761719 20.070312 15.519531 Z M 20.070312 15.519531 "/>
<path style=" stroke:none;fill-rule:evenodd;fill:rgb(56.470588%,83.137255%,81.960784%);fill-opacity:1;" d="M 13.84375 7.007812 C 13.527344 6.921875 13.210938 6.828125 12.894531 6.730469 C 10.242188 5.929688 7.707031 4.851562 5.328125 3.535156 C 4.050781 2.824219 2.820312 2.054688 1.636719 1.210938 C 1.097656 0.828125 0.570312 0.433594 0.0507812 0.0234375 C 0.761719 2.175781 3.902344 4.449219 6.035156 5.34375 C 8.757812 6.480469 11.460938 6.746094 13.84375 7.007812 Z M 13.84375 7.007812 "/>
<path style=" stroke:none;fill-rule:evenodd;fill:rgb(56.470588%,83.137255%,81.960784%);fill-opacity:1;" d="M 7.265625 11.128906 C 5.988281 10.425781 4.753906 9.648438 3.570312 8.804688 C 6.882812 13.96875 11.046875 13.890625 14.832031 14.328125 C 12.179688 13.527344 9.644531 12.449219 7.265625 11.128906 Z M 7.265625 11.128906 "/>
<path style=" stroke:none;fill-rule:evenodd;fill:rgb(56.470588%,83.137255%,81.960784%);fill-opacity:1;" d="M 18.042969 19.640625 C 13.894531 18.863281 9.976562 17.429688 6.410156 15.453125 C 6.867188 16.746094 8.511719 18.796875 10.695312 19.253906 C 11.640625 19.589844 11.386719 19.503906 13 19.453125 C 15.363281 19.335938 16.492188 19.261719 18.167969 19.933594 C 18.125 19.832031 18.085938 19.738281 18.042969 19.640625 Z M 18.042969 19.640625 "/>
<path style=" stroke:none;fill-rule:evenodd;fill:rgb(56.470588%,83.137255%,81.960784%);fill-opacity:1;" d="M 23.492188 29.886719 C 23.464844 29.921875 23.4375 29.953125 23.414062 29.992188 C 18.828125 34.585938 13.089844 38.042969 6.664062 39.902344 C 7.160156 38.554688 7.601562 37.140625 8.015625 35.714844 C 9.78125 35.457031 11.5 35.085938 13.175781 34.597656 C 16.871094 33.53125 20.339844 31.929688 23.492188 29.886719 Z M 23.492188 29.886719 "/>
<path style=" stroke:none;fill-rule:evenodd;fill:rgb(7.843137%,62.745098%,76.862745%);fill-opacity:1;" d="M 23.414062 29.992188 C 21.410156 32.695312 20.394531 37.859375 19.222656 40.84375 C 17.519531 45.195312 15.152344 48.328125 9.96875 48.773438 C 8.667969 48.890625 0.835938 49.179688 0 48.761719 C 0.0507812 48.324219 1.355469 47.796875 1.695312 47.539062 C 3.964844 45.960938 5.476562 43.136719 6.664062 39.902344 C 13.089844 38.042969 18.828125 34.585938 23.414062 29.992188 Z M 23.414062 29.992188 "/>
</g>
</svg>
