<?xml version="1.0" encoding="UTF-8"?>
<svg xmlns="http://www.w3.org/2000/svg" xmlns:xlink="http://www.w3.org/1999/xlink" width="106px" height="40px" viewBox="0 0 106 40" version="1.1">
<g id="surface1">
<path style=" stroke:none;fill-rule:evenodd;fill:rgb(80%,0%,0%);fill-opacity:1;" d="M 90.9375 33.417969 L 90.9375 38.089844 L 99.371094 38.089844 C 101.101562 38.089844 104.066406 36.824219 104.167969 33.289062 L 104.167969 31.484375 C 104.167969 28.464844 101.691406 26.683594 99.371094 26.683594 L 95.167969 26.683594 L 95.167969 24.515625 L 103.5 24.515625 L 103.5 19.820312 L 95.503906 19.820312 C 93.441406 19.820312 90.679688 21.523438 90.679688 24.695312 L 90.679688 26.324219 C 90.679688 29.496094 93.414062 31.121094 95.503906 31.121094 C 101.304688 31.148438 94.109375 31.121094 99.476562 31.121094 L 99.476562 33.394531 M 45.753906 32.285156 C 45.753906 32.285156 50.265625 31.898438 50.265625 26.066406 C 50.265625 20.230469 44.796875 19.691406 44.796875 19.691406 L 34.945312 19.691406 L 34.945312 38.089844 L 39.898438 38.089844 L 39.898438 33.652344 L 44.179688 38.089844 L 51.503906 38.089844 Z M 43.84375 28.515625 L 39.898438 28.515625 L 39.898438 24.308594 L 43.871094 24.308594 C 43.871094 24.308594 44.980469 24.722656 44.980469 26.398438 C 44.980469 28.078125 43.84375 28.515625 43.84375 28.515625 Z M 62.492188 19.820312 L 57.460938 19.820312 C 53.875 19.820312 52.664062 23.070312 52.664062 24.621094 L 52.664062 38.089844 L 57.695312 38.089844 L 57.695312 34.863281 L 62.414062 34.863281 L 62.414062 38.089844 L 67.289062 38.089844 L 67.289062 24.621094 C 67.289062 20.695312 63.730469 19.820312 62.492188 19.820312 Z M 62.414062 29.652344 L 57.667969 29.652344 L 57.667969 25.1875 C 57.667969 25.1875 57.667969 24.179688 59.242188 24.179688 L 60.96875 24.179688 C 62.363281 24.179688 62.386719 25.1875 62.386719 25.1875 L 62.386719 29.652344 Z M 62.414062 29.652344 "/>
<path style=" stroke:none;fill-rule:evenodd;fill:rgb(80%,0%,0%);fill-opacity:1;" d="M 69.582031 19.820312 L 74.820312 19.820312 L 74.820312 38.089844 L 69.582031 38.089844 Z M 69.582031 19.820312 "/>
<path style=" stroke:none;fill-rule:evenodd;fill:rgb(80%,0%,0%);fill-opacity:1;" d="M 82.167969 33.367188 L 82.167969 19.820312 L 76.960938 19.820312 L 76.960938 38.089844 L 89.210938 38.089844 L 89.210938 33.367188 Z M 82.167969 33.367188 "/>
<path style=" stroke:none;fill-rule:evenodd;fill:rgb(80%,0%,0%);fill-opacity:1;" d="M 3.867188 38.089844 L 24.242188 38.089844 C 24.242188 38.089844 20.347656 20.308594 33.246094 13.109375 C 36.054688 11.742188 45.003906 6.632812 59.652344 17.472656 C 60.117188 17.082031 60.558594 16.773438 60.558594 16.773438 C 60.558594 16.773438 47.144531 3.378906 32.210938 4.878906 C 24.707031 5.546875 15.472656 12.386719 10.058594 21.417969 C 4.640625 30.453125 3.867188 38.089844 3.867188 38.089844 Z M 3.867188 38.089844 "/>
<path style=" stroke:none;fill-rule:evenodd;fill:rgb(80%,0%,0%);fill-opacity:1;" d="M 3.867188 38.089844 L 24.242188 38.089844 C 24.242188 38.089844 20.347656 20.308594 33.246094 13.109375 C 36.054688 11.742188 45.003906 6.632812 59.652344 17.472656 C 60.117188 17.082031 60.558594 16.773438 60.558594 16.773438 C 60.558594 16.773438 47.144531 3.378906 32.210938 4.878906 C 24.707031 5.546875 15.472656 12.386719 10.058594 21.417969 C 4.640625 30.453125 3.867188 38.089844 3.867188 38.089844 Z M 3.867188 38.089844 "/>
<path style=" stroke:none;fill-rule:evenodd;fill:rgb(80%,0%,0%);fill-opacity:1;" d="M 3.867188 38.089844 L 24.242188 38.089844 C 24.242188 38.089844 20.347656 20.308594 33.246094 13.109375 C 36.054688 11.742188 45.003906 6.632812 59.652344 17.472656 C 60.117188 17.082031 60.558594 16.773438 60.558594 16.773438 C 60.558594 16.773438 47.144531 3.378906 32.210938 4.878906 C 24.683594 5.546875 15.449219 12.386719 10.03125 21.417969 C 4.617188 30.453125 3.867188 38.089844 3.867188 38.089844 Z M 46.320312 6.324219 L 46.421875 4.59375 C 46.191406 4.464844 45.546875 4.15625 43.921875 3.691406 L 43.820312 5.394531 C 44.667969 5.675781 45.496094 5.988281 46.320312 6.324219 Z M 46.320312 6.324219 "/>
<path style=" stroke:none;fill-rule:evenodd;fill:rgb(80%,0%,0%);fill-opacity:1;" d="M 43.871094 11.792969 L 43.765625 13.417969 C 44.617188 13.445312 45.46875 13.546875 46.320312 13.730469 L 46.421875 12.128906 C 45.546875 11.949219 44.695312 11.84375 43.871094 11.792969 Z M 34.328125 3.742188 L 34.585938 3.742188 L 34.070312 2.167969 C 33.269531 2.167969 32.445312 2.21875 31.59375 2.324219 L 32.082031 3.84375 C 32.832031 3.769531 33.578125 3.742188 34.328125 3.742188 Z M 35.566406 13.238281 L 36.160156 15.019531 C 36.90625 14.65625 37.65625 14.347656 38.402344 14.117188 L 37.835938 12.414062 C 36.957031 12.671875 36.210938 12.953125 35.566406 13.238281 Z M 23.855469 6.453125 L 22.695312 4.671875 C 22.050781 5.007812 21.378906 5.367188 20.683594 5.78125 L 21.871094 7.585938 C 22.542969 7.175781 23.1875 6.785156 23.855469 6.453125 Z M 29.144531 18.066406 L 30.382812 19.921875 C 30.820312 19.277344 31.335938 18.683594 31.902344 18.089844 L 30.742188 16.335938 C 30.148438 16.878906 29.609375 17.472656 29.144531 18.066406 Z M 25.402344 26.375 L 27.492188 28.027344 C 27.597656 27.019531 27.777344 26.011719 28.035156 25.007812 L 26.175781 23.535156 C 25.84375 24.492188 25.609375 25.445312 25.402344 26.375 Z M 14.109375 14.117188 L 12.277344 12.515625 C 11.605469 13.160156 10.960938 13.804688 10.367188 14.453125 L 12.355469 16.15625 C 12.894531 15.457031 13.488281 14.761719 14.109375 14.117188 Z M 6.320312 25.652344 L 3.351562 24.566406 C 2.863281 25.675781 2.320312 26.96875 2.0625 27.664062 L 5.027344 28.75 C 5.363281 27.871094 5.90625 26.605469 6.320312 25.652344 Z M 25.015625 32.929688 C 25.070312 34.296875 25.199219 35.40625 25.328125 36.179688 L 28.421875 37.289062 C 28.1875 36.285156 27.957031 35.148438 27.800781 33.933594 Z M 25.015625 32.929688 "/>
</g>
</svg>
