<?xml version="1.0" encoding="UTF-8"?>
<svg xmlns="http://www.w3.org/2000/svg" xmlns:xlink="http://www.w3.org/1999/xlink" width="203px" height="40px" viewBox="0 0 203 40" version="1.1">
<g id="surface1">
<path style=" stroke:none;fill-rule:nonzero;fill:rgb(100%,100%,100%);fill-opacity:1;" d="M 0.0664062 39.148438 C 0.0664062 26.125 0.0664062 13.105469 0.0664062 0.0664062 C 6.824219 0.0664062 13.585938 0.0664062 20.363281 0.0898438 C 20.046875 0.144531 19.714844 0.152344 19.382812 0.199219 C 18.359375 0.34375 17.332031 0.46875 16.320312 0.667969 C 15.558594 0.816406 14.789062 1.003906 14.121094 1.441406 C 13.753906 1.679688 13.761719 2.0625 14.167969 2.226562 C 14.566406 2.382812 14.996094 2.519531 15.417969 2.539062 C 16.6875 2.597656 17.957031 2.578125 19.226562 2.625 C 19.964844 2.652344 20.703125 2.746094 21.441406 2.816406 C 22.535156 2.917969 23.597656 3.152344 24.625 3.539062 C 25.285156 3.785156 25.859375 4.132812 26 4.910156 C 26.097656 5.476562 25.882812 5.984375 25.667969 6.476562 C 25.167969 7.617188 24.375 8.5625 23.535156 9.457031 C 22.359375 10.710938 21.082031 11.855469 19.714844 12.898438 C 18.71875 13.664062 17.703125 14.40625 16.726562 15.199219 C 16.238281 15.597656 15.800781 16.070312 15.378906 16.542969 C 15.273438 16.664062 15.234375 16.953125 15.304688 17.089844 C 15.375 17.226562 15.625 17.335938 15.796875 17.332031 C 16.078125 17.332031 16.359375 17.246094 16.632812 17.164062 C 18.191406 16.699219 19.578125 15.882812 20.972656 15.066406 C 22.886719 13.953125 24.65625 12.636719 26.289062 11.152344 C 27.445312 10.097656 28.492188 8.9375 29.324219 7.601562 C 29.886719 6.691406 30.324219 5.71875 30.402344 4.640625 C 30.496094 3.34375 30.011719 2.289062 28.902344 1.574219 C 27.574219 0.722656 26.078125 0.386719 24.542969 0.195312 C 24.207031 0.15625 23.875 0.109375 23.542969 0.0664062 C 83.375 0.0664062 143.210938 0.0664062 203.066406 0.0664062 C 203.066406 7.488281 203.066406 14.910156 203.042969 22.351562 C 202.945312 22.121094 202.875 21.871094 202.808594 21.617188 C 202.335938 19.886719 201.132812 18.835938 199.53125 18.210938 C 198.078125 17.644531 196.535156 17.46875 194.988281 17.421875 C 194.21875 17.398438 193.449219 17.441406 192.679688 17.484375 C 192.027344 17.523438 191.378906 17.589844 190.730469 17.679688 C 189.207031 17.890625 187.757812 18.347656 186.421875 19.125 C 184.863281 20.035156 183.714844 21.324219 182.917969 22.941406 C 182.324219 24.148438 182.023438 25.445312 181.746094 26.753906 C 181.445312 28.164062 181.152344 29.578125 180.847656 30.988281 C 180.722656 31.5625 180.5625 32.132812 180.441406 32.710938 C 180.277344 33.488281 180.140625 34.273438 179.992188 35.054688 C 179.941406 35.316406 180.132812 35.734375 180.507812 35.738281 C 181.804688 35.753906 183.101562 35.746094 184.398438 35.734375 C 184.472656 35.734375 184.59375 35.621094 184.613281 35.539062 C 184.738281 35.023438 184.839844 34.503906 184.949219 33.984375 C 185.152344 33.023438 185.355469 32.0625 185.554688 31.121094 C 189.382812 31.121094 193.175781 31.121094 196.976562 31.121094 C 196.648438 32.667969 196.328125 34.191406 195.996094 35.746094 C 196.121094 35.746094 196.230469 35.746094 196.335938 35.746094 C 197.535156 35.746094 198.734375 35.730469 199.933594 35.75 C 200.382812 35.757812 200.753906 35.441406 200.84375 35.015625 C 201.078125 33.90625 201.324219 32.800781 201.5625 31.691406 C 201.800781 30.558594 202.046875 29.429688 202.277344 28.296875 C 202.484375 27.308594 202.671875 26.320312 202.875 25.332031 C 202.921875 25.109375 203 24.898438 203.066406 24.679688 C 203.066406 29.808594 203.066406 34.9375 203.066406 40.066406 C 135.898438 40.066406 68.730469 40.066406 1.542969 40.039062 C 1.65625 40.007812 1.792969 40.023438 1.914062 39.988281 C 3.066406 39.671875 4.238281 39.410156 5.355469 39 C 6.929688 38.417969 8.492188 37.78125 10.011719 37.0625 C 11.367188 36.414062 12.671875 35.648438 13.972656 34.890625 C 15.820312 33.816406 17.484375 32.492188 19.011719 31.003906 C 19.542969 30.488281 20.015625 29.910156 20.488281 29.335938 C 21.535156 28.0625 22.359375 26.660156 22.894531 25.089844 C 23.140625 24.375 23.296875 23.664062 23.117188 22.90625 C 22.84375 21.773438 22.113281 21.023438 21.125 20.492188 C 19.964844 19.871094 18.722656 19.488281 17.421875 19.316406 C 16.378906 19.179688 15.335938 19.054688 14.289062 19 C 13.46875 18.957031 12.644531 19.011719 11.820312 19.054688 C 11.125 19.09375 10.429688 19.15625 9.742188 19.257812 C 8.941406 19.378906 8.144531 19.515625 7.367188 19.71875 C 6.652344 19.902344 5.960938 20.164062 5.269531 20.425781 C 5.035156 20.515625 4.8125 20.683594 4.839844 21.003906 C 4.867188 21.3125 5.09375 21.4375 5.347656 21.488281 C 5.804688 21.585938 6.265625 21.710938 6.726562 21.722656 C 7.539062 21.746094 8.351562 21.675781 9.164062 21.675781 C 9.804688 21.671875 10.441406 21.703125 11.078125 21.738281 C 12.046875 21.792969 13.019531 21.820312 13.976562 21.945312 C 14.8125 22.054688 15.648438 22.242188 16.460938 22.46875 C 17.097656 22.644531 17.710938 22.929688 18.113281 23.496094 C 18.625 24.222656 18.582031 25.011719 18.328125 25.820312 C 17.917969 27.132812 17.113281 28.214844 16.179688 29.179688 C 15.277344 30.117188 14.308594 31.007812 13.285156 31.816406 C 11.71875 33.054688 10.039062 34.136719 8.15625 34.859375 C 7.648438 35.050781 7.089844 35.117188 6.550781 35.214844 C 6.351562 35.246094 6.125 35.195312 6.089844 34.9375 C 6.066406 34.757812 6.054688 34.554688 6.109375 34.390625 C 6.332031 33.75 6.539062 33.101562 6.832031 32.496094 C 7.304688 31.507812 7.820312 30.542969 8.347656 29.585938 C 8.929688 28.535156 9.5625 27.515625 10.140625 26.464844 C 10.433594 25.929688 10.683594 25.363281 10.882812 24.789062 C 10.960938 24.566406 10.929688 24.210938 10.796875 24.03125 C 10.589844 23.765625 10.261719 23.898438 9.972656 24.015625 C 9.339844 24.269531 8.914062 24.765625 8.539062 25.28125 C 7.425781 26.808594 6.328125 28.355469 5.273438 29.921875 C 4.480469 31.101562 3.746094 32.320312 3.011719 33.535156 C 2.527344 34.335938 2.074219 35.152344 1.632812 35.972656 C 1.226562 36.730469 0.847656 37.503906 0.464844 38.273438 C 0.320312 38.5625 0.199219 38.855469 0.0664062 39.148438 M 94.570312 21.199219 C 94.957031 20.382812 95.828125 20.550781 96.167969 21.34375 C 96.367188 21.800781 96.546875 22.261719 96.726562 22.726562 C 97.207031 23.957031 97.664062 25.199219 98.171875 26.417969 C 98.660156 27.601562 99.164062 28.78125 99.722656 29.929688 C 100.144531 30.789062 100.777344 31.480469 101.648438 31.929688 C 102.484375 32.359375 103.386719 32.402344 104.285156 32.320312 C 104.757812 32.277344 105.246094 32.125 105.671875 31.90625 C 106.65625 31.40625 107.296875 30.546875 107.769531 29.574219 C 108.179688 28.738281 108.527344 27.875 108.875 27.007812 C 109.457031 25.546875 110.007812 24.070312 110.597656 22.605469 C 110.820312 22.050781 111.074219 21.5 111.378906 20.984375 C 111.617188 20.578125 112.167969 20.554688 112.46875 20.914062 C 112.644531 21.125 112.804688 21.390625 112.867188 21.65625 C 113.132812 22.746094 113.363281 23.847656 113.601562 24.945312 C 113.929688 26.457031 114.257812 27.972656 114.578125 29.488281 C 114.933594 31.191406 115.269531 32.898438 115.632812 34.601562 C 115.769531 35.242188 116.335938 35.785156 117.082031 35.75 C 117.824219 35.71875 118.566406 35.746094 119.304688 35.746094 C 119.902344 35.746094 120.5 35.746094 121.121094 35.746094 C 121.121094 35.652344 121.128906 35.589844 121.117188 35.527344 C 120.886719 34.480469 120.65625 33.4375 120.425781 32.390625 C 120.21875 31.457031 120.015625 30.527344 119.8125 29.59375 C 119.558594 28.410156 119.308594 27.230469 119.054688 26.046875 C 118.851562 25.09375 118.644531 24.140625 118.4375 23.183594 C 118.191406 22.042969 117.960938 20.898438 117.378906 19.867188 C 116.875 18.976562 116.230469 18.21875 115.304688 17.746094 C 113.945312 17.050781 112.515625 16.933594 111.03125 17.214844 C 109.464844 17.511719 108.324219 18.398438 107.617188 19.792969 C 107.085938 20.839844 106.652344 21.9375 106.195312 23.019531 C 105.703125 24.191406 105.242188 25.375 104.753906 26.546875 C 104.515625 27.121094 104.265625 27.691406 103.984375 28.25 C 103.816406 28.585938 103.414062 28.566406 103.246094 28.230469 C 103.109375 27.957031 102.992188 27.671875 102.875 27.386719 C 102.414062 26.273438 101.960938 25.15625 101.5 24.039062 C 101.085938 23.03125 100.679688 22.023438 100.253906 21.019531 C 99.84375 20.054688 99.394531 19.117188 98.59375 18.386719 C 97.699219 17.570312 96.648438 17.160156 95.472656 17.101562 C 94.8125 17.066406 94.132812 17.121094 93.480469 17.230469 C 92.261719 17.429688 91.246094 18.042969 90.476562 19.003906 C 89.613281 20.082031 89.21875 21.367188 88.941406 22.699219 C 88.695312 23.894531 88.433594 25.085938 88.175781 26.277344 C 87.933594 27.394531 87.683594 28.515625 87.441406 29.632812 C 87.140625 31.023438 86.84375 32.410156 86.542969 33.800781 C 86.40625 34.441406 86.269531 35.078125 86.128906 35.746094 C 87.601562 35.746094 89.050781 35.746094 90.5 35.742188 C 90.558594 35.742188 90.617188 35.707031 90.679688 35.6875 C 91.300781 35.511719 91.5625 35.027344 91.6875 34.453125 C 92.042969 32.804688 92.390625 31.15625 92.734375 29.503906 C 93.132812 27.59375 93.507812 25.675781 93.917969 23.765625 C 94.101562 22.921875 94.34375 22.085938 94.570312 21.199219 M 140.417969 28.84375 C 140.199219 29.347656 140.011719 29.867188 139.753906 30.351562 C 139.414062 30.984375 138.902344 31.480469 138.308594 31.882812 C 137.082031 32.703125 135.6875 32.972656 134.253906 33.050781 C 133.082031 33.117188 131.90625 33.050781 130.769531 32.730469 C 129.800781 32.457031 128.980469 31.925781 128.765625 30.894531 C 128.617188 30.183594 128.601562 29.398438 128.730469 28.6875 C 129.128906 26.527344 129.628906 24.386719 130.085938 22.238281 C 130.394531 20.777344 130.699219 19.3125 131.007812 17.84375 C 130.957031 17.828125 130.929688 17.808594 130.898438 17.808594 C 129.546875 17.808594 128.195312 17.800781 126.84375 17.8125 C 126.371094 17.816406 126.003906 18.121094 125.902344 18.578125 C 125.609375 19.933594 125.328125 21.296875 125.042969 22.65625 C 124.773438 23.957031 124.527344 25.261719 124.234375 26.554688 C 123.925781 27.941406 123.636719 29.328125 123.746094 30.757812 C 123.785156 31.292969 123.878906 31.839844 124.046875 32.347656 C 124.566406 33.902344 125.726562 34.804688 127.214844 35.359375 C 128.726562 35.917969 130.304688 36.082031 131.898438 36.132812 C 132.683594 36.160156 133.46875 36.15625 134.25 36.132812 C 134.984375 36.113281 135.722656 36.097656 136.445312 35.992188 C 137.324219 35.871094 138.207031 35.703125 139.066406 35.472656 C 140.433594 35.105469 141.691406 34.492188 142.734375 33.511719 C 143.796875 32.515625 144.550781 31.300781 144.980469 29.914062 C 145.324219 28.816406 145.578125 27.6875 145.839844 26.5625 C 146.140625 25.273438 146.414062 23.972656 146.6875 22.675781 C 146.964844 21.367188 147.203125 20.050781 147.503906 18.75 C 147.65625 18.089844 147.320312 17.796875 146.757812 17.804688 C 145.84375 17.816406 144.925781 17.808594 144.011719 17.808594 C 143.601562 17.808594 143.1875 17.808594 142.785156 17.808594 C 142.621094 18.566406 142.460938 19.292969 142.3125 20.019531 C 142 21.539062 141.703125 23.058594 141.378906 24.574219 C 141.082031 25.988281 140.761719 27.394531 140.417969 28.84375 M 71.089844 28.839844 C 70.730469 28.519531 70.40625 28.136719 69.996094 27.886719 C 68.875 27.203125 67.734375 26.546875 66.574219 25.929688 C 65.070312 25.136719 63.53125 24.40625 62.03125 23.609375 C 61.566406 23.363281 61.136719 23.019531 60.75 22.660156 C 60.164062 22.117188 60.453125 21.003906 61.15625 20.847656 C 61.507812 20.773438 61.871094 20.695312 62.230469 20.695312 C 65.152344 20.683594 68.070312 20.691406 70.992188 20.683594 C 71.703125 20.683594 72.339844 20.335938 72.496094 19.699219 C 72.648438 19.078125 72.773438 18.453125 72.910156 17.820312 C 72.851562 17.8125 72.816406 17.808594 72.785156 17.808594 C 68.636719 17.828125 64.488281 17.835938 60.34375 17.882812 C 59.554688 17.890625 58.757812 17.996094 57.984375 18.144531 C 56.675781 18.402344 55.585938 19.011719 55.023438 20.3125 C 54.667969 21.128906 54.460938 21.972656 54.746094 22.855469 C 55.003906 23.664062 55.585938 24.25 56.234375 24.730469 C 57.085938 25.359375 57.992188 25.917969 58.902344 26.457031 C 60.207031 27.230469 61.539062 27.957031 62.855469 28.714844 C 63.738281 29.21875 64.628906 29.710938 65.484375 30.257812 C 66.441406 30.871094 66.253906 31.925781 65.5625 32.46875 C 65.078125 32.851562 64.480469 32.914062 63.902344 32.921875 C 60.410156 32.960938 56.914062 32.96875 53.421875 33 C 52.9375 33.003906 52.324219 33.316406 52.183594 33.925781 C 52.050781 34.519531 51.917969 35.117188 51.777344 35.746094 C 51.933594 35.746094 52.054688 35.746094 52.171875 35.746094 C 55.933594 35.746094 59.691406 35.738281 63.453125 35.746094 C 64.972656 35.75 66.492188 35.726562 67.988281 35.414062 C 69.148438 35.171875 70.234375 34.789062 71.019531 33.820312 C 71.625 33.078125 71.9375 32.21875 72 31.277344 C 72.058594 30.359375 71.707031 29.570312 71.089844 28.839844 M 41.203125 15.332031 C 41.105469 15.136719 41.0625 14.878906 40.90625 14.757812 C 40.46875 14.414062 39.941406 14.242188 39.394531 14.144531 C 38.621094 14.003906 37.847656 13.851562 37.066406 13.75 C 36.070312 13.617188 35.070312 13.492188 34.066406 13.433594 C 33.378906 13.390625 32.679688 13.433594 31.992188 13.496094 C 31.175781 13.566406 30.351562 13.652344 29.554688 13.824219 C 28.171875 14.121094 26.910156 14.671875 25.972656 15.796875 C 25.296875 16.605469 25.09375 17.515625 25.339844 18.519531 C 25.660156 19.8125 26.34375 20.933594 27.152344 21.957031 C 28.363281 23.496094 29.625 25 30.890625 26.496094 C 31.71875 27.476562 32.550781 28.445312 33.21875 29.546875 C 33.550781 30.105469 33.757812 30.6875 33.679688 31.34375 C 33.609375 31.933594 33.152344 32.164062 32.679688 32.335938 C 31.5625 32.734375 30.390625 32.816406 29.226562 32.925781 C 28.464844 32.996094 27.699219 33.023438 26.933594 33.058594 C 25.789062 33.109375 24.640625 33.136719 23.496094 33.195312 C 22.441406 33.246094 21.390625 33.316406 20.335938 33.390625 C 20.03125 33.414062 19.785156 33.59375 19.695312 33.886719 C 19.589844 34.234375 19.792969 34.484375 20.078125 34.621094 C 20.378906 34.769531 20.703125 34.898438 21.03125 34.949219 C 22.457031 35.167969 23.878906 35.375 25.308594 35.539062 C 26.273438 35.648438 27.242188 35.714844 28.207031 35.734375 C 29.28125 35.757812 30.355469 35.695312 31.429688 35.679688 C 32.632812 35.664062 33.816406 35.488281 34.964844 35.144531 C 36.070312 34.8125 37.109375 34.328125 37.847656 33.375 C 38.25 32.859375 38.507812 32.285156 38.578125 31.640625 C 38.667969 30.800781 38.460938 30.003906 38.085938 29.253906 C 37.523438 28.132812 36.761719 27.148438 35.953125 26.199219 C 35.066406 25.152344 34.199219 24.089844 33.316406 23.039062 C 32.664062 22.269531 31.984375 21.519531 31.351562 20.734375 C 30.773438 20.023438 30.300781 19.25 30.105469 18.328125 C 29.996094 17.800781 30.191406 17.183594 30.636719 16.910156 C 30.824219 16.792969 31.03125 16.707031 31.238281 16.628906 C 32.347656 16.21875 33.519531 16.199219 34.675781 16.117188 C 35.746094 16.039062 36.824219 16.070312 37.898438 16.035156 C 38.652344 16.011719 39.40625 15.976562 40.15625 15.898438 C 40.550781 15.859375 40.972656 15.800781 41.203125 15.332031 M 158.496094 32.929688 C 157.355469 32.929688 156.214844 32.929688 155.066406 32.929688 C 155.113281 32.707031 155.152344 32.523438 155.191406 32.335938 C 155.445312 31.132812 155.699219 29.925781 155.953125 28.722656 C 156.199219 27.570312 156.453125 26.421875 156.695312 25.269531 C 156.953125 24.066406 157.203125 22.859375 157.457031 21.65625 C 157.679688 20.597656 157.917969 19.542969 158.132812 18.480469 C 158.207031 18.097656 157.984375 17.8125 157.628906 17.808594 C 156.246094 17.804688 154.859375 17.804688 153.476562 17.8125 C 153.394531 17.8125 153.261719 17.894531 153.242188 17.960938 C 153.15625 18.265625 153.101562 18.582031 153.035156 18.894531 C 152.738281 20.304688 152.441406 21.714844 152.140625 23.128906 C 151.917969 24.1875 151.691406 25.246094 151.464844 26.304688 C 151.167969 27.707031 150.875 29.109375 150.582031 30.507812 C 150.351562 31.601562 150.125 32.691406 149.894531 33.78125 C 149.828125 34.113281 149.765625 34.449219 149.691406 34.78125 C 149.621094 35.09375 149.542969 35.402344 149.460938 35.734375 C 155.058594 35.734375 160.570312 35.734375 166.105469 35.734375 C 166.238281 35.132812 166.386719 34.535156 166.5 33.933594 C 166.589844 33.480469 166.417969 33.117188 166.09375 33.015625 C 165.910156 32.960938 165.714844 32.933594 165.527344 32.933594 C 163.203125 32.925781 160.882812 32.929688 158.496094 32.929688 M 75.796875 35.746094 C 77.234375 35.746094 78.671875 35.742188 80.109375 35.75 C 80.324219 35.75 80.40625 35.683594 80.445312 35.472656 C 80.621094 34.574219 80.8125 33.683594 81 32.792969 C 81.226562 31.722656 81.457031 30.65625 81.683594 29.585938 C 81.957031 28.277344 82.226562 26.96875 82.503906 25.660156 C 82.726562 24.59375 82.960938 23.523438 83.1875 22.457031 C 83.460938 21.148438 83.726562 19.835938 84.003906 18.53125 C 84.082031 18.164062 83.875 17.816406 83.503906 17.8125 C 82.167969 17.800781 80.828125 17.808594 79.496094 17.808594 C 79.457031 17.914062 79.417969 18.003906 79.398438 18.09375 C 79.023438 19.902344 78.65625 21.710938 78.277344 23.519531 C 77.890625 25.367188 77.5 27.214844 77.101562 29.058594 C 76.671875 31.046875 76.230469 33.035156 75.804688 35.027344 C 75.753906 35.257812 75.757812 35.503906 75.796875 35.746094 M 170.691406 31.324219 C 170.382812 32.789062 170.070312 34.253906 169.753906 35.734375 C 171.363281 35.734375 172.90625 35.734375 174.457031 35.734375 C 174.640625 34.890625 174.832031 34.054688 175.007812 33.214844 C 175.300781 31.804688 175.574219 30.386719 175.871094 28.972656 C 176.183594 27.492188 176.519531 26.011719 176.835938 24.53125 C 177.253906 22.582031 177.660156 20.628906 178.074219 18.679688 C 178.179688 18.183594 177.988281 17.8125 177.585938 17.8125 C 176.300781 17.800781 175.015625 17.804688 173.730469 17.816406 C 173.65625 17.816406 173.535156 17.929688 173.511719 18.011719 C 173.433594 18.296875 173.386719 18.59375 173.324219 18.882812 C 173.078125 20.023438 172.832031 21.164062 172.589844 22.304688 C 172.332031 23.515625 172.078125 24.730469 171.824219 25.945312 C 171.621094 26.921875 171.421875 27.898438 171.214844 28.875 C 171.046875 29.671875 170.867188 30.46875 170.691406 31.324219 Z M 170.691406 31.324219 "/>
<path style=" stroke:none;fill-rule:nonzero;fill:rgb(14.901961%,21.568627%,49.411765%);fill-opacity:1;" d="M 203.066406 24.648438 C 203 24.898438 202.921875 25.109375 202.875 25.332031 C 202.671875 26.320312 202.484375 27.308594 202.277344 28.296875 C 202.046875 29.429688 201.800781 30.558594 201.5625 31.691406 C 201.324219 32.800781 201.078125 33.90625 200.84375 35.015625 C 200.753906 35.441406 200.382812 35.757812 199.933594 35.75 C 198.734375 35.730469 197.535156 35.746094 196.335938 35.746094 C 196.230469 35.746094 196.121094 35.746094 195.996094 35.746094 C 196.328125 34.191406 196.648438 32.667969 196.976562 31.121094 C 193.175781 31.121094 189.382812 31.121094 185.554688 31.121094 C 185.355469 32.0625 185.152344 33.023438 184.949219 33.984375 C 184.839844 34.503906 184.738281 35.023438 184.613281 35.539062 C 184.59375 35.621094 184.472656 35.734375 184.398438 35.734375 C 183.101562 35.746094 181.804688 35.753906 180.507812 35.738281 C 180.132812 35.734375 179.941406 35.316406 179.992188 35.054688 C 180.140625 34.273438 180.277344 33.488281 180.441406 32.710938 C 180.5625 32.132812 180.722656 31.5625 180.847656 30.988281 C 181.152344 29.578125 181.445312 28.164062 181.746094 26.753906 C 182.023438 25.445312 182.324219 24.148438 182.917969 22.941406 C 183.714844 21.324219 184.863281 20.035156 186.421875 19.125 C 187.757812 18.347656 189.207031 17.890625 190.730469 17.679688 C 191.378906 17.589844 192.027344 17.523438 192.679688 17.484375 C 193.449219 17.441406 194.21875 17.398438 194.988281 17.421875 C 196.535156 17.46875 198.078125 17.644531 199.53125 18.210938 C 201.132812 18.835938 202.335938 19.886719 202.808594 21.617188 C 202.875 21.871094 202.945312 22.121094 203.042969 22.382812 C 203.066406 23.132812 203.066406 23.875 203.066406 24.648438 M 187.890625 22.808594 C 187.628906 23.269531 187.269531 23.703125 187.128906 24.195312 C 186.753906 25.484375 186.472656 26.800781 186.148438 28.132812 C 190.011719 28.132812 193.816406 28.132812 197.609375 28.132812 C 197.722656 27.597656 197.839844 27.078125 197.941406 26.558594 C 198.132812 25.597656 198.433594 24.648438 198.355469 23.648438 C 198.285156 22.777344 197.949219 22.050781 197.214844 21.527344 C 196.320312 20.894531 195.285156 20.753906 194.246094 20.703125 C 193.398438 20.664062 192.542969 20.746094 191.695312 20.824219 C 190.179688 20.964844 188.886719 21.574219 187.890625 22.808594 Z M 187.890625 22.808594 "/>
<path style=" stroke:none;fill-rule:nonzero;fill:rgb(14.901961%,21.568627%,49.411765%);fill-opacity:1;" d="M 0.0664062 39.179688 C 0.199219 38.855469 0.320312 38.5625 0.464844 38.273438 C 0.847656 37.503906 1.226562 36.730469 1.632812 35.972656 C 2.074219 35.152344 2.527344 34.335938 3.011719 33.535156 C 3.746094 32.320312 4.480469 31.101562 5.273438 29.921875 C 6.328125 28.355469 7.425781 26.808594 8.539062 25.28125 C 8.914062 24.765625 9.339844 24.269531 9.972656 24.015625 C 10.261719 23.898438 10.589844 23.765625 10.796875 24.03125 C 10.929688 24.210938 10.960938 24.566406 10.882812 24.789062 C 10.683594 25.363281 10.433594 25.929688 10.140625 26.464844 C 9.5625 27.515625 8.929688 28.535156 8.347656 29.585938 C 7.820312 30.542969 7.304688 31.507812 6.832031 32.496094 C 6.539062 33.101562 6.332031 33.75 6.109375 34.390625 C 6.054688 34.554688 6.066406 34.757812 6.089844 34.9375 C 6.125 35.195312 6.351562 35.246094 6.550781 35.214844 C 7.089844 35.117188 7.648438 35.050781 8.15625 34.859375 C 10.039062 34.136719 11.71875 33.054688 13.285156 31.816406 C 14.308594 31.007812 15.277344 30.117188 16.179688 29.179688 C 17.113281 28.214844 17.917969 27.132812 18.328125 25.820312 C 18.582031 25.011719 18.625 24.222656 18.113281 23.496094 C 17.710938 22.929688 17.097656 22.644531 16.460938 22.46875 C 15.648438 22.242188 14.8125 22.054688 13.976562 21.945312 C 13.019531 21.820312 12.046875 21.792969 11.078125 21.738281 C 10.441406 21.703125 9.804688 21.671875 9.164062 21.675781 C 8.351562 21.675781 7.539062 21.746094 6.726562 21.722656 C 6.265625 21.710938 5.804688 21.585938 5.347656 21.488281 C 5.09375 21.4375 4.867188 21.3125 4.839844 21.003906 C 4.8125 20.683594 5.035156 20.515625 5.269531 20.425781 C 5.960938 20.164062 6.652344 19.902344 7.367188 19.71875 C 8.144531 19.515625 8.941406 19.378906 9.742188 19.257812 C 10.429688 19.15625 11.125 19.09375 11.820312 19.054688 C 12.644531 19.011719 13.46875 18.957031 14.289062 19 C 15.335938 19.054688 16.378906 19.179688 17.421875 19.316406 C 18.722656 19.488281 19.964844 19.871094 21.125 20.492188 C 22.113281 21.023438 22.84375 21.773438 23.117188 22.90625 C 23.296875 23.664062 23.140625 24.375 22.894531 25.089844 C 22.359375 26.660156 21.535156 28.0625 20.488281 29.335938 C 20.015625 29.910156 19.542969 30.488281 19.011719 31.003906 C 17.484375 32.492188 15.820312 33.816406 13.972656 34.890625 C 12.671875 35.648438 11.367188 36.414062 10.011719 37.0625 C 8.492188 37.78125 6.929688 38.417969 5.355469 39 C 4.238281 39.410156 3.066406 39.671875 1.914062 39.988281 C 1.792969 40.023438 1.65625 40.007812 1.515625 40.039062 C 1.03125 40.066406 0.558594 40.066406 0.0664062 40.066406 C 0.0664062 39.78125 0.0664062 39.496094 0.0664062 39.179688 Z M 0.0664062 39.179688 "/>
<path style=" stroke:none;fill-rule:nonzero;fill:rgb(14.901961%,21.568627%,49.411765%);fill-opacity:1;" d="M 23.511719 0.0664062 C 23.875 0.109375 24.207031 0.15625 24.542969 0.195312 C 26.078125 0.386719 27.574219 0.722656 28.902344 1.574219 C 30.011719 2.289062 30.496094 3.34375 30.402344 4.640625 C 30.324219 5.71875 29.886719 6.691406 29.324219 7.601562 C 28.492188 8.9375 27.445312 10.097656 26.289062 11.152344 C 24.65625 12.636719 22.886719 13.953125 20.972656 15.066406 C 19.578125 15.882812 18.191406 16.699219 16.632812 17.164062 C 16.359375 17.246094 16.078125 17.332031 15.796875 17.332031 C 15.625 17.335938 15.375 17.226562 15.304688 17.089844 C 15.234375 16.953125 15.273438 16.664062 15.378906 16.542969 C 15.800781 16.070312 16.238281 15.597656 16.726562 15.199219 C 17.703125 14.40625 18.71875 13.664062 19.714844 12.898438 C 21.082031 11.855469 22.359375 10.710938 23.535156 9.457031 C 24.375 8.5625 25.167969 7.617188 25.667969 6.476562 C 25.882812 5.984375 26.097656 5.476562 26 4.910156 C 25.859375 4.132812 25.285156 3.785156 24.625 3.539062 C 23.597656 3.152344 22.535156 2.917969 21.441406 2.816406 C 20.703125 2.746094 19.964844 2.652344 19.226562 2.625 C 17.957031 2.578125 16.6875 2.597656 15.417969 2.539062 C 14.996094 2.519531 14.566406 2.382812 14.167969 2.226562 C 13.761719 2.0625 13.753906 1.679688 14.121094 1.441406 C 14.789062 1.003906 15.558594 0.816406 16.320312 0.667969 C 17.332031 0.46875 18.359375 0.34375 19.382812 0.199219 C 19.714844 0.152344 20.046875 0.144531 20.390625 0.0898438 C 21.429688 0.0664062 22.457031 0.0664062 23.511719 0.0664062 Z M 23.511719 0.0664062 "/>
<path style=" stroke:none;fill-rule:nonzero;fill:rgb(14.901961%,21.568627%,49.411765%);fill-opacity:1;" d="M 94.566406 21.222656 C 94.34375 22.085938 94.101562 22.921875 93.917969 23.765625 C 93.507812 25.675781 93.132812 27.59375 92.734375 29.503906 C 92.390625 31.15625 92.042969 32.804688 91.6875 34.453125 C 91.5625 35.027344 91.300781 35.511719 90.679688 35.6875 C 90.617188 35.707031 90.558594 35.742188 90.5 35.742188 C 89.050781 35.746094 87.601562 35.746094 86.128906 35.746094 C 86.269531 35.078125 86.40625 34.441406 86.542969 33.800781 C 86.84375 32.410156 87.140625 31.023438 87.441406 29.632812 C 87.683594 28.515625 87.933594 27.394531 88.175781 26.277344 C 88.433594 25.085938 88.695312 23.894531 88.941406 22.699219 C 89.21875 21.367188 89.613281 20.082031 90.476562 19.003906 C 91.246094 18.042969 92.261719 17.429688 93.480469 17.230469 C 94.132812 17.121094 94.8125 17.066406 95.472656 17.101562 C 96.648438 17.160156 97.699219 17.570312 98.59375 18.386719 C 99.394531 19.117188 99.84375 20.054688 100.253906 21.019531 C 100.679688 22.023438 101.085938 23.03125 101.5 24.039062 C 101.960938 25.15625 102.414062 26.273438 102.875 27.386719 C 102.992188 27.671875 103.109375 27.957031 103.246094 28.230469 C 103.414062 28.566406 103.816406 28.585938 103.984375 28.25 C 104.265625 27.691406 104.515625 27.121094 104.753906 26.546875 C 105.242188 25.375 105.703125 24.191406 106.195312 23.019531 C 106.652344 21.9375 107.085938 20.839844 107.617188 19.792969 C 108.324219 18.398438 109.464844 17.511719 111.03125 17.214844 C 112.515625 16.933594 113.945312 17.050781 115.304688 17.746094 C 116.230469 18.21875 116.875 18.976562 117.378906 19.867188 C 117.960938 20.898438 118.191406 22.042969 118.4375 23.183594 C 118.644531 24.140625 118.851562 25.09375 119.054688 26.046875 C 119.308594 27.230469 119.558594 28.410156 119.8125 29.59375 C 120.015625 30.527344 120.21875 31.457031 120.425781 32.390625 C 120.65625 33.4375 120.886719 34.480469 121.117188 35.527344 C 121.128906 35.589844 121.121094 35.652344 121.121094 35.746094 C 120.5 35.746094 119.902344 35.746094 119.304688 35.746094 C 118.566406 35.746094 117.824219 35.71875 117.082031 35.75 C 116.335938 35.785156 115.769531 35.242188 115.632812 34.601562 C 115.269531 32.898438 114.933594 31.191406 114.578125 29.488281 C 114.257812 27.972656 113.929688 26.457031 113.601562 24.945312 C 113.363281 23.847656 113.132812 22.746094 112.867188 21.65625 C 112.804688 21.390625 112.644531 21.125 112.46875 20.914062 C 112.167969 20.554688 111.617188 20.578125 111.378906 20.984375 C 111.074219 21.5 110.820312 22.050781 110.597656 22.605469 C 110.007812 24.070312 109.457031 25.546875 108.875 27.007812 C 108.527344 27.875 108.179688 28.738281 107.769531 29.574219 C 107.296875 30.546875 106.65625 31.40625 105.671875 31.90625 C 105.246094 32.125 104.757812 32.277344 104.285156 32.320312 C 103.386719 32.402344 102.484375 32.359375 101.648438 31.929688 C 100.777344 31.480469 100.144531 30.789062 99.722656 29.929688 C 99.164062 28.78125 98.660156 27.601562 98.171875 26.417969 C 97.664062 25.199219 97.207031 23.957031 96.726562 22.726562 C 96.546875 22.261719 96.367188 21.800781 96.167969 21.34375 C 95.828125 20.550781 94.957031 20.382812 94.566406 21.222656 Z M 94.566406 21.222656 "/>
<path style=" stroke:none;fill-rule:nonzero;fill:rgb(14.901961%,21.568627%,49.411765%);fill-opacity:1;" d="M 140.433594 28.824219 C 140.761719 27.394531 141.082031 25.988281 141.378906 24.574219 C 141.703125 23.058594 142 21.539062 142.3125 20.019531 C 142.460938 19.292969 142.621094 18.566406 142.785156 17.808594 C 143.1875 17.808594 143.601562 17.808594 144.011719 17.808594 C 144.925781 17.808594 145.84375 17.816406 146.757812 17.804688 C 147.320312 17.796875 147.65625 18.089844 147.503906 18.75 C 147.203125 20.050781 146.964844 21.367188 146.6875 22.675781 C 146.414062 23.972656 146.140625 25.273438 145.839844 26.5625 C 145.578125 27.6875 145.324219 28.816406 144.980469 29.914062 C 144.550781 31.300781 143.796875 32.515625 142.734375 33.511719 C 141.691406 34.492188 140.433594 35.105469 139.066406 35.472656 C 138.207031 35.703125 137.324219 35.871094 136.445312 35.992188 C 135.722656 36.097656 134.984375 36.113281 134.25 36.132812 C 133.46875 36.15625 132.683594 36.160156 131.898438 36.132812 C 130.304688 36.082031 128.726562 35.917969 127.214844 35.359375 C 125.726562 34.804688 124.566406 33.902344 124.046875 32.347656 C 123.878906 31.839844 123.785156 31.292969 123.746094 30.757812 C 123.636719 29.328125 123.925781 27.941406 124.234375 26.554688 C 124.527344 25.261719 124.773438 23.957031 125.042969 22.65625 C 125.328125 21.296875 125.609375 19.933594 125.902344 18.578125 C 126.003906 18.121094 126.371094 17.816406 126.84375 17.8125 C 128.195312 17.800781 129.546875 17.808594 130.898438 17.808594 C 130.929688 17.808594 130.957031 17.828125 131.007812 17.84375 C 130.699219 19.3125 130.394531 20.777344 130.085938 22.238281 C 129.628906 24.386719 129.128906 26.527344 128.730469 28.6875 C 128.601562 29.398438 128.617188 30.183594 128.765625 30.894531 C 128.980469 31.925781 129.800781 32.457031 130.769531 32.730469 C 131.90625 33.050781 133.082031 33.117188 134.253906 33.050781 C 135.6875 32.972656 137.082031 32.703125 138.308594 31.882812 C 138.902344 31.480469 139.414062 30.984375 139.753906 30.351562 C 140.011719 29.867188 140.199219 29.347656 140.433594 28.824219 Z M 140.433594 28.824219 "/>
<path style=" stroke:none;fill-rule:nonzero;fill:rgb(14.901961%,21.568627%,49.411765%);fill-opacity:1;" d="M 71.109375 28.855469 C 71.707031 29.570312 72.058594 30.359375 72 31.277344 C 71.9375 32.21875 71.625 33.078125 71.019531 33.820312 C 70.234375 34.789062 69.148438 35.171875 67.988281 35.414062 C 66.492188 35.726562 64.972656 35.75 63.453125 35.746094 C 59.691406 35.738281 55.933594 35.746094 52.171875 35.746094 C 52.054688 35.746094 51.933594 35.746094 51.777344 35.746094 C 51.917969 35.117188 52.050781 34.519531 52.183594 33.925781 C 52.324219 33.316406 52.9375 33.003906 53.421875 33 C 56.914062 32.96875 60.410156 32.960938 63.902344 32.921875 C 64.480469 32.914062 65.078125 32.851562 65.5625 32.46875 C 66.253906 31.925781 66.441406 30.871094 65.484375 30.257812 C 64.628906 29.710938 63.738281 29.21875 62.855469 28.714844 C 61.539062 27.957031 60.207031 27.230469 58.902344 26.457031 C 57.992188 25.917969 57.085938 25.359375 56.234375 24.730469 C 55.585938 24.25 55.003906 23.664062 54.746094 22.855469 C 54.460938 21.972656 54.667969 21.128906 55.023438 20.3125 C 55.585938 19.011719 56.675781 18.402344 57.984375 18.144531 C 58.757812 17.996094 59.554688 17.890625 60.34375 17.882812 C 64.488281 17.835938 68.636719 17.828125 72.785156 17.808594 C 72.816406 17.808594 72.851562 17.8125 72.910156 17.820312 C 72.773438 18.453125 72.648438 19.078125 72.496094 19.699219 C 72.339844 20.335938 71.703125 20.683594 70.992188 20.683594 C 68.070312 20.691406 65.152344 20.683594 62.230469 20.695312 C 61.871094 20.695312 61.507812 20.773438 61.15625 20.847656 C 60.453125 21.003906 60.164062 22.117188 60.75 22.660156 C 61.136719 23.019531 61.566406 23.363281 62.03125 23.609375 C 63.53125 24.40625 65.070312 25.136719 66.574219 25.929688 C 67.734375 26.546875 68.875 27.203125 69.996094 27.886719 C 70.40625 28.136719 70.730469 28.519531 71.109375 28.855469 Z M 71.109375 28.855469 "/>
<path style=" stroke:none;fill-rule:nonzero;fill:rgb(14.901961%,21.568627%,49.411765%);fill-opacity:1;" d="M 41.199219 15.359375 C 40.972656 15.800781 40.550781 15.859375 40.15625 15.898438 C 39.40625 15.976562 38.652344 16.011719 37.898438 16.035156 C 36.824219 16.070312 35.746094 16.039062 34.675781 16.117188 C 33.519531 16.199219 32.347656 16.21875 31.238281 16.628906 C 31.03125 16.707031 30.824219 16.792969 30.636719 16.910156 C 30.191406 17.183594 29.996094 17.800781 30.105469 18.328125 C 30.300781 19.25 30.773438 20.023438 31.351562 20.734375 C 31.984375 21.519531 32.664062 22.269531 33.316406 23.039062 C 34.199219 24.089844 35.066406 25.152344 35.953125 26.199219 C 36.761719 27.148438 37.523438 28.132812 38.085938 29.253906 C 38.460938 30.003906 38.667969 30.800781 38.578125 31.640625 C 38.507812 32.285156 38.25 32.859375 37.847656 33.375 C 37.109375 34.328125 36.070312 34.8125 34.964844 35.144531 C 33.816406 35.488281 32.632812 35.664062 31.429688 35.679688 C 30.355469 35.695312 29.28125 35.757812 28.207031 35.734375 C 27.242188 35.714844 26.273438 35.648438 25.308594 35.539062 C 23.878906 35.375 22.457031 35.167969 21.03125 34.949219 C 20.703125 34.898438 20.378906 34.769531 20.078125 34.621094 C 19.792969 34.484375 19.589844 34.234375 19.695312 33.886719 C 19.785156 33.59375 20.03125 33.414062 20.335938 33.390625 C 21.390625 33.316406 22.441406 33.246094 23.496094 33.195312 C 24.640625 33.136719 25.789062 33.109375 26.933594 33.058594 C 27.699219 33.023438 28.464844 32.996094 29.226562 32.925781 C 30.390625 32.816406 31.5625 32.734375 32.679688 32.335938 C 33.152344 32.164062 33.609375 31.933594 33.679688 31.34375 C 33.757812 30.6875 33.550781 30.105469 33.21875 29.546875 C 32.550781 28.445312 31.71875 27.476562 30.890625 26.496094 C 29.625 25 28.363281 23.496094 27.152344 21.957031 C 26.34375 20.933594 25.660156 19.8125 25.339844 18.519531 C 25.09375 17.515625 25.296875 16.605469 25.972656 15.796875 C 26.910156 14.671875 28.171875 14.121094 29.554688 13.824219 C 30.351562 13.652344 31.175781 13.566406 31.992188 13.496094 C 32.679688 13.433594 33.378906 13.390625 34.066406 13.433594 C 35.070312 13.492188 36.070312 13.617188 37.066406 13.75 C 37.847656 13.851562 38.621094 14.003906 39.394531 14.144531 C 39.941406 14.242188 40.46875 14.414062 40.90625 14.757812 C 41.0625 14.878906 41.105469 15.136719 41.199219 15.359375 Z M 41.199219 15.359375 "/>
<path style=" stroke:none;fill-rule:nonzero;fill:rgb(14.901961%,21.568627%,49.411765%);fill-opacity:1;" d="M 158.527344 32.929688 C 160.882812 32.929688 163.203125 32.925781 165.527344 32.933594 C 165.714844 32.933594 165.910156 32.960938 166.09375 33.015625 C 166.417969 33.117188 166.589844 33.480469 166.5 33.933594 C 166.386719 34.535156 166.238281 35.132812 166.105469 35.734375 C 160.570312 35.734375 155.058594 35.734375 149.460938 35.734375 C 149.542969 35.402344 149.621094 35.09375 149.691406 34.78125 C 149.765625 34.449219 149.828125 34.113281 149.894531 33.78125 C 150.125 32.691406 150.351562 31.601562 150.582031 30.507812 C 150.875 29.109375 151.167969 27.707031 151.464844 26.304688 C 151.691406 25.246094 151.917969 24.1875 152.140625 23.128906 C 152.441406 21.714844 152.738281 20.304688 153.035156 18.894531 C 153.101562 18.582031 153.15625 18.265625 153.242188 17.960938 C 153.261719 17.894531 153.394531 17.8125 153.476562 17.8125 C 154.859375 17.804688 156.246094 17.804688 157.628906 17.808594 C 157.984375 17.8125 158.207031 18.097656 158.132812 18.480469 C 157.917969 19.542969 157.679688 20.597656 157.457031 21.65625 C 157.203125 22.859375 156.953125 24.066406 156.695312 25.269531 C 156.453125 26.421875 156.199219 27.570312 155.953125 28.722656 C 155.699219 29.925781 155.445312 31.132812 155.191406 32.335938 C 155.152344 32.523438 155.113281 32.707031 155.066406 32.929688 C 156.214844 32.929688 157.355469 32.929688 158.527344 32.929688 Z M 158.527344 32.929688 "/>
<path style=" stroke:none;fill-rule:nonzero;fill:rgb(14.901961%,21.568627%,49.411765%);fill-opacity:1;" d="M 75.765625 35.742188 C 75.757812 35.503906 75.753906 35.257812 75.804688 35.027344 C 76.230469 33.035156 76.671875 31.046875 77.101562 29.058594 C 77.5 27.214844 77.890625 25.367188 78.277344 23.519531 C 78.65625 21.710938 79.023438 19.902344 79.398438 18.09375 C 79.417969 18.003906 79.457031 17.914062 79.496094 17.808594 C 80.828125 17.808594 82.167969 17.800781 83.503906 17.8125 C 83.875 17.816406 84.082031 18.164062 84.003906 18.53125 C 83.726562 19.835938 83.460938 21.148438 83.1875 22.457031 C 82.960938 23.523438 82.726562 24.59375 82.503906 25.660156 C 82.226562 26.96875 81.957031 28.277344 81.683594 29.585938 C 81.457031 30.65625 81.226562 31.722656 81 32.792969 C 80.8125 33.683594 80.621094 34.574219 80.445312 35.472656 C 80.40625 35.683594 80.324219 35.75 80.109375 35.75 C 78.671875 35.742188 77.234375 35.746094 75.765625 35.742188 Z M 75.765625 35.742188 "/>
<path style=" stroke:none;fill-rule:nonzero;fill:rgb(14.901961%,21.568627%,49.411765%);fill-opacity:1;" d="M 170.691406 31.296875 C 170.867188 30.46875 171.046875 29.671875 171.214844 28.875 C 171.421875 27.898438 171.621094 26.921875 171.824219 25.945312 C 172.078125 24.730469 172.332031 23.515625 172.589844 22.304688 C 172.832031 21.164062 173.078125 20.023438 173.324219 18.882812 C 173.386719 18.59375 173.433594 18.296875 173.511719 18.011719 C 173.535156 17.929688 173.65625 17.816406 173.730469 17.816406 C 175.015625 17.804688 176.300781 17.800781 177.585938 17.8125 C 177.988281 17.8125 178.179688 18.183594 178.074219 18.679688 C 177.660156 20.628906 177.253906 22.582031 176.835938 24.53125 C 176.519531 26.011719 176.183594 27.492188 175.871094 28.972656 C 175.574219 30.386719 175.300781 31.804688 175.007812 33.214844 C 174.832031 34.054688 174.640625 34.890625 174.457031 35.734375 C 172.90625 35.734375 171.363281 35.734375 169.753906 35.734375 C 170.070312 34.253906 170.382812 32.789062 170.691406 31.296875 Z M 170.691406 31.296875 "/>
<path style=" stroke:none;fill-rule:nonzero;fill:rgb(100%,100%,100%);fill-opacity:1;" d="M 187.890625 22.785156 C 188.886719 21.574219 190.179688 20.964844 191.695312 20.824219 C 192.542969 20.746094 193.398438 20.664062 194.246094 20.703125 C 195.285156 20.753906 196.320312 20.894531 197.214844 21.527344 C 197.949219 22.050781 198.285156 22.777344 198.355469 23.648438 C 198.433594 24.648438 198.132812 25.597656 197.941406 26.558594 C 197.839844 27.078125 197.722656 27.597656 197.609375 28.132812 C 193.816406 28.132812 190.011719 28.132812 186.148438 28.132812 C 186.472656 26.800781 186.753906 25.484375 187.128906 24.195312 C 187.269531 23.703125 187.628906 23.269531 187.890625 22.785156 Z M 187.890625 22.785156 "/>
</g>
</svg>
