<?xml version="1.0" encoding="utf-8"?>
<!-- Generator: Adobe Illustrator 26.5.0, SVG Export Plug-In . SVG Version: 6.00 Build 0)  -->
<svg version="1.1" id="Layer_1" xmlns="http://www.w3.org/2000/svg" xmlns:xlink="http://www.w3.org/1999/xlink" x="0px" y="0px"
	 viewBox="0 0 150 46" width="150" height="46" style="enable-background:new 0 0 150 46;" xml:space="preserve">
<style type="text/css">
	.st0{fill-rule:evenodd;clip-rule:evenodd;fill:#DA291C;}
</style>
<path class="st0" d="M21.25113,10.29798c-0.58602-1.75371-3.7312-2.28328-6.38906-2.16566
	c-2.63912,0.11649-5.0459,0.748-4.89586,1.23188c0.15715,0.5043,1.48686,0.47023,2.29724,0.44946
	c0.13885-0.00356,0.26252-0.00673,0.36235-0.00673c2.51346,0,4.93394,0.46123,5.51224,1.12521
	c0.90154,1.03706-0.65098,3.59504-5.42577,7.08226c-0.91602,0.66928-1.59969,1.28513-1.75086,1.5872
	c-0.08161,0.16105-0.04284,0.39478,0.2078,0.42722c0.2627,0.03434,0.89303-0.10399,1.93255-0.60831
	C17.34361,17.36325,22.21129,13.17219,21.25113,10.29798z M26.21568,17.61476l-0.07302-0.01188
	c-2.34642-0.38368-6.54421-0.5345-7.9793,1.66474c-1.05868,1.62337,0.80397,3.81853,2.63487,5.97615
	c0.08656,0.10208,0.17302,0.20407,0.25923,0.30589c0.16261,0.19219,0.3267,0.38342,0.4894,0.57301l0.00035,0.00035
	c1.36691,1.59267,2.63149,3.06626,2.02379,3.96675c-0.47726,0.70917-3.18091,0.80639-4.70463,0.86121
	c-0.2457,0.00885-0.46078,0.01657-0.63086,0.02559c-0.40788,0.02185-0.86476,0.03816-1.32086,0.05438l0,0
	c-1.20829,0.04302-2.41112,0.08586-2.68292,0.23234c-0.33607,0.18109-0.52314,0.74352,0.73615,0.96814
	c1.01099,0.18143,3.41768,0.54977,5.95837,0.54794c2.65196-0.00061,5.43765-0.43485,6.04197-2.48813
	c0.43824-1.48877-0.89087-3.07398-2.24252-4.68616l-0.00009-0.00009l-0.00017-0.00017l-0.00009-0.00017l-0.00017-0.00017
	l-0.00009-0.00017l-0.00017-0.00009l-0.00009-0.00017l-0.00017-0.00017l-0.00009-0.00017l-0.00009-0.00009l-0.00017-0.00017
	l-0.00009-0.00017l-0.00018-0.00017l-0.00009-0.00017c-0.14501-0.17294-0.29028-0.34613-0.43364-0.51958
	c-0.36738-0.445-0.7358-0.86103-1.08436-1.2546l-0.00009-0.00017c-1.18869-1.3422-2.14564-2.42274-2.0388-3.49782
	c0.10616-1.07985,2.22665-1.14238,5.74337-1.20395c0.73363-0.01353,2.18944-0.04865,1.9087-0.62678
	C28.57338,17.9994,27.51903,17.82742,26.21568,17.61476z M46.87119,26.86019c0.58107-3.51534,2.96011-6.46226,7.39093-6.46226
	c4.42988,0,5.84398,2.94692,5.26628,6.46226c-0.57986,3.51915-2.96279,6.46-7.38737,6.46
	C47.70889,33.32019,46.30026,30.37934,46.87119,26.86019z M56.7885,26.86019c-0.46841,2.87762-1.7898,4.33664-4.30343,4.33664
	c-2.51077,0-3.34864-1.45902-2.87381-4.33664c0.46954-2.87632,1.78581-4.33699,4.30282-4.33699
	C56.42632,22.5232,57.26047,23.98387,56.7885,26.86019z M8.9221,21.23391c2.20895-0.11535,4.89221,0.23018,6.39937,1.26362
	c0.74933,0.51317,1.27629,1.45824,0.97118,2.54156c-0.86979,3.07432-4.11644,6.79399-11.33109,9.65219
	c-2.29404,0.90899-4.09779,1.2566-4.47633,1.01263c-0.35664-0.22957,0.5075-1.81547,0.96647-2.65777l0.00007-0.00018
	l0.00014-0.00026l0.00017-0.00026c0.06471-0.11873,0.12134-0.22272,0.16535-0.30598
	c1.15165-2.18059,2.59064-4.30395,3.99339-6.24795c0.04899-0.06791,0.10052-0.1405,0.15425-0.21621l0.0001-0.00009
	c0.51303-0.72279,1.22836-1.73057,1.88198-1.64071c0.64662,0.08872-0.11082,1.40768-0.60886,2.24607
	c-0.83693,1.40716-3.1423,5.31571-2.38184,5.5491c1.68122,0.5169,9.56963-4.86109,8.40644-7.85675
	c-0.53919-1.3899-3.96432-1.52242-6.12108-1.52242c-0.17023,0-0.37541,0.00624-0.59892,0.0131H6.34225H6.34216H6.34209H6.34201
	H6.34193H6.34185c-1.06486,0.03252-2.5448,0.07762-2.64276-0.47865C3.57127,21.96381,6.95467,21.33815,8.9221,21.23391z
	 M37.92774,26.04504c-1.10725-0.77543-1.41253-1.95519-1.2566-2.94449c0.22558-1.44011,1.45902-2.70261,2.8719-2.70261h6.35714
	v1.32026c-0.09029,0.59695-0.42384,1.19563-1.01463,1.19563h-4.81044c-0.47839,0-0.75271,0.12541-0.7913,0.43104
	c-0.02489,0.18031,0.05871,0.30754,0.39799,0.5509l4.20941,2.99072c0.90189,0.63884,1.36761,1.63629,1.14576,3.0294
	c-0.23521,1.48278-1.40369,2.87554-3.76927,2.87554h-5.39898v-1.71712c0.09158-0.55991,0.36209-0.79408,0.85149-0.79408h4.60749
	c0.82036,0,1.06293-0.19158,1.13579-0.65341c0.04926-0.33451-0.15143-0.52991-0.57223-0.81671L37.92774,26.04504z M68.7793,30.77508
	h-5.26342l1.81435-9.95062c0.04025-0.20225-0.10763-0.42653-0.35663-0.42653h-2.31684l-2.26203,12.39348h8.72273l0.22427-1.24359
	C69.44068,30.99918,69.25777,30.77508,68.7793,30.77508z M138.91563,20.47443h0.61057c0.11188,0,0.23329,0.01509,0.33736,0.09705
	c0.10149,0.07537,0.15524,0.21786,0.15265,0.33494c0,0.29643-0.17778,0.44916-0.17778,0.44916l-6.38144,5.41328l4.7787,5.19317
	c0,0,0.18387,0.22315,0.18387,0.44864c0,0.1215-0.05377,0.26165-0.16132,0.34222c-0.1006,0.07233-0.21422,0.08838-0.33737,0.09384
	h-0.60362l-5.04756-5.48752l-1.0121,5.48206h-1.35989l2.30435-12.38983h0.61057c0.13789,0,0.27925,0.04432,0.39201,0.13399
	c0.1084,0.0738,0.23502,0.25871,0.18039,0.52696l-0.84386,4.81729L138.91563,20.47443z M84.61594,20.39794h-6.66841l-0.034,0.19826
	c-0.15367,0.84334-0.08533,1.81322,1.24732,1.81322h4.93663c1.95589,0,2.70469,1.41765,2.22309,4.07395
	c-0.44353,2.43054-1.75936,4.29172-3.74967,4.29172h-2.68015l1.27646-6.96935h-2.27972c-0.30658,0-0.52427,0.22159-0.55332,0.42132
	l-1.56552,8.56054h5.22474c3.86008,0,6.54993-1.80975,7.37818-6.39556C90.02203,22.87514,88.55026,20.39794,84.61594,20.39794z
	 M120.62649,20.45145h3.18725c1.88026,0,3.53503,0.02871,4.4977,1.13006c0.549,0.63138,0.58888,1.79587,0.43625,2.50834
	c-0.19167,0.88167-1.02339,3.08716-4.14906,3.3685l2.63219,4.50368c0,0,0.17606,0.27319,0.17606,0.44864
	c0.00434,0.1215-0.04944,0.26165-0.15697,0.34222c-0.10233,0.07233-0.21421,0.09384-0.33824,0.09384h-0.68862l-3.0875-5.31537
	l-2.48388-0.01431l-0.96529,5.32968h-1.36249L120.62649,20.45145z M125.22567,26.08259
	c-0.75713,0.20251-1.82041,0.23989-2.92359,0.23989c-0.22116-0.00338-0.49261-0.00598-0.77448-0.00867h-0.00086
	c-0.21855-0.00217-0.44405-0.00434-0.65653-0.00694l0.81351-4.51105c0.13704-0.00061,0.34171-0.00243,0.58454-0.00468
	c0.89677-0.00815,2.3217-0.02116,2.88284,0.00841c0.28447,0.01492,0.53858,0.03495,0.69209,0.06531
	c0.5854,0.11127,0.967,0.22523,1.21418,0.4705C128.12584,23.3524,127.1675,25.55902,125.22567,26.08259z M141.63107,23.34486
	c0.01215-0.9266,0.26279-2.88595,2.65215-2.8935h5.1178v0.93909c0.00433,0.15255-0.15524,0.34665-0.30182,0.37154l0.00781,0.03382
	l-0.00955-0.03382c-0.03815,0.0111-4.59135,0.01752-4.59657,0.01752c-0.93405,0-1.50731,0.60848-1.51251,1.36995
	c0.0052,0.45029,0.26016,0.86788,0.66953,1.27247l3.3026,3.25047c0.0052,0,1.18556,0.99173,1.18556,2.27608v0.00494
	c-0.01041,0.92435-0.26538,2.88439-2.65298,2.89332h-5.06058v-0.92946l-0.01561-0.00772h0.01561
	c-0.00261-0.15411,0.14745-0.34795,0.29834-0.3757c0.02777-0.00989,1.99648-0.01318,3.33469-0.01552h0.00087l0,0h0.00085l0,0
	c0.69037-0.00113,1.21333-0.002,1.2142-0.00338c0.93146,0.00399,1.50906-0.61343,1.50906-1.37012
	c0-0.44934-0.20381-0.92391-0.61751-1.32797l-3.48299-3.41317C142.33791,25.09572,141.63107,24.31924,141.63107,23.34486z
	 M75.34562,20.39794h-2.31875l-2.26576,12.38966h2.75421l2.18771-11.96695C75.74059,20.62222,75.59375,20.39794,75.34562,20.39794z
	 M113.21648,20.42144v0.00624c3.72234,0.43268,4.83073,3.75132,4.07967,6.92668c-0.83518,3.5221-3.37544,6.3025-7.42649,5.99176
	c-3.77265-0.43841-4.84808-3.76208-4.05018-6.93293C106.69283,22.89275,109.2244,20.11252,113.21648,20.42144z M115.96748,27.24717
	c-0.8586,3.61186-3.30693,4.95441-5.60867,4.83039l-0.22636-0.01154c-2.2289-0.28551-3.87326-2.0048-2.99818-5.54511
	c0.8959-3.61073,3.49426-4.95189,5.76912-4.82787C115.16093,21.92356,116.80787,23.70668,115.96748,27.24717z M105.65296,20.56203
	c0.11534,0.08855,0.17172,0.25619,0.16652,0.37891c0,0.11136-0.02428,0.16791-0.05724,0.24527l-0.00694,0.01665l-4.77869,10.75181
	c-0.24545,0.56113-0.71724,0.88662-1.28271,0.88662h-0.89503l-1.37897-6.75869l-3.32861,5.92853
	c-0.15524,0.24544-0.32783,0.44838-0.53251,0.59721c-0.22462,0.16305-0.49782,0.23841-0.80137,0.23295h-1.05287V20.45145h0.81004
	c0.12836,0,0.26192,0.02298,0.37901,0.12003c0.12315,0.09532,0.17519,0.26808,0.17519,0.40615l-0.03815,10.31461l3.79607-6.61498
	h0.80743c0.49088-0.02741,0.90024,0.32315,0.97222,0.83536l1.25494,5.83886l4.80905-10.90002h0.62617
	C105.41879,20.45145,105.54195,20.47391,105.65296,20.56203z"/>
</svg>
