<?xml version="1.0" encoding="UTF-8"?>
<svg xmlns="http://www.w3.org/2000/svg" xmlns:xlink="http://www.w3.org/1999/xlink" width="48px" height="48px" viewBox="0 0 48 48" version="1.1">
<g id="surface1">
<path style=" stroke:none;fill-rule:nonzero;fill:rgb(28.627451%,27.058824%,100%);fill-opacity:1;" d="M 0 16.640625 C 0 8.796875 0 4.875 2.4375 2.4375 C 4.875 0 8.796875 0 16.640625 0 L 31.359375 0 C 39.203125 0 43.125 0 45.5625 2.4375 C 48 4.875 48 8.796875 48 16.640625 L 48 31.359375 C 48 39.203125 48 43.125 45.5625 45.5625 C 43.125 48 39.203125 48 31.359375 48 L 16.640625 48 C 8.796875 48 4.875 48 2.4375 45.5625 C 0 43.125 0 39.203125 0 31.359375 Z M 0 16.640625 "/>
<path style=" stroke:none;fill-rule:nonzero;fill:rgb(100%,100%,100%);fill-opacity:1;" d="M 33.121094 14.558594 L 16.960938 14.558594 L 16.960938 22.800781 L 25.199219 22.800781 L 25.199219 31.039062 L 33.441406 31.039062 L 33.441406 14.878906 C 33.441406 14.703125 33.296875 14.558594 33.121094 14.558594 Z M 33.121094 14.558594 "/>
<path style=" stroke:none;fill-rule:nonzero;fill:rgb(100%,100%,100%);fill-opacity:1;" d="M 24.878906 22.800781 L 25.199219 22.800781 L 25.199219 23.121094 L 24.878906 23.121094 Z M 24.878906 22.800781 "/>
<path style=" stroke:none;fill-rule:nonzero;fill:rgb(58.431373%,57.647059%,100%);fill-opacity:1;" d="M 16.960938 22.800781 L 24.878906 22.800781 C 25.058594 22.800781 25.199219 22.941406 25.199219 23.121094 L 25.199219 31.039062 L 17.28125 31.039062 C 17.101562 31.039062 16.960938 30.898438 16.960938 30.71875 Z M 16.960938 22.800781 "/>
<path style=" stroke:none;fill-rule:nonzero;fill:rgb(58.431373%,57.647059%,100%);fill-opacity:1;" d="M 25.199219 31.039062 L 33.441406 31.039062 L 25.472656 39.007812 C 25.371094 39.109375 25.199219 39.035156 25.199219 38.894531 Z M 25.199219 31.039062 "/>
<path style=" stroke:none;fill-rule:nonzero;fill:rgb(58.431373%,57.647059%,100%);fill-opacity:1;" d="M 16.960938 22.800781 L 9.105469 22.800781 C 8.964844 22.800781 8.890625 22.628906 8.992188 22.527344 L 16.960938 14.558594 Z M 16.960938 22.800781 "/>
</g>
</svg>
